<?xml version="1.0" standalone="no"?>
<!DOCTYPE svg PUBLIC "-//W3C//DTD SVG 1.1//EN" "http://www.w3.org/Graphics/SVG/1.1/DTD/svg11.dtd" >
<svg xmlns="http://www.w3.org/2000/svg" xmlns:xlink="http://www.w3.org/1999/xlink" version="1.1">
<metadata>
Created by FontForge 20170731 at Tue Mar 27 11:14:05 2018
 By Aleksey,,,
Copyright (c) 2018 Monotype Imaging Inc. All rights reserved.
</metadata>
<defs>
<font id="NeuePlakText-ThinItalic" horiz-adv-x="0" >
  <font-face 
    font-family="Neue Plak Text Thin"
    font-weight="250"
    font-style="italic"
    font-stretch="normal"
    units-per-em="1000"
    panose-1="2 11 3 4 3 2 2 9 2 4"
    ascent="800"
    descent="-200"
    x-height="480"
    cap-height="706"
    bbox="-732 -247 1047 1136"
    underline-thickness="50"
    underline-position="-200"
    slope="-11"
    unicode-range="U+000D-FEFF"
  />
<missing-glyph horiz-adv-x="630" 
d="M34 0l141 706h466l-141 -706h-466zM96 48h362l122 610h-362z" />
    <glyph glyph-name=".notdef" horiz-adv-x="630" 
d="M34 0l141 706h466l-141 -706h-466zM96 48h362l122 610h-362z" />
    <glyph glyph-name=".null" 
 />
    <glyph glyph-name="nonmarkingreturn" horiz-adv-x="333" 
 />
    <glyph glyph-name="NULL" 
 />
    <glyph glyph-name="NULL" 
 />
    <glyph glyph-name="CR" unicode="&#xd;" horiz-adv-x="180" 
 />
    <glyph glyph-name="space" unicode=" " horiz-adv-x="180" 
 />
    <glyph glyph-name="exclam" unicode="!" horiz-adv-x="252" 
d="M92 174l101 532h53l-111 -532h-43zM84 -12q-19 0 -30.5 11t-11.5 30t11.5 31t30.5 12q18 0 30 -12t12 -31q0 -18 -12 -29.5t-30 -11.5z" />
    <glyph glyph-name="quotedbl" unicode="&#x22;" horiz-adv-x="354" 
d="M121 425l52 281h49l-59 -281h-42zM266 425l52 281h49l-59 -281h-42z" />
    <glyph glyph-name="numbersign" unicode="#" horiz-adv-x="633" 
d="M649 449h-129l-69 -193h129l-18 -46h-127l-80 -225h-50l80 225h-197l-80 -225h-50l80 225h-125l18 46h123l69 193h-123l18 46h122l80 226h50l-80 -226h196l80 226h51l-80 -226h130zM401 256l69 193h-197l-69 -193h197z" />
    <glyph glyph-name="dollar" unicode="$" horiz-adv-x="588" 
d="M561 482h-53q5 28 5 47q0 57 -29.5 94t-86.5 47l-57 -284q2 -1 6 -2.5t6 -1.5q92 -32 135.5 -72.5t43.5 -116.5q0 -96 -72 -152t-189 -56h-9l-18 -91h-41l19 94q-92 11 -136 64.5t-44 137.5q0 22 3 46h55q-4 -23 -4 -47q0 -138 136 -155l62 314q-84 28 -128 68.5
t-44 113.5q0 84 65 137.5t167 53.5h14l18 91h41l-19 -95q79 -12 119 -61t40 -123q0 -23 -5 -51zM303 399l56 275h-6q-81 0 -130.5 -40.5t-49.5 -104.5q0 -51 32 -78.5t98 -51.5zM476 192q0 58 -36.5 88.5t-109.5 55.5l-60 -304q94 0 150 43.5t56 116.5z" />
    <glyph glyph-name="percent" unicode="%" horiz-adv-x="734" 
d="M229 411q-59 0 -86.5 35t-27.5 93q0 74 40 123.5t108 49.5q113 0 113 -129q0 -73 -39.5 -122.5t-107.5 -49.5zM52 0l622 706h54l-622 -706h-54zM230 449q53 0 79.5 38.5t26.5 97.5q0 89 -75 89q-53 0 -79.5 -39t-26.5 -99q0 -87 75 -87zM518 -6q-59 0 -86.5 35t-27.5 93
q0 74 40 123.5t108 49.5q113 0 113 -129q0 -73 -39.5 -122.5t-107.5 -49.5zM519 32q53 0 79.5 38.5t26.5 97.5q0 89 -75 89q-53 0 -79.5 -39t-26.5 -99q0 -87 75 -87z" />
    <glyph glyph-name="ampersand" unicode="&#x26;" horiz-adv-x="611" 
d="M431 96q24 -30 49.5 -40.5t61.5 -10.5l-9 -45q-48 0 -79 13.5t-58 47.5q-85 -74 -193 -74q-89 0 -136 42t-47 116t52 129t143 108q-38 85 -38 152q0 87 50 137t137 50q74 0 113 -32t39 -89q0 -49 -38.5 -95t-71.5 -67.5t-113 -66.5l-15 -9q4 -7 12.5 -22.5t12.5 -23.5
l102 -180q41 47 122 183l40 -21q-80 -138 -136 -202zM225 535q0 -53 32 -129q120 66 155 96q56 47 56 97q0 35 -26 55.5t-79 20.5q-64 0 -101 -36.5t-37 -103.5zM205 33q90 0 165 67q0 1 -1 2.5t-2 2.5t-1 2l-107 189l-23 42q-77 -45 -119.5 -90t-42.5 -104
q0 -52 34.5 -81.5t96.5 -29.5z" />
    <glyph glyph-name="quotesingle" unicode="'" horiz-adv-x="209" 
d="M121 425l52 281h49l-59 -281h-42z" />
    <glyph glyph-name="parenleft" unicode="(" horiz-adv-x="375" 
d="M186 -201q-54 168 -54 335q0 352 248 670h56q-258 -311 -258 -671q0 -172 55 -334h-47z" />
    <glyph glyph-name="parenright" unicode=")" horiz-adv-x="375" 
d="M214 804q54 -168 54 -335q0 -352 -248 -670h-56q258 311 258 671q0 172 -55 334h47z" />
    <glyph glyph-name="asterisk" unicode="*" horiz-adv-x="349" 
d="M144 446l-26 29l94 81l-111 58l20 35l107 -64l20 122l38 -8l-28 -120l123 18l5 -40l-124 -11l56 -111l-36 -17l-48 115z" />
    <glyph glyph-name="plus" unicode="+" horiz-adv-x="568" 
d="M527 301l-9 -44h-208l-42 -210h-46l42 210h-208l9 44h208l42 211h46l-42 -211h208z" />
    <glyph glyph-name="comma" unicode="," horiz-adv-x="252" 
d="M-25 -168l128 323h51l-136 -323h-43z" />
    <glyph glyph-name="hyphen" unicode="-" horiz-adv-x="374" 
d="M56 255l10 48h268l-10 -48h-268z" />
    <glyph glyph-name="period" unicode="." horiz-adv-x="252" 
d="M84 -12q-19 0 -30.5 11t-11.5 30t11.5 31t30.5 12q18 0 30 -12t12 -31q0 -18 -12 -29.5t-30 -11.5z" />
    <glyph glyph-name="slash" unicode="/" horiz-adv-x="420" 
d="M-20 -50l442 771h56l-443 -771h-55z" />
    <glyph glyph-name="zero" unicode="0" horiz-adv-x="600" 
d="M263 -15q-102 0 -150 67.5t-48 180.5q0 69 15 147q31 151 107.5 246t194.5 95q102 0 150 -67.5t48 -180.5q0 -77 -15 -147q-33 -152 -108.5 -246.5t-193.5 -94.5zM263 34q97 0 160.5 81.5t87.5 209.5q15 78 15 145q0 202 -144 202q-97 0 -159.5 -81t-88.5 -210
q-15 -78 -15 -145q0 -202 144 -202z" />
    <glyph glyph-name="one" unicode="1" horiz-adv-x="600" 
d="M257 0l132 658h-176l20 48h216l-141 -706h-51z" />
    <glyph glyph-name="two" unicode="2" horiz-adv-x="600" 
d="M12 0l1 3l340 288q44 38 68.5 61t50 54.5t36 62.5t10.5 68q0 63 -35.5 99t-109.5 36q-163 0 -201 -202h-51q22 115 84 183t169 68q101 0 149.5 -49.5t48.5 -134.5q0 -76 -38.5 -132.5t-120.5 -125.5q-87 -74 -276 -232h347l-9 -47h-463z" />
    <glyph glyph-name="three" unicode="3" horiz-adv-x="600" 
d="M580 552q0 -74 -45 -121t-124 -59q117 -33 117 -160q0 -104 -70 -165.5t-186 -61.5q-113 0 -163.5 49.5t-50.5 143.5q0 34 7 68h50q-7 -40 -7 -66q0 -147 164 -147q94 0 149.5 49t55.5 132q0 137 -189 137h-9l9 45h29q98 0 155 40t57 115q0 59 -37.5 91.5t-112.5 32.5
q-169 0 -204 -194h-52q21 113 85.5 176.5t174.5 63.5q98 0 147.5 -45.5t49.5 -123.5z" />
    <glyph glyph-name="four" unicode="4" horiz-adv-x="600" 
d="M565 238l-10 -46h-104l-38 -192h-51l38 192h-390l1 4l447 510h96l-93 -468h104zM112 238h297l89 444h-1z" />
    <glyph glyph-name="five" unicode="5" horiz-adv-x="600" 
d="M562 659h-293l-79 -220q58 14 111 14q112 0 167 -57t55 -157q0 -112 -72.5 -183t-189.5 -71q-106 0 -155.5 49.5t-49.5 135.5q0 21 5 49h50q-4 -21 -4 -46q0 -141 154 -141q96 0 152.5 57t56.5 146q0 171 -189 171q-84 0 -164 -29l119 329h345z" />
    <glyph glyph-name="six" unicode="6" horiz-adv-x="600" 
d="M341 453q101 0 156 -57.5t55 -148.5q0 -109 -78 -185.5t-191 -76.5q-218 0 -218 263q0 125 37 231t115 174t183 68q97 0 149 -55.5t52 -150.5h-53q1 76 -37.5 117.5t-110.5 41.5q-81 0 -143 -51t-95.5 -129.5t-44.5 -175.5q30 62 88.5 98.5t135.5 36.5zM283 32
q94 0 155 63.5t61 153.5q0 70 -43 113.5t-122 43.5q-96 0 -154 -60t-58 -149q0 -72 41 -118.5t120 -46.5z" />
    <glyph glyph-name="seven" unicode="7" horiz-adv-x="600" 
d="M127 0l424 658h-391l9 48h472l-452 -706h-62z" />
    <glyph glyph-name="eight" unicode="8" horiz-adv-x="600" 
d="M420 371q118 -35 118 -162q0 -103 -73.5 -163.5t-187.5 -60.5q-118 0 -176.5 50t-58.5 136q0 84 54.5 140.5t142.5 67.5q-108 36 -108 156q0 86 67.5 136t169.5 50q109 0 165 -43.5t56 -120.5q0 -73 -47 -123.5t-122 -62.5zM184 529q0 -62 40.5 -97.5t116.5 -35.5
q84 0 139.5 43t55.5 110q0 60 -42.5 94t-126.5 34q-82 0 -132.5 -39.5t-50.5 -108.5zM278 31q91 0 148.5 47.5t57.5 126.5q0 67 -44 106t-128 39q-94 0 -155.5 -49t-61.5 -126q0 -66 46 -105t137 -39z" />
    <glyph glyph-name="nine" unicode="9" horiz-adv-x="600" 
d="M362 721q218 0 218 -263q0 -125 -37 -231t-115 -174t-183 -68q-97 0 -149 55.5t-52 150.5h53q-1 -76 37.5 -117.5t110.5 -41.5q81 0 143 51t95.5 129.5t44.5 175.5q-30 -62 -88.5 -98.5t-135.5 -36.5q-101 0 -156 57.5t-55 148.5q0 109 78 185.5t191 76.5zM311 300
q96 0 154 60t58 149q0 72 -41 118.5t-120 46.5q-94 0 -155 -63.5t-61 -153.5q0 -70 43 -113.5t122 -43.5z" />
    <glyph glyph-name="colon" unicode=":" horiz-adv-x="252" 
d="M157 355q-19 0 -30.5 11t-11.5 30t11.5 31t30.5 12q18 0 30 -12t12 -31q0 -18 -12 -29.5t-30 -11.5zM84 -12q-19 0 -30.5 11t-11.5 30t11.5 31t30.5 12q18 0 30 -12t12 -31q0 -18 -12 -29.5t-30 -11.5z" />
    <glyph glyph-name="semicolon" unicode=";" horiz-adv-x="275" 
d="M180 355q-19 0 -30.5 11t-11.5 30t11.5 31t30.5 12q18 0 30 -12t12 -31q0 -18 -12 -29.5t-30 -11.5zM-25 -168l128 323h51l-136 -323h-43z" />
    <glyph glyph-name="less" unicode="&#x3c;" horiz-adv-x="568" 
d="M562 473l-9 -47l-450 -147l391 -148l-10 -47l-428 165l3 15l9 44z" />
    <glyph glyph-name="equal" unicode="=" horiz-adv-x="568" 
d="M76 355l9 44h462l-9 -44h-462zM37 159l9 44h462l-9 -44h-462z" />
    <glyph glyph-name="greater" unicode="&#x3e;" horiz-adv-x="568" 
d="M528 308l-3 -15l-9 -44l-494 -165l9 47l450 147l-391 148l10 47z" />
    <glyph glyph-name="question" unicode="?" horiz-adv-x="471" 
d="M186 174q145 170 177 214q80 109 80 181q0 47 -30 77t-98 30q-82 0 -120 -41.5t-54 -122.5h-50q19 101 71.5 155t152.5 54q91 0 135.5 -42t44.5 -111q0 -17 -3.5 -34t-7.5 -32t-14.5 -35.5t-17.5 -34t-24.5 -37.5t-27 -37t-33 -42t-35 -42.5t-41 -48.5t-42.5 -51h-63z
M189 -12q-19 0 -30.5 11t-11.5 30t11.5 31t30.5 12q18 0 30 -12t12 -31q0 -18 -12 -29.5t-30 -11.5z" />
    <glyph glyph-name="at" unicode="@" horiz-adv-x="824" 
d="M468 673q157 0 238 -84.5t81 -223.5q0 -128 -70 -213t-192 -85h-33l11 53q-54 -63 -146 -63q-66 0 -97.5 30.5t-31.5 82.5q0 139 200 139h113q6 37 6 57q0 45 -22.5 66t-80.5 21q-57 0 -85.5 -24t-37.5 -73h-44q24 137 170 137q78 0 110 -32.5t32 -95.5q0 -28 -8 -70
l-38 -193q97 5 151 80.5t53 181.5q-1 126 -71.5 199.5t-209.5 73.5q-171 0 -267 -116.5t-96 -297.5q0 -137 70.5 -218t217.5 -81q33 0 58 3l-9 -37q-21 -3 -52 -3q-167 0 -246 91.5t-79 244.5q0 196 109 323t296 127zM372 96q71 0 107 41t55 136h-105q-75 0 -115 -23.5
t-40 -80.5q0 -73 98 -73z" />
    <glyph glyph-name="A" unicode="A" horiz-adv-x="593" 
d="M484 0l-29 199h-327l-109 -199h-57l388 706h79l106 -706h-51zM153 245h295l-62 422h-2z" />
    <glyph glyph-name="B" unicode="B" horiz-adv-x="583" 
d="M412 364q110 -31 110 -155q0 -101 -71.5 -155t-195.5 -54h-205l141 706h170q99 0 149.5 -44t50.5 -122q0 -66 -40 -113t-109 -63zM234 661l-55 -276h138q86 0 138.5 42t52.5 112q0 122 -157 122h-117zM253 45q104 0 160 42t56 125q0 128 -169 128h-130l-59 -295h142z" />
    <glyph glyph-name="C" unicode="C" horiz-adv-x="688" 
d="M325 -15q-129 0 -190.5 78t-61.5 214q0 117 41 216.5t125 163.5t196 64q115 0 180 -65.5t65 -177.5q0 -10 -1 -19h-50q1 9 1 21q0 90 -53 142t-145 52q-96 0 -167 -58.5t-105 -147.5t-34 -192q0 -244 203 -244q99 0 166.5 55t92.5 148h50q-26 -119 -110.5 -184.5
t-202.5 -65.5z" />
    <glyph glyph-name="D" unicode="D" horiz-adv-x="673" 
d="M50 0l141 706h164q288 0 288 -287q0 -185 -101 -302t-278 -117h-214zM111 47h148q160 0 245.5 104t85.5 273q0 113 -55.5 174t-182.5 61h-118z" />
    <glyph glyph-name="E" unicode="E" horiz-adv-x="529" 
d="M50 0l141 706h382l-9 -47h-330l-55 -274h327l-10 -48h-327l-58 -290h330l-9 -47h-382z" />
    <glyph glyph-name="F" unicode="F" horiz-adv-x="519" 
d="M50 0l141 706h378l-9 -47h-326l-55 -274h324l-10 -48h-324l-67 -337h-52z" />
    <glyph glyph-name="G" unicode="G" horiz-adv-x="697" 
d="M400 313l9 47h258l-15 -76q-27 -135 -107.5 -217t-221.5 -82q-123 0 -187 77.5t-64 203.5q0 194 98.5 324.5t267.5 130.5q242 0 242 -247h-50q-1 97 -49 148.5t-143 51.5q-101 0 -173 -58.5t-106 -151.5t-34 -209q0 -100 52 -161.5t147 -61.5q226 0 277 258l5 23h-206z
" />
    <glyph glyph-name="H" unicode="H" horiz-adv-x="662" 
d="M50 0l141 706h52l-64 -321h362l64 321h52l-141 -706h-52l68 338h-362l-68 -338h-52z" />
    <glyph glyph-name="I" unicode="I" horiz-adv-x="248" 
d="M50 0l141 706h52l-141 -706h-52z" />
    <glyph glyph-name="J" unicode="J" horiz-adv-x="340" 
d="M38 -3q-38 0 -66 5l10 49q28 -5 53 -5q73 0 112 36t55 120l101 504h52l-104 -522q-20 -97 -70.5 -142t-142.5 -45z" />
    <glyph glyph-name="K" unicode="K" horiz-adv-x="549" 
d="M586 706l-356 -328l256 -378h-61l-250 367l-73 -367h-52l141 706h52l-61 -306l335 306h69z" />
    <glyph glyph-name="L" unicode="L" horiz-adv-x="468" 
d="M50 0l141 706h52l-132 -659h298l-9 -47h-350z" />
    <glyph glyph-name="M" unicode="M" horiz-adv-x="830" 
d="M50 0l141 706h66l126 -627l371 627h71l-141 -706h-50l125 622l-376 -622h-31l-126 624l-126 -624h-50z" />
    <glyph glyph-name="N" unicode="N" horiz-adv-x="690" 
d="M50 0l141 706h58l259 -634l127 634h50l-141 -706h-58l-259 634l-127 -634h-50z" />
    <glyph glyph-name="O" unicode="O" horiz-adv-x="712" 
d="M324 -15q-128 0 -190 78t-62 206q0 90 24.5 171.5t69 144t113.5 99.5t153 37q129 0 191 -77.5t62 -204.5q0 -123 -41 -225t-124.5 -165.5t-195.5 -63.5zM334 32q92 0 161.5 59.5t103 152t33.5 201.5q0 104 -51 166.5t-158 62.5q-92 0 -161.5 -59t-103 -151t-33.5 -201
q0 -106 50 -168.5t159 -62.5z" />
    <glyph glyph-name="P" unicode="P" horiz-adv-x="552" 
d="M50 0l141 706h183q208 0 208 -168q0 -95 -63.5 -148.5t-170.5 -53.5h-179l-67 -336h-52zM179 383h159q89 0 139.5 40t50.5 114q0 122 -155 122h-139z" />
    <glyph glyph-name="Q" unicode="Q" horiz-adv-x="712" 
d="M685 439q0 -157 -68.5 -278t-189.5 -160l59 -136l-46 -20l-60 144q-24 -4 -56 -4q-128 0 -190 78t-62 206q0 90 24.5 171.5t69 144t113.5 99.5t153 37q129 0 191 -77.5t62 -204.5zM409 43q104 32 163.5 145t59.5 257q0 104 -51 166.5t-158 62.5q-92 0 -161.5 -59
t-103 -151t-33.5 -201q0 -106 50 -168.5t159 -62.5q18 0 27 1l-41 99l42 18z" />
    <glyph glyph-name="R" unicode="R" horiz-adv-x="594" 
d="M602 538q0 -94 -67.5 -147.5t-178.5 -53.5h-7l187 -337h-58l-186 337h-123l-67 -337h-52l141 706h201q210 0 210 -168zM179 383h173q94 0 144.5 39.5t50.5 116.5q0 121 -160 121h-153z" />
    <glyph glyph-name="S" unicode="S" horiz-adv-x="580" 
d="M270 -15q-118 0 -175.5 55t-57.5 150q0 22 3 46h52q-4 -23 -4 -46q0 -74 46 -116t139 -42q94 0 148 43t54 115q0 35 -12 59.5t-40.5 42.5t-53 27.5t-72.5 25.5q-88 29 -134 70t-46 113q0 86 64.5 139.5t170.5 53.5q103 0 156.5 -51.5t53.5 -135.5q0 -24 -5 -52h-50
q5 28 5 49q0 65 -42.5 104t-120.5 39q-81 0 -130.5 -40.5t-49.5 -104.5q0 -17 4.5 -32t10.5 -26t19 -22t22 -17t28.5 -14.5t29 -12t33 -12t32.5 -11.5q94 -34 136.5 -74t42.5 -114q0 -97 -69 -153t-188 -56z" />
    <glyph glyph-name="T" unicode="T" horiz-adv-x="542" 
d="M197 0l132 659h-225l9 47h502l-9 -47h-225l-132 -659h-52z" />
    <glyph glyph-name="U" unicode="U" horiz-adv-x="618" 
d="M270 -15q-103 0 -152.5 42.5t-49.5 130.5q0 34 7 69l96 479h52l-97 -487q-6 -33 -6 -59q0 -66 36.5 -97t114.5 -31q92 0 142.5 43t68.5 134l99 497h52l-102 -509q-22 -108 -85 -160t-176 -52z" />
    <glyph glyph-name="V" unicode="V" horiz-adv-x="587" 
d="M613 706h57l-397 -706h-54l-116 706h52l102 -645z" />
    <glyph glyph-name="W" unicode="W" horiz-adv-x="870" 
d="M900 706h53l-337 -706h-58l-50 635l-288 -635h-56l-61 706h49l52 -633l286 633h59l51 -628z" />
    <glyph glyph-name="X" unicode="X" horiz-adv-x="623" 
d="M-33 0l335 377l-174 329h58l154 -296l256 296h65l-296 -337l195 -369h-58l-175 335l-294 -335h-66z" />
    <glyph glyph-name="Y" unicode="Y" horiz-adv-x="537" 
d="M196 0l61 305l-154 401h54l133 -349l267 349h63l-312 -401l-61 -305h-51z" />
    <glyph glyph-name="Z" unicode="Z" horiz-adv-x="548" 
d="M-25 0l529 659h-380l9 47h471l-527 -659h407l-9 -47h-500z" />
    <glyph glyph-name="bracketleft" unicode="[" horiz-adv-x="369" 
d="M79 -201l201 1005h179l-8 -41h-134l-185 -923h134l-8 -41h-179z" />
    <glyph glyph-name="backslash" unicode="\" horiz-adv-x="420" 
d="M324 -50h-48l-142 771h48z" />
    <glyph glyph-name="bracketright" unicode="]" horiz-adv-x="369" 
d="M315 804l-201 -1005h-179l8 41h134l185 923h-134l8 41h179z" />
    <glyph glyph-name="asciicircum" unicode="^" horiz-adv-x="408" 
d="M405 374h-48l-64 295l-182 -295h-54l206 332h68z" />
    <glyph glyph-name="underscore" unicode="_" horiz-adv-x="383" 
d="M-78 -151l9 46h383l-9 -46h-383z" />
    <glyph glyph-name="grave" unicode="`" horiz-adv-x="250" 
d="M267 573h-47l-73 153h51z" />
    <glyph glyph-name="a" unicode="a" horiz-adv-x="518" 
d="M283 491q170 0 170 -158q0 -32 -10 -79l-51 -254h-48l15 74q-68 -85 -185 -85q-74 0 -112 33.5t-38 91.5q0 162 232 162h143q6 35 6 59q0 55 -28.5 83t-94.5 28q-127 0 -149 -113h-51q13 73 64.5 115.5t136.5 42.5zM182 33q87 0 138 49t71 152h-129q-187 0 -187 -112
q0 -89 107 -89z" />
    <glyph glyph-name="b" unicode="b" horiz-adv-x="555" 
d="M335 491q92 0 135 -55.5t43 -146.5q0 -122 -70.5 -210.5t-180.5 -88.5q-131 0 -160 110l-20 -100h-48l141 706h48l-60 -299q67 84 172 84zM258 35q92 0 148.5 76t56.5 179q0 70 -32 112.5t-101 42.5q-73 0 -125.5 -47.5t-68.5 -128.5q-12 -63 -12 -90q0 -69 35 -106.5
t99 -37.5z" />
    <glyph glyph-name="c" unicode="c" horiz-adv-x="504" 
d="M228 -10q-93 0 -139 55.5t-46 146.5q0 124 71 211.5t184 87.5q81 0 128 -42t47 -117q0 -15 -1 -23h-49q1 7 1 18q0 56 -34 87t-93 31q-93 0 -148 -75t-55 -180q0 -71 33 -113t102 -42q63 0 107.5 36t56.5 95h51q-16 -81 -75.5 -128.5t-140.5 -47.5z" />
    <glyph glyph-name="d" unicode="d" horiz-adv-x="555" 
d="M518 706h48l-141 -706h-48l15 73q-68 -84 -172 -84q-92 0 -135 55.5t-43 146.5q0 122 70.5 210.5t180.5 88.5q131 0 160 -110zM225 35q73 0 125.5 47.5t68.5 128.5q12 63 12 90q0 69 -35 106.5t-99 37.5q-92 0 -148.5 -76t-56.5 -179q0 -70 32 -112.5t101 -42.5z" />
    <glyph glyph-name="e" unicode="e" horiz-adv-x="529" 
d="M483 235h-388q-3 -23 -3 -46q0 -72 36 -113.5t112 -41.5q130 0 174 117h51q-24 -78 -83.5 -119.5t-140.5 -41.5q-100 0 -149 54.5t-49 145.5q0 127 70 214t186 87q87 0 137.5 -52.5t50.5 -147.5q0 -29 -4 -56zM299 446q-77 0 -127.5 -46.5t-69.5 -122.5h336v15
q0 72 -34 113t-105 41z" />
    <glyph glyph-name="f" unicode="f" horiz-adv-x="318" 
d="M59 0l87 437h-83l9 43h83l21 104q27 130 160 130q27 0 52 -5l-9 -44q-20 5 -44 5q-94 0 -114 -98l-18 -92h137l-9 -43h-137l-87 -437h-48z" />
    <glyph glyph-name="g" unicode="g" horiz-adv-x="555" 
d="M473 480h48l-99 -495q-38 -197 -232 -197q-96 0 -144.5 43t-34.5 124h47q-10 -60 26.5 -91.5t107.5 -31.5q152 0 184 165l15 75q-66 -81 -170 -81q-92 0 -135 55.5t-43 146.5q0 122 70 209.5t180 87.5q131 0 160 -110zM226 37q73 0 125.5 47t68.5 128q11 57 11 89
q0 69 -35 106.5t-99 37.5q-92 0 -148 -75t-56 -178q0 -70 32 -112.5t101 -42.5z" />
    <glyph glyph-name="h" unicode="h" horiz-adv-x="542" 
d="M325 491q151 0 151 -155q0 -37 -9 -79l-51 -257h-48l53 265q8 40 8 70q0 110 -113 110q-71 0 -116 -41.5t-61 -120.5l-57 -283h-48l141 706h48l-57 -287q60 72 159 72z" />
    <glyph glyph-name="i" unicode="i" horiz-adv-x="212" 
d="M189 606q-19 0 -30.5 11.5t-11.5 29.5q0 19 11.5 31t30.5 12q17 0 29.5 -12t12.5 -31q0 -18 -12 -29.5t-30 -11.5zM34 0l96 480h48l-96 -480h-48z" />
    <glyph glyph-name="j" unicode="j" horiz-adv-x="212" 
d="M188 606q-19 0 -30.5 11.5t-11.5 29.5q0 19 11.5 31t30.5 12q18 0 30 -12t12 -31q0 -18 -12 -29.5t-30 -11.5zM-70 -204q-21 0 -41 4l9 43q12 -2 29 -2q41 0 62 19t30 65l111 555h48l-114 -572q-12 -59 -44 -85.5t-90 -26.5z" />
    <glyph glyph-name="k" unicode="k" horiz-adv-x="428" 
d="M451 480l-270 -218l199 -262h-57l-191 250l-50 -250h-48l141 706h48l-85 -425l243 199h70z" />
    <glyph glyph-name="l" unicode="l" horiz-adv-x="212" 
d="M34 0l141 706h48l-141 -706h-48z" />
    <glyph glyph-name="m" unicode="m" horiz-adv-x="844" 
d="M635 491q73 0 108 -36t35 -113q0 -40 -9 -85l-51 -257h-48l53 265q7 38 7 72q0 56 -24.5 82t-77.5 26q-68 0 -111.5 -41.5t-59.5 -120.5l-57 -283h-48l53 265q8 40 8 67q0 58 -25 85.5t-78 27.5q-68 0 -111.5 -41.5t-59.5 -120.5l-57 -283h-48l96 480h48l-12 -58
q59 69 151 69q118 0 139 -108q60 108 179 108z" />
    <glyph glyph-name="n" unicode="n" horiz-adv-x="542" 
d="M325 491q75 0 113 -38.5t38 -107.5q0 -43 -9 -88l-51 -257h-48l53 263q7 37 7 74q0 55 -28 81.5t-88 26.5q-67 0 -112 -41.5t-61 -120.5l-57 -283h-48l96 480h48l-12 -61q59 72 159 72z" />
    <glyph glyph-name="o" unicode="o" horiz-adv-x="528" 
d="M232 -11q-97 0 -143 57t-46 148q0 123 70.5 210t181.5 87q96 0 142.5 -58.5t46.5 -151.5q0 -123 -68.5 -207.5t-183.5 -84.5zM232 34q96 0 149 74t53 176q0 161 -139 161q-94 0 -148 -76.5t-54 -175.5q0 -74 33.5 -116.5t105.5 -42.5z" />
    <glyph glyph-name="p" unicode="p" horiz-adv-x="555" 
d="M335 491q92 0 135 -55.5t43 -146.5q0 -122 -70.5 -210.5t-180.5 -88.5q-131 0 -160 110l-60 -301h-48l136 681h48l-15 -73q67 84 172 84zM258 35q92 0 148.5 76t56.5 179q0 70 -32 112.5t-101 42.5q-73 0 -125.5 -47.5t-68.5 -128.5q-12 -63 -12 -90q0 -69 35 -106.5
t99 -37.5z" />
    <glyph glyph-name="q" unicode="q" horiz-adv-x="555" 
d="M473 480h48l-136 -681h-48l55 274q-68 -84 -172 -84q-92 0 -135 55.5t-43 146.5q0 122 70.5 210.5t180.5 88.5q131 0 160 -110zM225 35q73 0 125.5 47.5t68.5 128.5q12 63 12 90q0 69 -35 106.5t-99 37.5q-92 0 -148.5 -76t-56.5 -179q0 -70 32 -112.5t101 -42.5z" />
    <glyph glyph-name="r" unicode="r" horiz-adv-x="317" 
d="M301 485q26 0 49 -5l-9 -46q-22 5 -44 5q-63 0 -102.5 -38t-53.5 -107l-59 -294h-48l96 480h46l-12 -61q50 66 137 66z" />
    <glyph glyph-name="s" unicode="s" horiz-adv-x="450" 
d="M188 -10q-83 0 -123.5 35.5t-40.5 97.5q0 19 3 38h48q-3 -15 -3 -30q0 -98 122 -98q63 0 101 26.5t38 71.5q0 28 -18 48t-37.5 28.5t-57.5 21.5q-65 22 -99 50.5t-34 79.5q0 60 47 96t125 36q73 0 111 -33t38 -89q0 -15 -3 -32h-48q3 14 3 27q0 39 -26.5 62t-78.5 23
q-54 0 -86.5 -24t-32.5 -62q0 -36 28 -55.5t87 -39.5q66 -23 99 -53t33 -80q0 -67 -54 -106t-141 -39z" />
    <glyph glyph-name="t" unicode="t" horiz-adv-x="347" 
d="M201 -7q-118 0 -118 102q0 25 6 55l57 287h-83l9 43h83l24 118h48l-24 -118h154l-9 -43h-154l-58 -293q-4 -20 -4 -40q0 -66 76 -66q26 0 59 7l-9 -46q-28 -6 -57 -6z" />
    <glyph glyph-name="u" unicode="u" horiz-adv-x="542" 
d="M460 480h48l-96 -480h-48l12 61q-59 -72 -159 -72q-75 0 -113 38.5t-38 107.5q0 43 9 88l51 257h48l-53 -263q-7 -37 -7 -74q0 -55 28 -81.5t88 -26.5q67 0 112 41.5t61 120.5z" />
    <glyph glyph-name="v" unicode="v" horiz-adv-x="467" 
d="M158 0l-90 480h50l76 -423l246 423h55l-282 -480h-55z" />
    <glyph glyph-name="w" unicode="w" horiz-adv-x="710" 
d="M683 480h55l-260 -480h-51l-41 414l-200 -414h-49l-69 480h50l52 -417l203 417h49l42 -417z" />
    <glyph glyph-name="x" unicode="x" horiz-adv-x="488" 
d="M-21 0l237 247l-138 233h56l117 -200l189 200h65l-234 -239l144 -241h-56l-121 208l-194 -208h-65z" />
    <glyph glyph-name="y" unicode="y" horiz-adv-x="484" 
d="M455 480h57l-429 -681h-55l128 203l-88 478h50l75 -421z" />
    <glyph glyph-name="z" unicode="z" horiz-adv-x="446" 
d="M463 480l-387 -437h301l-9 -43h-391l389 437h-276l9 43h364z" />
    <glyph glyph-name="braceleft" unicode="{" horiz-adv-x="330" 
d="M367 804h53l-8 -40h-29q-93 0 -111 -89l-55 -273q-12 -56 -32 -78t-68 -25q33 -4 47 -21.5t14 -52.5q0 -17 -7 -55l-49 -243q-3 -15 -3 -27q0 -62 79 -62h29l-8 -39h-33q-108 0 -108 102q0 20 4 37l47 239q7 35 7 51q0 28 -18.5 39t-65.5 11l9 45q63 0 84.5 20.5
t33.5 81.5l54 269q10 50 44 80t90 30z" />
    <glyph glyph-name="bar" unicode="|" horiz-adv-x="401" 
d="M88 -201l191 957h49l-191 -957h-49z" />
    <glyph glyph-name="braceright" unicode="}" horiz-adv-x="330" 
d="M219 375q0 -28 18.5 -39t65.5 -11l-9 -45q-63 0 -84.5 -20.5t-33.5 -81.5l-54 -269q-10 -50 -44 -80t-90 -30h-53l8 40h29q93 0 111 89l55 273q12 56 32 78t68 25q-33 4 -47 21.5t-14 52.5q0 16 7 55l49 243q3 15 3 27q0 62 -79 62h-29l8 39h33q108 0 108 -102
q0 -20 -4 -37l-47 -239q-7 -35 -7 -51z" />
    <glyph glyph-name="asciitilde" unicode="~" horiz-adv-x="568" 
d="M378 189q-38 0 -60.5 19.5t-41.5 53.5q-13 22 -21 33t-21.5 19.5t-31.5 8.5q-39 0 -63 -34t-43 -96h-44q48 174 154 174q26 0 47 -12t31 -25t23 -35q20 -33 35 -47.5t40 -14.5q39 0 62.5 33.5t42.5 95.5h44q-47 -173 -153 -173z" />
    <glyph glyph-name="uni00A0" unicode="&#xa0;" horiz-adv-x="180" 
 />
    <glyph glyph-name="exclamdown" unicode="&#xa1;" horiz-adv-x="252" 
d="M173 517q19 0 30.5 -11t11.5 -30t-11.5 -31t-30.5 -12q-18 0 -30 12t-12 31q0 18 12 29.5t30 11.5zM165 331l-101 -532h-53l111 532h43z" />
    <glyph glyph-name="cent" unicode="&#xa2;" horiz-adv-x="504" 
d="M495 422h-52q1 7 1 18q0 51 -27 81t-75 36l-83 -409q60 2 101 37.5t53 93.5h54q-16 -81 -75.5 -128.5t-140.5 -47.5h-1l-20 -103h-41l21 106q-145 24 -145 199q0 120 68.5 207t176.5 92l20 102h41l-21 -104q69 -7 107.5 -48t38.5 -109q0 -15 -1 -23zM116 303
q0 -134 103 -152l82 406q-85 -9 -135 -82.5t-50 -171.5z" />
    <glyph glyph-name="sterling" unicode="&#xa3;" horiz-adv-x="593" 
d="M588 471h-48q6 39 6 69q0 66 -30 100.5t-101 34.5q-88 0 -129.5 -49t-61.5 -148l-21 -106h209l-8 -42h-210l-57 -286h122q111 0 164 50t75 155h48q-29 -132 -88 -190.5t-189 -58.5h-274l9 44h81l57 286h-81l8 42h81l22 109q11 58 28.5 100t45 74.5t70 49t99.5 16.5
q97 0 138 -45.5t41 -131.5q0 -32 -6 -73z" />
    <glyph glyph-name="currency" unicode="&#xa4;" horiz-adv-x="527" 
d="M491 378q0 -109 -80 -178l61 -90h-58l-43 62q-52 -26 -111 -26q-70 0 -118 38l-81 -74h-57l111 103q-35 49 -35 116q0 111 81 179l-60 89h57l43 -62q49 26 110 26q70 0 119 -39l81 75h58l-112 -105q34 -48 34 -114zM125 328q0 -62 37 -101t101 -39q81 0 132 56t51 135
q0 62 -37 101t-101 39q-81 0 -132 -56t-51 -135z" />
    <glyph glyph-name="yen" unicode="&#xa5;" horiz-adv-x="525" 
d="M615 706l-302 -366h185l-8 -40h-188l-18 -88h188l-8 -41h-188l-34 -171h-53l34 171h-189l8 41h189l18 88h-189l8 40h186l-157 366h52l138 -325l266 325h62z" />
    <glyph glyph-name="brokenbar" unicode="&#xa6;" horiz-adv-x="401" 
d="M214 428l65 328h49l-65 -328h-49zM88 -201l66 329h49l-66 -329h-49z" />
    <glyph glyph-name="section" unicode="&#xa7;" horiz-adv-x="471" 
d="M312 721q81 0 121.5 -37t40.5 -102q0 -12 -1 -19h-47q1 7 1 21q0 97 -114 97q-61 0 -98 -29t-37 -76q0 -18 3 -32t14 -27.5t16.5 -20.5t26 -19.5t25.5 -15.5t31 -17q66 -36 97.5 -74t31.5 -94q0 -77 -56 -125t-144 -48h-2q32 -17 49.5 -27.5t38.5 -30t30.5 -44t9.5 -57.5
q0 -72 -52 -114t-136 -42q-159 0 -159 138q0 18 1 28h49q-2 -20 -2 -29q0 -96 111 -96q66 0 102 31t36 86q0 26 -7.5 45t-24.5 34.5t-32.5 25t-44.5 24.5q-66 33 -100 72t-34 98q0 74 56 119t143 45h13q-30 17 -41.5 23.5t-34.5 24t-32.5 31.5t-18.5 37.5t-9 50.5
q0 67 50 106t130 39zM227 138q67 0 108 38t41 97q0 49 -31.5 76t-91.5 27q-68 0 -109.5 -35.5t-41.5 -93.5q0 -51 32 -80t93 -29z" />
    <glyph glyph-name="dieresis" unicode="&#xa8;" horiz-adv-x="363" 
d="M172 597q-19 0 -30.5 11t-11.5 29q0 19 11.5 31t30.5 12q17 0 29 -12.5t12 -30.5t-12 -29t-29 -11zM351 597q-19 0 -30.5 11t-11.5 29q0 19 11.5 31t30.5 12q17 0 29 -12.5t12 -30.5t-12 -29t-29 -11z" />
    <glyph glyph-name="copyright" unicode="&#xa9;" horiz-adv-x="814" 
d="M392 -15q-148 0 -232.5 85.5t-84.5 230.5q0 173 113 296.5t280 123.5q148 0 232 -85t84 -231q0 -174 -112.5 -297t-279.5 -123zM394 24q151 0 250.5 111.5t99.5 268.5q0 129 -73.5 203t-203.5 74q-152 0 -251.5 -111t-99.5 -268q0 -129 73.5 -203.5t204.5 -74.5zM394 108
q-81 0 -126.5 54t-45.5 152q0 120 62.5 203t172.5 83q80 0 127.5 -45.5t46.5 -133.5h-44q2 68 -33 103.5t-97 35.5q-92 0 -142.5 -73t-50.5 -175q0 -163 132 -163q64 0 108 37t58 102h44q-18 -87 -74.5 -133.5t-137.5 -46.5z" />
    <glyph glyph-name="ordfeminine" unicode="&#xaa;" horiz-adv-x="369" 
d="M257 715q126 0 126 -108q0 -24 -6 -54l-37 -182h-42l9 41q-47 -49 -121 -49q-54 0 -81.5 25t-27.5 70q0 113 165 113h96q4 21 4 36q0 74 -88 74q-79 0 -93 -76h-42q19 110 138 110zM197 399q56 0 88.5 33.5t46.5 105.5h-88q-122 0 -122 -78q0 -61 75 -61z" />
    <glyph glyph-name="guillemotleft" unicode="&#xab;" horiz-adv-x="432" 
d="M151 117l-122 159l186 159h63l-191 -164l118 -154h-54zM325 117l-122 159l186 159h63l-191 -164l118 -154h-54z" />
    <glyph glyph-name="logicalnot" unicode="&#xac;" horiz-adv-x="568" 
d="M431 46l66 330h-417l9 42h461l-75 -372h-44z" />
    <glyph glyph-name="uni00AD" unicode="&#xad;" horiz-adv-x="374" 
d="M56 255l10 48h268l-10 -48h-268z" />
    <glyph glyph-name="registered" unicode="&#xae;" horiz-adv-x="494" 
d="M325 720q87 0 132.5 -51t45.5 -133q0 -99 -62.5 -165.5t-162.5 -66.5q-86 0 -132 52t-46 134q0 97 63.5 163.5t161.5 66.5zM278 331q90 0 143.5 59.5t53.5 147.5q0 72 -38 113.5t-112 41.5q-88 0 -143 -59t-55 -143q0 -72 39 -116t112 -44zM327 643q90 0 90 -69
q0 -58 -58 -71q28 -13 28 -48q0 -11 -3 -24l-10 -51h-33l11 53q3 14 3 21q0 20 -11.5 28t-38.5 8h-67l-22 -110h-34l53 263h92zM317 519q66 0 66 50q0 44 -56 44h-64l-19 -94h73z" />
    <glyph glyph-name="macron" unicode="&#xaf;" horiz-adv-x="371" 
d="M125 616l8 41h271l-8 -41h-271z" />
    <glyph glyph-name="degree" unicode="&#xb0;" horiz-adv-x="286" 
d="M214 483q-55 0 -88.5 32.5t-33.5 85.5t33.5 86.5t88.5 33.5t89.5 -33.5t34.5 -86.5t-34.5 -85.5t-89.5 -32.5zM215 523q35 0 56.5 21.5t21.5 56.5q0 37 -21.5 59t-56.5 22t-56.5 -22t-21.5 -59q0 -35 21.5 -56.5t56.5 -21.5z" />
    <glyph glyph-name="plusminus" unicode="&#xb1;" horiz-adv-x="568" 
d="M329 349h207l-9 -44h-207l-37 -187h-46l37 187h-208l9 44h208l36 183h46zM10 26l9 44h462l-9 -44h-462z" />
    <glyph glyph-name="uni00B2" unicode="&#xb2;" horiz-adv-x="334" 
d="M64 438l1 3l196 162q33 28 49 43t29 38.5t13 48.5q0 65 -78 65q-50 0 -74.5 -26t-33.5 -72h-42q25 136 150 136q60 0 90 -27.5t30 -76.5q0 -43 -22 -74t-69 -68l-135 -111h177l-8 -41h-273z" />
    <glyph glyph-name="uni00B3" unicode="&#xb3;" horiz-adv-x="367" 
d="M416 738q0 -75 -87 -97q59 -20 59 -86q0 -58 -42.5 -92.5t-110.5 -34.5q-135 0 -135 115q0 16 3 34h40q-3 -15 -3 -29q0 -83 95 -83q51 0 81 24.5t30 65.5q0 69 -98 69h-12l8 37h22q107 0 107 75q0 63 -81 63q-50 0 -78 -26.5t-36 -65.5h-40q10 58 51.5 93.5t109.5 35.5
q58 0 87.5 -27t29.5 -71z" />
    <glyph glyph-name="acute" unicode="&#xb4;" horiz-adv-x="251" 
d="M117 573l122 153h59l-126 -153h-55z" />
    <glyph glyph-name="uni00B5" unicode="&#xb5;" horiz-adv-x="546" 
d="M464 480h48l-96 -480h-48l14 69q-61 -80 -166 -80q-102 0 -125 75q-7 -60 -21 -123l-28 -142h-48l136 681h48l-56 -278q-7 -34 -7 -64q0 -53 26.5 -78t82.5 -25q72 0 120 42t64 121z" />
    <glyph glyph-name="paragraph" unicode="&#xb6;" horiz-adv-x="603" 
d="M207 -201l105 525h-42q-188 0 -188 172q0 100 56.5 155t161.5 55h376l-9 -45h-68l-172 -862h-48l172 862h-124l-172 -862h-48z" />
    <glyph glyph-name="periodcentered" unicode="&#xb7;" horiz-adv-x="252" 
d="M134 241q-19 0 -30.5 11t-11.5 30t11.5 31t30.5 12q18 0 30 -12t12 -31q0 -18 -12 -29.5t-30 -11.5z" />
    <glyph glyph-name="cedilla" unicode="&#xb8;" horiz-adv-x="276" 
d="M59 -57q91 -5 91 -73q0 -40 -30.5 -61t-81.5 -21q-45 0 -76 14l14 37q31 -12 61 -12q31 0 50.5 12t19.5 33q0 40 -81 40h-27l47 93h44z" />
    <glyph glyph-name="uni00B9" unicode="&#xb9;" horiz-adv-x="249" 
d="M151 438l70 348h-83l14 40h121l-78 -388h-44z" />
    <glyph glyph-name="ordmasculine" unicode="&#xba;" horiz-adv-x="374" 
d="M224 364q-68 0 -101 39.5t-33 106.5q0 85 50.5 145t129.5 60q68 0 100.5 -39t32.5 -106q0 -85 -50.5 -145.5t-128.5 -60.5zM226 403q62 0 98.5 49t36.5 117q0 108 -93 108q-63 0 -99.5 -49t-36.5 -118q0 -107 94 -107z" />
    <glyph glyph-name="guillemotright" unicode="&#xbb;" horiz-adv-x="432" 
d="M121 435l122 -159l-186 -159h-63l191 164l-118 154h54zM295 435l122 -159l-186 -159h-63l191 164l-118 154h54z" />
    <glyph glyph-name="onequarter" unicode="&#xbc;" horiz-adv-x="728" 
d="M59 0l555 706h51l-554 -706h-52zM127 318l70 348h-83l14 40h121l-78 -388h-44zM564 0l21 105h-229v2l247 281h82l-49 -245h57l-8 -38h-57l-21 -105h-43zM440 143h153l45 229z" />
    <glyph glyph-name="onehalf" unicode="&#xbd;" horiz-adv-x="764" 
d="M59 0l555 706h51l-554 -706h-52zM127 318l70 348h-83l14 40h121l-78 -388h-44zM406 0l1 3l196 162q33 28 49 43t29 38.5t13 48.5q0 65 -78 65q-50 0 -74.5 -26t-33.5 -72h-42q25 136 150 136q60 0 90 -27.5t30 -76.5q0 -43 -22 -74t-69 -68l-135 -111h177l-8 -41h-273z
" />
    <glyph glyph-name="threequarters" unicode="&#xbe;" horiz-adv-x="846" 
d="M364 435q0 -58 -42.5 -92.5t-110.5 -34.5q-135 0 -135 115q0 16 3 34h40q-3 -15 -3 -29q0 -83 95 -83q51 0 81 24.5t30 65.5q0 69 -98 69h-12l8 37h22q107 0 107 75q0 63 -81 63q-50 0 -78 -26.5t-36 -65.5h-40q10 58 51.5 93.5t109.5 35.5q58 0 87.5 -27t29.5 -71
q0 -75 -87 -97q59 -20 59 -86zM732 706h51l-554 -706h-52zM754 143h57l-8 -38h-57l-21 -105h-43l21 105h-229v2l247 281h82zM711 143l45 229l-198 -229h153z" />
    <glyph glyph-name="questiondown" unicode="&#xbf;" horiz-adv-x="471" 
d="M288 522q19 0 30.5 -11t11.5 -30t-11.5 -31t-30.5 -12q-18 0 -30 12t-12 31q0 18 12 29.5t30 11.5zM291 336q-145 -170 -177 -214q-80 -109 -80 -181q0 -47 30 -77t98 -30q82 0 120 41.5t54 122.5h50q-19 -101 -71.5 -155t-152.5 -54q-91 0 -135.5 42t-44.5 111
q0 17 3.5 34t7.5 32t14.5 35.5t17.5 34t24.5 37.5t27 37t33 42t35 42.5t41 48.5t42.5 51h63z" />
    <glyph glyph-name="Agrave" unicode="&#xc0;" horiz-adv-x="593" 
d="M470 780h-55l-111 121h60zM484 0l-29 199h-327l-109 -199h-57l388 706h79l106 -706h-51zM153 245h295l-62 422h-2z" />
    <glyph glyph-name="Aacute" unicode="&#xc1;" horiz-adv-x="593" 
d="M546 901l-149 -121h-65l144 121h70zM350 706h79l106 -706h-51l-29 199h-327l-109 -199h-57zM153 245h295l-62 422h-2z" />
    <glyph glyph-name="Acircumflex" unicode="&#xc2;" horiz-adv-x="593" 
d="M425 873l-115 -93h-68l150 121h66l102 -121h-56zM350 706h79l106 -706h-51l-29 199h-327l-109 -199h-57zM153 245h295l-62 422h-2z" />
    <glyph glyph-name="Atilde" unicode="&#xc3;" horiz-adv-x="593" 
d="M561 901h43q-34 -125 -124 -125q-47 0 -80 46q-2 2 -8 10.5t-8 10.5l-7.5 7.5t-10 7.5t-11 4t-14.5 2q-52 0 -77 -86h-43q31 126 124 126q47 0 81 -46q1 -1 8 -10t8.5 -11t7.5 -8t9.5 -7.5t10 -3.5t13.5 -2q53 0 78 85zM350 706h79l106 -706h-51l-29 199h-327l-109 -199
h-57zM153 245h295l-62 422h-2z" />
    <glyph glyph-name="Adieresis" unicode="&#xc4;" horiz-adv-x="593" 
d="M310 812q-18 0 -29.5 11.5t-11.5 28.5q0 19 11.5 30.5t29.5 11.5t29.5 -12t11.5 -30q0 -17 -12 -28.5t-29 -11.5zM511 894q17 0 29 -12t12 -30q0 -17 -12 -28.5t-29 -11.5q-18 0 -29.5 11.5t-11.5 28.5q0 19 11.5 30.5t29.5 11.5zM350 706h79l106 -706h-51l-29 199h-327
l-109 -199h-57zM153 245h295l-62 422h-2z" />
    <glyph glyph-name="Aring" unicode="&#xc5;" horiz-adv-x="593" 
d="M403 747q-46 0 -73 26.5t-27 70.5t27 70.5t73 26.5q45 0 73 -27t28 -70q0 -44 -27.5 -70.5t-73.5 -26.5zM403 906q-29 0 -46 -17t-17 -45t17 -45.5t46 -17.5t46 17.5t17 45.5t-17.5 45t-45.5 17zM484 0l-29 199h-327l-109 -199h-57l388 706h79l106 -706h-51zM153 245h295
l-62 422h-2z" />
    <glyph glyph-name="AE" unicode="&#xc6;" horiz-adv-x="755" 
d="M790 659h-313l-20 -275h275l-10 -47h-269l-21 -290h235l-9 -47h-283l16 201h-247l-123 -201h-59l436 706h401zM395 247l34 417h-2l-255 -417h223z" />
    <glyph glyph-name="Ccedilla" unicode="&#xc7;" horiz-adv-x="688" 
d="M679 459h-50q1 9 1 21q0 90 -53 142t-145 52q-96 0 -167 -58.5t-105 -147.5t-34 -192q0 -244 203 -244q99 0 166.5 55t92.5 148h50q-26 -118 -110 -183.5t-201 -66.5l-21 -42q91 -5 91 -73q0 -40 -30.5 -61t-81.5 -21q-45 0 -76 14l14 37q31 -12 61 -12q31 0 50.5 12
t19.5 33q0 40 -81 40h-27l38 75q-108 13 -159.5 89.5t-51.5 200.5q0 117 41 216.5t125 163.5t196 64q115 0 180 -65.5t65 -177.5q0 -10 -1 -19z" />
    <glyph glyph-name="Egrave" unicode="&#xc8;" horiz-adv-x="529" 
d="M459 780h-55l-111 121h60zM50 0l141 706h382l-9 -47h-330l-55 -274h327l-10 -48h-327l-58 -290h330l-9 -47h-382z" />
    <glyph glyph-name="Eacute" unicode="&#xc9;" horiz-adv-x="529" 
d="M321 780l144 121h70l-149 -121h-65zM50 0l141 706h382l-9 -47h-330l-55 -274h327l-10 -48h-327l-58 -290h330l-9 -47h-382z" />
    <glyph glyph-name="Ecircumflex" unicode="&#xca;" horiz-adv-x="529" 
d="M231 780l150 121h66l102 -121h-56l-79 93l-115 -93h-68zM50 0l141 706h382l-9 -47h-330l-55 -274h327l-10 -48h-327l-58 -290h330l-9 -47h-382z" />
    <glyph glyph-name="Edieresis" unicode="&#xcb;" horiz-adv-x="529" 
d="M299 812q-18 0 -29.5 11.5t-11.5 28.5q0 19 11.5 30.5t29.5 11.5q17 0 29 -12t12 -30q0 -17 -12 -28.5t-29 -11.5zM500 812q-18 0 -29.5 11.5t-11.5 28.5q0 19 11.5 30.5t29.5 11.5t29.5 -12t11.5 -30q0 -17 -12 -28.5t-29 -11.5zM50 0l141 706h382l-9 -47h-330l-55 -274
h327l-10 -48h-327l-58 -290h330l-9 -47h-382z" />
    <glyph glyph-name="Igrave" unicode="&#xcc;" horiz-adv-x="248" 
d="M301 780h-55l-111 121h60zM50 0l141 706h52l-141 -706h-52z" />
    <glyph glyph-name="Iacute" unicode="&#xcd;" horiz-adv-x="248" 
d="M163 780l144 121h70l-149 -121h-65zM50 0l141 706h52l-141 -706h-52z" />
    <glyph glyph-name="Icircumflex" unicode="&#xce;" horiz-adv-x="248" 
d="M115 780l107 121h58l61 -121h-47l-45 91l-81 -91h-53zM50 0l141 706h52l-141 -706h-52z" />
    <glyph glyph-name="Idieresis" unicode="&#xcf;" horiz-adv-x="248" 
d="M171 800q-17 0 -27.5 10t-10.5 26t10.5 27t27.5 11q15 0 26 -11t11 -27q0 -15 -11 -25.5t-26 -10.5zM297 799q-16 0 -26.5 10t-10.5 26q0 17 10.5 27.5t26.5 10.5t26.5 -11t10.5 -27t-10.5 -26t-26.5 -10zM50 0l141 706h52l-141 -706h-52z" />
    <glyph glyph-name="Eth" unicode="&#xd0;" horiz-adv-x="673" 
d="M355 706q288 0 288 -287q0 -185 -101 -302t-278 -117h-214l68 338h-60l9 45h59l65 323h164zM259 47q160 0 245.5 104t85.5 273q0 113 -55.5 174t-182.5 61h-118l-55 -276h184l-9 -45h-185l-58 -291h148z" />
    <glyph glyph-name="Ntilde" unicode="&#xd1;" horiz-adv-x="690" 
d="M533 776q-47 0 -80 46q-2 2 -8 10.5t-8 10.5l-7.5 7.5t-10 7.5t-11 4t-14.5 2q-52 0 -77 -86h-43q31 126 124 126q28 0 45.5 -11t35.5 -35q1 -1 8 -10t8.5 -11t7.5 -8t9.5 -7.5t10 -3.5t13.5 -2q53 0 78 85h43q-34 -125 -124 -125zM50 0l141 706h58l259 -634l127 634h50
l-141 -706h-58l-259 634l-127 -634h-50z" />
    <glyph glyph-name="Ograve" unicode="&#xd2;" horiz-adv-x="712" 
d="M527 780h-55l-111 121h60zM324 -15q-128 0 -190 78t-62 206q0 90 24.5 171.5t69 144t113.5 99.5t153 37q129 0 191 -77.5t62 -204.5q0 -123 -41 -225t-124.5 -165.5t-195.5 -63.5zM334 32q92 0 161.5 59.5t103 152t33.5 201.5q0 104 -51 166.5t-158 62.5
q-92 0 -161.5 -59t-103 -151t-33.5 -201q0 -106 50 -168.5t159 -62.5z" />
    <glyph glyph-name="Oacute" unicode="&#xd3;" horiz-adv-x="712" 
d="M389 780l144 121h70l-149 -121h-65zM324 -15q-128 0 -190 78t-62 206q0 90 24.5 171.5t69 144t113.5 99.5t153 37q129 0 191 -77.5t62 -204.5q0 -123 -41 -225t-124.5 -165.5t-195.5 -63.5zM334 32q92 0 161.5 59.5t103 152t33.5 201.5q0 104 -51 166.5t-158 62.5
q-92 0 -161.5 -59t-103 -151t-33.5 -201q0 -106 50 -168.5t159 -62.5z" />
    <glyph glyph-name="Ocircumflex" unicode="&#xd4;" horiz-adv-x="712" 
d="M299 780l150 121h66l102 -121h-56l-79 93l-115 -93h-68zM324 -15q-128 0 -190 78t-62 206q0 90 24.5 171.5t69 144t113.5 99.5t153 37q129 0 191 -77.5t62 -204.5q0 -123 -41 -225t-124.5 -165.5t-195.5 -63.5zM334 32q92 0 161.5 59.5t103 152t33.5 201.5
q0 104 -51 166.5t-158 62.5q-92 0 -161.5 -59t-103 -151t-33.5 -201q0 -106 50 -168.5t159 -62.5z" />
    <glyph glyph-name="Otilde" unicode="&#xd5;" horiz-adv-x="712" 
d="M537 776q-47 0 -80 46q-2 2 -8 10.5t-8 10.5l-7.5 7.5t-10 7.5t-11 4t-14.5 2q-52 0 -77 -86h-43q31 126 124 126q28 0 45.5 -11t35.5 -35q1 -1 8 -10t8.5 -11t7.5 -8t9.5 -7.5t10 -3.5t13.5 -2q53 0 78 85h43q-34 -125 -124 -125zM324 -15q-128 0 -190 78t-62 206
q0 90 24.5 171.5t69 144t113.5 99.5t153 37q129 0 191 -77.5t62 -204.5q0 -123 -41 -225t-124.5 -165.5t-195.5 -63.5zM334 32q92 0 161.5 59.5t103 152t33.5 201.5q0 104 -51 166.5t-158 62.5q-92 0 -161.5 -59t-103 -151t-33.5 -201q0 -106 50 -168.5t159 -62.5z" />
    <glyph glyph-name="Odieresis" unicode="&#xd6;" horiz-adv-x="712" 
d="M367 812q-18 0 -29.5 11.5t-11.5 28.5q0 19 11.5 30.5t29.5 11.5q17 0 29 -12t12 -30q0 -17 -12 -28.5t-29 -11.5zM568 812q-18 0 -29.5 11.5t-11.5 28.5q0 19 11.5 30.5t29.5 11.5t29.5 -12t11.5 -30q0 -17 -12 -28.5t-29 -11.5zM324 -15q-128 0 -190 78t-62 206
q0 90 24.5 171.5t69 144t113.5 99.5t153 37q129 0 191 -77.5t62 -204.5q0 -123 -41 -225t-124.5 -165.5t-195.5 -63.5zM334 32q92 0 161.5 59.5t103 152t33.5 201.5q0 104 -51 166.5t-158 62.5q-92 0 -161.5 -59t-103 -151t-33.5 -201q0 -106 50 -168.5t159 -62.5z" />
    <glyph glyph-name="multiply" unicode="&#xd7;" horiz-adv-x="568" 
d="M535 452l-212 -177l138 -173l-34 -28l-138 173l-211 -176l-29 35l212 177l-138 173l34 28l138 -173l211 176z" />
    <glyph glyph-name="Oslash" unicode="&#xd8;" horiz-adv-x="712" 
d="M764 706l-112 -108q33 -65 33 -159q0 -123 -41 -225t-124.5 -165.5t-195.5 -63.5q-136 0 -201 92l-2 1l-78 -78h-62l120 115q-29 65 -29 154q0 90 24.5 171.5t69 144t113.5 99.5t153 37q133 0 199 -87l71 72h62zM423 674q-92 0 -161.5 -59t-103 -151t-33.5 -201
q0 -64 17 -109l448 446q-53 74 -167 74zM334 32q92 0 161.5 59.5t103 152t33.5 201.5q0 68 -20 115l-451 -446q51 -82 173 -82z" />
    <glyph glyph-name="Ugrave" unicode="&#xd9;" horiz-adv-x="618" 
d="M487 780h-55l-111 121h60zM270 -15q-103 0 -152.5 42.5t-49.5 130.5q0 34 7 69l96 479h52l-97 -487q-6 -33 -6 -59q0 -66 36.5 -97t114.5 -31q92 0 142.5 43t68.5 134l99 497h52l-102 -509q-22 -108 -85 -160t-176 -52z" />
    <glyph glyph-name="Uacute" unicode="&#xda;" horiz-adv-x="618" 
d="M349 780l144 121h70l-149 -121h-65zM270 -15q-103 0 -152.5 42.5t-49.5 130.5q0 34 7 69l96 479h52l-97 -487q-6 -33 -6 -59q0 -66 36.5 -97t114.5 -31q92 0 142.5 43t68.5 134l99 497h52l-102 -509q-22 -108 -85 -160t-176 -52z" />
    <glyph glyph-name="Ucircumflex" unicode="&#xdb;" horiz-adv-x="618" 
d="M259 780l150 121h66l102 -121h-56l-79 93l-115 -93h-68zM270 -15q-103 0 -152.5 42.5t-49.5 130.5q0 34 7 69l96 479h52l-97 -487q-6 -33 -6 -59q0 -66 36.5 -97t114.5 -31q92 0 142.5 43t68.5 134l99 497h52l-102 -509q-22 -108 -85 -160t-176 -52z" />
    <glyph glyph-name="Udieresis" unicode="&#xdc;" horiz-adv-x="618" 
d="M327 812q-18 0 -29.5 11.5t-11.5 28.5q0 19 11.5 30.5t29.5 11.5q17 0 29 -12t12 -30q0 -17 -12 -28.5t-29 -11.5zM528 812q-18 0 -29.5 11.5t-11.5 28.5q0 19 11.5 30.5t29.5 11.5t29.5 -12t11.5 -30q0 -17 -12 -28.5t-29 -11.5zM270 -15q-103 0 -152.5 42.5
t-49.5 130.5q0 34 7 69l96 479h52l-97 -487q-6 -33 -6 -59q0 -66 36.5 -97t114.5 -31q92 0 142.5 43t68.5 134l99 497h52l-102 -509q-22 -108 -85 -160t-176 -52z" />
    <glyph glyph-name="Yacute" unicode="&#xdd;" horiz-adv-x="537" 
d="M304 780l144 121h70l-149 -121h-65zM196 0l61 305l-154 401h54l133 -349l267 349h63l-312 -401l-61 -305h-51z" />
    <glyph glyph-name="Thorn" unicode="&#xde;" horiz-adv-x="553" 
d="M50 0l141 706h52l-26 -132h110q223 0 223 -193q0 -115 -71 -179t-191 -64h-158l-28 -138h-52zM139 185h139q103 0 160.5 50.5t57.5 144.5q0 147 -170 147h-118z" />
    <glyph glyph-name="germandbls" unicode="&#xdf;" horiz-adv-x="540" 
d="M367 391q119 -35 119 -171q0 -104 -73 -162.5t-203 -58.5q-24 0 -52 2l9 44q20 -2 42 -2q107 0 166.5 47t59.5 134q0 69 -40.5 108.5t-121.5 39.5h-41l9 42h51q82 0 135.5 40.5t53.5 108.5q0 115 -125 115q-78 0 -117 -44.5t-55 -125.5l-102 -508h-48l103 516
q41 205 221 205q85 0 128 -44t43 -117q0 -69 -44 -114t-118 -55z" />
    <glyph glyph-name="agrave" unicode="&#xe0;" horiz-adv-x="518" 
d="M373 573h-47l-73 153h51zM283 491q170 0 170 -158q0 -32 -10 -79l-51 -254h-48l15 74q-68 -85 -185 -85q-74 0 -112 33.5t-38 91.5q0 162 232 162h143q6 35 6 59q0 55 -28.5 83t-94.5 28q-127 0 -149 -113h-51q13 73 64.5 115.5t136.5 42.5zM182 33q87 0 138 49t71 152
h-129q-187 0 -187 -112q0 -89 107 -89z" />
    <glyph glyph-name="aacute" unicode="&#xe1;" horiz-adv-x="518" 
d="M443 726l-126 -153h-55l122 153h59zM283 491q170 0 170 -158q0 -32 -10 -79l-51 -254h-48l15 74q-68 -85 -185 -85q-74 0 -112 33.5t-38 91.5q0 162 232 162h143q6 35 6 59q0 55 -28.5 83t-94.5 28q-127 0 -149 -113h-51q13 73 64.5 115.5t136.5 42.5zM182 33
q87 0 138 49t71 152h-129q-187 0 -187 -112q0 -89 107 -89z" />
    <glyph glyph-name="acircumflex" unicode="&#xe2;" horiz-adv-x="518" 
d="M346 698l-111 -126h-55l136 154h64l74 -154h-49zM283 491q170 0 170 -158q0 -32 -10 -79l-51 -254h-48l15 74q-68 -85 -185 -85q-74 0 -112 33.5t-38 91.5q0 162 232 162h143q6 35 6 59q0 55 -28.5 83t-94.5 28q-127 0 -149 -113h-51q13 73 64.5 115.5t136.5 42.5z
M182 33q87 0 138 49t71 152h-129q-187 0 -187 -112q0 -89 107 -89z" />
    <glyph glyph-name="atilde" unicode="&#xe3;" horiz-adv-x="518" 
d="M269 689q-24 0 -39 -27t-31 -90h-41q19 83 45.5 120t71.5 37q26 0 41.5 -13.5t31.5 -48.5q2 -4 6 -13.5t5.5 -13t5.5 -10t6.5 -9t7 -6.5t9 -5t10.5 -1q24 0 38.5 27t29.5 90h41q-20 -86 -44.5 -121.5t-73.5 -35.5q-25 0 -41.5 12.5t-30.5 47.5q-1 3 -4 10t-4 10t-3.5 9
t-4 9t-4.5 7.5t-5.5 6t-6 4t-7.5 3.5t-9 1zM283 491q170 0 170 -158q0 -32 -10 -79l-51 -254h-48l15 74q-68 -85 -185 -85q-74 0 -112 33.5t-38 91.5q0 162 232 162h143q6 35 6 59q0 55 -28.5 83t-94.5 28q-127 0 -149 -113h-51q13 73 64.5 115.5t136.5 42.5zM182 33
q87 0 138 49t71 152h-129q-187 0 -187 -112q0 -89 107 -89z" />
    <glyph glyph-name="adieresis" unicode="&#xe4;" horiz-adv-x="518" 
d="M242 597q-19 0 -30.5 11t-11.5 29q0 19 11.5 31t30.5 12q17 0 29 -12.5t12 -30.5t-12 -29t-29 -11zM421 597q-19 0 -30.5 11t-11.5 29q0 19 11.5 31t30.5 12q17 0 29 -12.5t12 -30.5t-12 -29t-29 -11zM283 491q170 0 170 -158q0 -32 -10 -79l-51 -254h-48l15 74
q-68 -85 -185 -85q-74 0 -112 33.5t-38 91.5q0 162 232 162h143q6 35 6 59q0 55 -28.5 83t-94.5 28q-127 0 -149 -113h-51q13 73 64.5 115.5t136.5 42.5zM182 33q87 0 138 49t71 152h-129q-187 0 -187 -112q0 -89 107 -89z" />
    <glyph glyph-name="aring" unicode="&#xe5;" horiz-adv-x="518" 
d="M328 557q-46 0 -73 26.5t-27 70.5t27 70.5t73 26.5q45 0 73 -27t28 -70q0 -44 -27.5 -70.5t-73.5 -26.5zM328 716q-29 0 -46 -17t-17 -45t17.5 -45.5t45.5 -17.5t45.5 17.5t17.5 45.5t-17.5 45t-45.5 17zM283 491q170 0 170 -158q0 -32 -10 -79l-51 -254h-48l15 74
q-68 -85 -185 -85q-74 0 -112 33.5t-38 91.5q0 162 232 162h143q6 35 6 59q0 55 -28.5 83t-94.5 28q-127 0 -149 -113h-51q13 73 64.5 115.5t136.5 42.5zM182 33q87 0 138 49t71 152h-129q-187 0 -187 -112q0 -89 107 -89z" />
    <glyph glyph-name="ae" unicode="&#xe6;" horiz-adv-x="850" 
d="M804 235h-365q-2 -30 -2 -46q0 -72 32.5 -113.5t101.5 -41.5q121 0 164 117h51q-24 -78 -80.5 -119.5t-133.5 -41.5q-145 0 -174 140q-64 -141 -220 -141q-77 0 -115.5 34.5t-38.5 95.5q0 82 63.5 120t168.5 38h143q7 34 7 58q0 55 -29 83t-95 28q-130 0 -151 -113h-49
q13 73 64.5 115.5t136.5 42.5q137 0 161 -104q68 104 186 104q82 0 130 -52.5t48 -147.5q0 -29 -4 -56zM630 446q-72 0 -119 -46t-64 -123h312v15q0 72 -31.5 113t-97.5 41zM184 33q87 0 137 49.5t70 152.5h-129q-187 0 -187 -113q0 -42 27.5 -65.5t81.5 -23.5z" />
    <glyph glyph-name="ccedilla" unicode="&#xe7;" horiz-adv-x="504" 
d="M472 309h-49q1 7 1 18q0 56 -34 87t-93 31q-93 0 -148 -75t-55 -180q0 -71 33 -113t102 -42q63 0 107.5 36t56.5 95h51q-16 -81 -75.5 -128.5t-140.5 -47.5h-1l-23 -47q91 -5 91 -73q0 -40 -30.5 -61t-81.5 -21q-45 0 -76 14l14 37q31 -12 61 -12q31 0 50.5 12t19.5 33
q0 40 -81 40h-27l41 82q-71 12 -106.5 65t-35.5 133q0 124 71 211.5t184 87.5q81 0 128 -42t47 -117q0 -15 -1 -23z" />
    <glyph glyph-name="egrave" unicode="&#xe8;" horiz-adv-x="529" 
d="M371 573h-47l-73 153h51zM483 235h-388q-3 -23 -3 -46q0 -72 36 -113.5t112 -41.5q130 0 174 117h51q-24 -78 -83.5 -119.5t-140.5 -41.5q-100 0 -149 54.5t-49 145.5q0 127 70 214t186 87q87 0 137.5 -52.5t50.5 -147.5q0 -29 -4 -56zM299 446q-77 0 -127.5 -46.5
t-69.5 -122.5h336v15q0 72 -34 113t-105 41z" />
    <glyph glyph-name="eacute" unicode="&#xe9;" horiz-adv-x="529" 
d="M441 726l-126 -153h-55l122 153h59zM483 235h-388q-3 -23 -3 -46q0 -72 36 -113.5t112 -41.5q130 0 174 117h51q-24 -78 -83.5 -119.5t-140.5 -41.5q-100 0 -149 54.5t-49 145.5q0 127 70 214t186 87q87 0 137.5 -52.5t50.5 -147.5q0 -29 -4 -56zM299 446
q-77 0 -127.5 -46.5t-69.5 -122.5h336v15q0 72 -34 113t-105 41z" />
    <glyph glyph-name="ecircumflex" unicode="&#xea;" horiz-adv-x="529" 
d="M344 698l-111 -126h-55l136 154h64l74 -154h-49zM483 235h-388q-3 -23 -3 -46q0 -72 36 -113.5t112 -41.5q130 0 174 117h51q-24 -78 -83.5 -119.5t-140.5 -41.5q-100 0 -149 54.5t-49 145.5q0 127 70 214t186 87q87 0 137.5 -52.5t50.5 -147.5q0 -29 -4 -56zM299 446
q-77 0 -127.5 -46.5t-69.5 -122.5h336v15q0 72 -34 113t-105 41z" />
    <glyph glyph-name="edieresis" unicode="&#xeb;" horiz-adv-x="529" 
d="M240 597q-19 0 -30.5 11t-11.5 29q0 19 11.5 31t30.5 12q17 0 29 -12.5t12 -30.5t-12 -29t-29 -11zM419 597q-19 0 -30.5 11t-11.5 29q0 19 11.5 31t30.5 12q17 0 29 -12.5t12 -30.5t-12 -29t-29 -11zM483 235h-388q-3 -23 -3 -46q0 -72 36 -113.5t112 -41.5
q130 0 174 117h51q-24 -78 -83.5 -119.5t-140.5 -41.5q-100 0 -149 54.5t-49 145.5q0 127 70 214t186 87q87 0 137.5 -52.5t50.5 -147.5q0 -29 -4 -56zM299 446q-77 0 -127.5 -46.5t-69.5 -122.5h336v15q0 72 -34 113t-105 41z" />
    <glyph glyph-name="igrave" unicode="&#xec;" horiz-adv-x="212" 
d="M211 573h-46l-55 153h50zM34 0l96 480h48l-96 -480h-48z" />
    <glyph glyph-name="iacute" unicode="&#xed;" horiz-adv-x="212" 
d="M136 573l106 153h56l-110 -153h-52zM34 0l96 480h48l-96 -480h-48z" />
    <glyph glyph-name="icircumflex" unicode="&#xee;" horiz-adv-x="212" 
d="M49 572l122 154h58l60 -154h-46l-47 122l-97 -122h-50zM34 0l96 480h48l-96 -480h-48z" />
    <glyph glyph-name="idieresis" unicode="&#xef;" horiz-adv-x="212" 
d="M120 598q-17 0 -27.5 10t-10.5 27q0 16 10.5 26t27.5 10q16 0 26.5 -10t10.5 -26t-10.5 -26.5t-26.5 -10.5zM244 598q-17 0 -27.5 10.5t-10.5 26.5t10.5 26t27.5 10q16 0 26.5 -10t10.5 -26t-10.5 -26.5t-26.5 -10.5zM34 0l96 480h48l-96 -480h-48z" />
    <glyph glyph-name="eth" unicode="&#xf0;" horiz-adv-x="528" 
d="M520 690l-8 -44l-100 -36q75 -157 75 -302q0 -138 -68 -228t-188 -90q-97 0 -142.5 55.5t-45.5 147.5q0 119 69.5 203t181.5 84q102 0 142 -75q-16 85 -66 190l-210 -74l8 44l184 65q-16 30 -42 74v2h50q16 -27 34 -61zM233 35q93 0 146 70t53 172q0 160 -139 160
q-92 0 -145.5 -72t-53.5 -174q0 -156 139 -156z" />
    <glyph glyph-name="ntilde" unicode="&#xf1;" horiz-adv-x="542" 
d="M495 726h41q-20 -86 -44.5 -121.5t-73.5 -35.5q-25 0 -41.5 12.5t-30.5 47.5q-1 3 -4 10t-4 10t-3.5 9t-4 9t-4.5 7.5t-5.5 6t-6 4t-7.5 3.5t-9 1q-24 0 -39 -27t-31 -90h-41q19 83 45.5 120t71.5 37q26 0 41.5 -13.5t31.5 -48.5q2 -4 6 -13.5t5.5 -13t5.5 -10t6.5 -9
t7 -6.5t9 -5t10.5 -1q24 0 38.5 27t29.5 90zM325 491q75 0 113 -38.5t38 -107.5q0 -43 -9 -88l-51 -257h-48l53 263q7 37 7 74q0 55 -28 81.5t-88 26.5q-67 0 -112 -41.5t-61 -120.5l-57 -283h-48l96 480h48l-12 -61q59 72 159 72z" />
    <glyph glyph-name="ograve" unicode="&#xf2;" horiz-adv-x="528" 
d="M386 573h-47l-73 153h51zM232 -11q-97 0 -143 57t-46 148q0 123 70.5 210t181.5 87q96 0 142.5 -58.5t46.5 -151.5q0 -123 -68.5 -207.5t-183.5 -84.5zM232 34q96 0 149 74t53 176q0 161 -139 161q-94 0 -148 -76.5t-54 -175.5q0 -74 33.5 -116.5t105.5 -42.5z" />
    <glyph glyph-name="oacute" unicode="&#xf3;" horiz-adv-x="528" 
d="M275 573l122 153h59l-126 -153h-55zM232 -11q-97 0 -143 57t-46 148q0 123 70.5 210t181.5 87q96 0 142.5 -58.5t46.5 -151.5q0 -123 -68.5 -207.5t-183.5 -84.5zM232 34q96 0 149 74t53 176q0 161 -139 161q-94 0 -148 -76.5t-54 -175.5q0 -74 33.5 -116.5t105.5 -42.5z
" />
    <glyph glyph-name="ocircumflex" unicode="&#xf4;" horiz-adv-x="528" 
d="M193 572l136 154h64l74 -154h-49l-59 126l-111 -126h-55zM232 -11q-97 0 -143 57t-46 148q0 123 70.5 210t181.5 87q96 0 142.5 -58.5t46.5 -151.5q0 -123 -68.5 -207.5t-183.5 -84.5zM232 34q96 0 149 74t53 176q0 161 -139 161q-94 0 -148 -76.5t-54 -175.5
q0 -74 33.5 -116.5t105.5 -42.5z" />
    <glyph glyph-name="otilde" unicode="&#xf5;" horiz-adv-x="528" 
d="M402 569q-25 0 -41.5 12.5t-30.5 47.5q-1 3 -4 10t-4 10t-3.5 9t-4 9t-4.5 7.5t-5.5 6t-6 4t-7.5 3.5t-9 1q-24 0 -39 -27t-31 -90h-41q19 83 45.5 120t71.5 37q26 0 41.5 -13.5t31.5 -48.5q2 -4 6 -13.5t5.5 -13t5.5 -10t6.5 -9t7 -6.5t9 -5t10.5 -1q24 0 38.5 27
t29.5 90h41q-20 -86 -44.5 -121.5t-73.5 -35.5zM232 -11q-97 0 -143 57t-46 148q0 123 70.5 210t181.5 87q96 0 142.5 -58.5t46.5 -151.5q0 -123 -68.5 -207.5t-183.5 -84.5zM232 34q96 0 149 74t53 176q0 161 -139 161q-94 0 -148 -76.5t-54 -175.5q0 -74 33.5 -116.5
t105.5 -42.5z" />
    <glyph glyph-name="odieresis" unicode="&#xf6;" horiz-adv-x="528" 
d="M255 597q-19 0 -30.5 11t-11.5 29q0 19 11.5 31t30.5 12q17 0 29 -12.5t12 -30.5t-12 -29t-29 -11zM434 597q-19 0 -30.5 11t-11.5 29q0 19 11.5 31t30.5 12q17 0 29 -12.5t12 -30.5t-12 -29t-29 -11zM232 -11q-97 0 -143 57t-46 148q0 123 70.5 210t181.5 87
q96 0 142.5 -58.5t46.5 -151.5q0 -123 -68.5 -207.5t-183.5 -84.5zM232 34q96 0 149 74t53 176q0 161 -139 161q-94 0 -148 -76.5t-54 -175.5q0 -74 33.5 -116.5t105.5 -42.5z" />
    <glyph glyph-name="divide" unicode="&#xf7;" horiz-adv-x="568" 
d="M333 449q-17 0 -27.5 10t-10.5 27q0 18 10.5 28t27.5 10q16 0 27 -10.5t11 -27.5q0 -16 -11.5 -26.5t-26.5 -10.5zM56 257l9 44h462l-9 -44h-462zM250 33q-17 0 -27.5 10.5t-10.5 27.5q0 18 10.5 28t27.5 10q16 0 27 -10.5t11 -27.5q0 -16 -11.5 -27t-26.5 -11z" />
    <glyph glyph-name="oslash" unicode="&#xf8;" horiz-adv-x="528" 
d="M529 480l-74 -73q29 -51 29 -126q0 -123 -68.5 -207.5t-183.5 -84.5q-92 0 -140 54l-43 -43h-54l75 73q-27 48 -27 121q0 123 70.5 210t181.5 87q88 0 138 -53l42 42h54zM295 445q-94 0 -148 -76.5t-54 -175.5q0 -49 14 -83l291 295q-35 40 -103 40zM232 34q96 0 149 74
t53 176q0 50 -15 88l-292 -295q35 -43 105 -43z" />
    <glyph glyph-name="ugrave" unicode="&#xf9;" horiz-adv-x="542" 
d="M381 573h-47l-73 153h51zM460 480h48l-96 -480h-48l12 61q-59 -72 -159 -72q-75 0 -113 38.5t-38 107.5q0 43 9 88l51 257h48l-53 -263q-7 -37 -7 -74q0 -55 28 -81.5t88 -26.5q67 0 112 41.5t61 120.5z" />
    <glyph glyph-name="uacute" unicode="&#xfa;" horiz-adv-x="542" 
d="M451 726l-126 -153h-55l122 153h59zM460 480h48l-96 -480h-48l12 61q-59 -72 -159 -72q-75 0 -113 38.5t-38 107.5q0 43 9 88l51 257h48l-53 -263q-7 -37 -7 -74q0 -55 28 -81.5t88 -26.5q67 0 112 41.5t61 120.5z" />
    <glyph glyph-name="ucircumflex" unicode="&#xfb;" horiz-adv-x="542" 
d="M354 698l-111 -126h-55l136 154h64l74 -154h-49zM460 480h48l-96 -480h-48l12 61q-59 -72 -159 -72q-75 0 -113 38.5t-38 107.5q0 43 9 88l51 257h48l-53 -263q-7 -37 -7 -74q0 -55 28 -81.5t88 -26.5q67 0 112 41.5t61 120.5z" />
    <glyph glyph-name="udieresis" unicode="&#xfc;" horiz-adv-x="542" 
d="M250 597q-19 0 -30.5 11t-11.5 29q0 19 11.5 31t30.5 12q17 0 29 -12.5t12 -30.5t-12 -29t-29 -11zM429 597q-19 0 -30.5 11t-11.5 29q0 19 11.5 31t30.5 12q17 0 29 -12.5t12 -30.5t-12 -29t-29 -11zM460 480h48l-96 -480h-48l12 61q-59 -72 -159 -72q-75 0 -113 38.5
t-38 107.5q0 43 9 88l51 257h48l-53 -263q-7 -37 -7 -74q0 -55 28 -81.5t88 -26.5q67 0 112 41.5t61 120.5z" />
    <glyph glyph-name="yacute" unicode="&#xfd;" horiz-adv-x="484" 
d="M425 726l-126 -153h-55l122 153h59zM455 480h57l-429 -681h-55l128 203l-88 478h50l75 -421z" />
    <glyph glyph-name="thorn" unicode="&#xfe;" horiz-adv-x="555" 
d="M335 491q92 0 135 -55.5t43 -146.5q0 -122 -70.5 -210.5t-180.5 -88.5q-131 0 -160 110l-60 -301h-48l181 907h48l-60 -299q67 84 172 84zM258 35q92 0 148.5 76t56.5 179q0 70 -32 112.5t-101 42.5q-73 0 -125.5 -47.5t-68.5 -128.5q-12 -63 -12 -90q0 -69 35 -106.5
t99 -37.5z" />
    <glyph glyph-name="ydieresis" unicode="&#xff;" horiz-adv-x="484" 
d="M224 597q-19 0 -30.5 11t-11.5 29q0 19 11.5 31t30.5 12q17 0 29 -12.5t12 -30.5t-12 -29t-29 -11zM403 597q-19 0 -30.5 11t-11.5 29q0 19 11.5 31t30.5 12q17 0 29 -12.5t12 -30.5t-12 -29t-29 -11zM455 480h57l-429 -681h-55l128 203l-88 478h50l75 -421z" />
    <glyph glyph-name="Amacron" unicode="&#x100;" horiz-adv-x="593" 
d="M276 861h282l-8 -42h-282zM350 706h79l106 -706h-51l-29 199h-327l-109 -199h-57zM153 245h295l-62 422h-2z" />
    <glyph glyph-name="amacron" unicode="&#x101;" horiz-adv-x="518" 
d="M198 657h271l-8 -41h-271zM283 491q170 0 170 -158q0 -32 -10 -79l-51 -254h-48l15 74q-68 -85 -185 -85q-74 0 -112 33.5t-38 91.5q0 162 232 162h143q6 35 6 59q0 55 -28.5 83t-94.5 28q-127 0 -149 -113h-51q13 73 64.5 115.5t136.5 42.5zM182 33q87 0 138 49t71 152
h-129q-187 0 -187 -112q0 -89 107 -89z" />
    <glyph glyph-name="Abreve" unicode="&#x102;" horiz-adv-x="593" 
d="M400 776q-112 0 -112 96q0 9 2 29h40q-1 -7 -1 -19q0 -69 77 -69q44 0 70 21t40 67h43q-30 -125 -159 -125zM350 706h79l106 -706h-51l-29 199h-327l-109 -199h-57zM153 245h295l-62 422h-2z" />
    <glyph glyph-name="abreve" unicode="&#x103;" horiz-adv-x="518" 
d="M322 571q-61 0 -88.5 29t-27.5 87q0 18 3 39h42q-3 -22 -3 -42q0 -39 17.5 -57.5t57.5 -18.5q51 0 77.5 28.5t42.5 89.5h43q-19 -78 -57 -116.5t-107 -38.5zM283 491q170 0 170 -158q0 -32 -10 -79l-51 -254h-48l15 74q-68 -85 -185 -85q-74 0 -112 33.5t-38 91.5
q0 162 232 162h143q6 35 6 59q0 55 -28.5 83t-94.5 28q-127 0 -149 -113h-51q13 73 64.5 115.5t136.5 42.5zM182 33q87 0 138 49t71 152h-129q-187 0 -187 -112q0 -89 107 -89z" />
    <glyph glyph-name="Aogonek" unicode="&#x104;" horiz-adv-x="593" 
d="M422 -130q0 -42 51 -42q20 0 43 7l-8 -41q-23 -5 -43 -5q-41 0 -65 20t-24 56q0 39 28 70t80 66l-29 198h-327l-109 -199h-57l388 706h79l106 -706q-37 -26 -57 -42t-38 -40.5t-18 -47.5zM153 245h295l-62 422h-2z" />
    <glyph glyph-name="aogonek" unicode="&#x105;" horiz-adv-x="518" 
d="M283 491q170 0 170 -158q0 -32 -10 -79l-51 -254q-37 -26 -57 -42t-38 -40.5t-18 -47.5q0 -42 51 -42q20 0 43 7l-8 -41q-23 -5 -43 -5q-41 0 -65 20t-24 56q0 39 29 70.5t83 68.5l14 70q-68 -85 -185 -85q-74 0 -112 33.5t-38 91.5q0 162 232 162h143q6 35 6 59
q0 55 -28.5 83t-94.5 28q-127 0 -149 -113h-51q13 73 64.5 115.5t136.5 42.5zM182 33q87 0 138 49t71 152h-129q-187 0 -187 -112q0 -89 107 -89z" />
    <glyph glyph-name="Cacute" unicode="&#x106;" horiz-adv-x="688" 
d="M398 780l144 121h70l-149 -121h-65zM325 -15q-129 0 -190.5 78t-61.5 214q0 117 41 216.5t125 163.5t196 64q115 0 180 -65.5t65 -177.5q0 -10 -1 -19h-50q1 9 1 21q0 90 -53 142t-145 52q-96 0 -167 -58.5t-105 -147.5t-34 -192q0 -244 203 -244q99 0 166.5 55t92.5 148
h50q-26 -119 -110.5 -184.5t-202.5 -65.5z" />
    <glyph glyph-name="cacute" unicode="&#x107;" horiz-adv-x="504" 
d="M269 573l122 153h59l-126 -153h-55zM228 -10q-93 0 -139 55.5t-46 146.5q0 124 71 211.5t184 87.5q81 0 128 -42t47 -117q0 -15 -1 -23h-49q1 7 1 18q0 56 -34 87t-93 31q-93 0 -148 -75t-55 -180q0 -71 33 -113t102 -42q63 0 107.5 36t56.5 95h51q-16 -81 -75.5 -128.5
t-140.5 -47.5z" />
    <glyph glyph-name="Ccircumflex" unicode="&#x108;" horiz-adv-x="688" 
d="M308 780l150 121h66l102 -121h-56l-79 93l-115 -93h-68zM325 -15q-129 0 -190.5 78t-61.5 214q0 117 41 216.5t125 163.5t196 64q115 0 180 -65.5t65 -177.5q0 -10 -1 -19h-50q1 9 1 21q0 90 -53 142t-145 52q-96 0 -167 -58.5t-105 -147.5t-34 -192q0 -244 203 -244
q99 0 166.5 55t92.5 148h50q-26 -119 -110.5 -184.5t-202.5 -65.5z" />
    <glyph glyph-name="ccircumflex" unicode="&#x109;" horiz-adv-x="504" 
d="M187 572l136 154h64l74 -154h-49l-59 126l-111 -126h-55zM228 -10q-93 0 -139 55.5t-46 146.5q0 124 71 211.5t184 87.5q81 0 128 -42t47 -117q0 -15 -1 -23h-49q1 7 1 18q0 56 -34 87t-93 31q-93 0 -148 -75t-55 -180q0 -71 33 -113t102 -42q63 0 107.5 36t56.5 95h51
q-16 -81 -75.5 -128.5t-140.5 -47.5z" />
    <glyph glyph-name="Cdotaccent" unicode="&#x10a;" horiz-adv-x="688" 
d="M479 803q-17 0 -28 10.5t-11 26.5t11 26.5t28 10.5q16 0 27 -10.5t11 -26.5t-11 -26.5t-27 -10.5zM325 -15q-129 0 -190.5 78t-61.5 214q0 117 41 216.5t125 163.5t196 64q115 0 180 -65.5t65 -177.5q0 -10 -1 -19h-50q1 9 1 21q0 90 -53 142t-145 52q-96 0 -167 -58.5
t-105 -147.5t-34 -192q0 -244 203 -244q99 0 166.5 55t92.5 148h50q-26 -119 -110.5 -184.5t-202.5 -65.5z" />
    <glyph glyph-name="cdotaccent" unicode="&#x10b;" horiz-adv-x="504" 
d="M336 608q-19 0 -30.5 11.5t-11.5 29.5q0 19 11.5 31t30.5 12q18 0 30 -12t12 -31q0 -18 -12 -29.5t-30 -11.5zM228 -10q-93 0 -139 55.5t-46 146.5q0 124 71 211.5t184 87.5q81 0 128 -42t47 -117q0 -15 -1 -23h-49q1 7 1 18q0 56 -34 87t-93 31q-93 0 -148 -75t-55 -180
q0 -71 33 -113t102 -42q63 0 107.5 36t56.5 95h51q-16 -81 -75.5 -128.5t-140.5 -47.5z" />
    <glyph glyph-name="Ccaron" unicode="&#x10c;" horiz-adv-x="688" 
d="M650 901l-150 -121h-66l-102 121h56l79 -93l115 93h68zM325 -15q-129 0 -190.5 78t-61.5 214q0 117 41 216.5t125 163.5t196 64q115 0 180 -65.5t65 -177.5q0 -10 -1 -19h-50q1 9 1 21q0 90 -53 142t-145 52q-96 0 -167 -58.5t-105 -147.5t-34 -192q0 -244 203 -244
q99 0 166.5 55t92.5 148h50q-26 -119 -110.5 -184.5t-202.5 -65.5z" />
    <glyph glyph-name="ccaron" unicode="&#x10d;" horiz-adv-x="504" 
d="M494 725l-136 -154h-64l-74 154h49l59 -126l111 126h55zM228 -10q-93 0 -139 55.5t-46 146.5q0 124 71 211.5t184 87.5q81 0 128 -42t47 -117q0 -15 -1 -23h-49q1 7 1 18q0 56 -34 87t-93 31q-93 0 -148 -75t-55 -180q0 -71 33 -113t102 -42q63 0 107.5 36t56.5 95h51
q-16 -81 -75.5 -128.5t-140.5 -47.5z" />
    <glyph glyph-name="Dcaron" unicode="&#x10e;" horiz-adv-x="673" 
d="M608 901l-150 -121h-66l-102 121h56l79 -93l115 93h68zM50 0l141 706h164q288 0 288 -287q0 -185 -101 -302t-278 -117h-214zM111 47h148q160 0 245.5 104t85.5 273q0 113 -55.5 174t-182.5 61h-118z" />
    <glyph glyph-name="dcaron" unicode="&#x10f;" horiz-adv-x="580" 
d="M453 380l65 326h48l-141 -706h-48l15 73q-68 -84 -172 -84q-92 0 -135 55.5t-43 146.5q0 122 70.5 210.5t180.5 88.5q131 0 160 -110zM646 706h47l-69 -165h-42zM225 35q73 0 125.5 47.5t68.5 128.5q12 63 12 90q0 69 -35 106.5t-99 37.5q-92 0 -148.5 -76t-56.5 -179
q0 -70 32 -112.5t101 -42.5z" />
    <glyph glyph-name="Dcroat" unicode="&#x110;" horiz-adv-x="673" 
d="M355 706q288 0 288 -287q0 -185 -101 -302t-278 -117h-214l68 338h-60l9 45h59l65 323h164zM259 47q160 0 245.5 104t85.5 273q0 113 -55.5 174t-182.5 61h-118l-55 -276h184l-9 -45h-185l-58 -291h148z" />
    <glyph glyph-name="dcroat" unicode="&#x111;" horiz-adv-x="555" 
d="M620 625l-8 -40h-70l-117 -585h-48l15 73q-68 -84 -172 -84q-92 0 -135 55.5t-43 146.5q0 122 70.5 210.5t180.5 88.5q131 0 160 -110l41 205h-166l8 40h166l16 81h48l-16 -81h70zM225 35q73 0 125.5 47.5t68.5 128.5q12 63 12 90q0 69 -35 106.5t-99 37.5
q-92 0 -148.5 -76t-56.5 -179q0 -70 32 -112.5t101 -42.5z" />
    <glyph glyph-name="Emacron" unicode="&#x112;" horiz-adv-x="529" 
d="M257 819l8 42h282l-8 -42h-282zM50 0l141 706h382l-9 -47h-330l-55 -274h327l-10 -48h-327l-58 -290h330l-9 -47h-382z" />
    <glyph glyph-name="emacron" unicode="&#x113;" horiz-adv-x="529" 
d="M467 657l-8 -41h-271l8 41h271zM483 235h-388q-3 -23 -3 -46q0 -72 36 -113.5t112 -41.5q130 0 174 117h51q-24 -78 -83.5 -119.5t-140.5 -41.5q-100 0 -149 54.5t-49 145.5q0 127 70 214t186 87q87 0 137.5 -52.5t50.5 -147.5q0 -29 -4 -56zM299 446q-77 0 -127.5 -46.5
t-69.5 -122.5h336v15q0 72 -34 113t-105 41z" />
    <glyph glyph-name="Ebreve" unicode="&#x114;" horiz-adv-x="529" 
d="M389 776q-112 0 -112 96q0 9 2 29h40q-1 -7 -1 -19q0 -69 77 -69q44 0 70 21t40 67h43q-30 -125 -159 -125zM50 0l141 706h382l-9 -47h-330l-55 -274h327l-10 -48h-327l-58 -290h330l-9 -47h-382z" />
    <glyph glyph-name="ebreve" unicode="&#x115;" horiz-adv-x="529" 
d="M320 571q-61 0 -88.5 29t-27.5 87q0 18 3 39h42q-3 -22 -3 -42q0 -39 17.5 -57.5t57.5 -18.5q51 0 77.5 28.5t42.5 89.5h43q-19 -78 -57 -116.5t-107 -38.5zM483 235h-388q-3 -23 -3 -46q0 -72 36 -113.5t112 -41.5q130 0 174 117h51q-24 -78 -83.5 -119.5t-140.5 -41.5
q-100 0 -149 54.5t-49 145.5q0 127 70 214t186 87q87 0 137.5 -52.5t50.5 -147.5q0 -29 -4 -56zM299 446q-77 0 -127.5 -46.5t-69.5 -122.5h336v15q0 72 -34 113t-105 41z" />
    <glyph glyph-name="Edotaccent" unicode="&#x116;" horiz-adv-x="529" 
d="M402 803q-17 0 -28 10.5t-11 26.5t11 26.5t28 10.5q16 0 27 -10.5t11 -26.5t-11 -26.5t-27 -10.5zM50 0l141 706h382l-9 -47h-330l-55 -274h327l-10 -48h-327l-58 -290h330l-9 -47h-382z" />
    <glyph glyph-name="edotaccent" unicode="&#x117;" horiz-adv-x="529" 
d="M327 608q-19 0 -30.5 11.5t-11.5 29.5q0 19 11.5 31t30.5 12q17 0 29.5 -12t12.5 -31q0 -18 -12 -29.5t-30 -11.5zM483 235h-388q-3 -23 -3 -46q0 -72 36 -113.5t112 -41.5q130 0 174 117h51q-24 -78 -83.5 -119.5t-140.5 -41.5q-100 0 -149 54.5t-49 145.5q0 127 70 214
t186 87q87 0 137.5 -52.5t50.5 -147.5q0 -29 -4 -56zM299 446q-77 0 -127.5 -46.5t-69.5 -122.5h336v15q0 72 -34 113t-105 41z" />
    <glyph glyph-name="Eogonek" unicode="&#x118;" horiz-adv-x="529" 
d="M564 659h-330l-55 -274h327l-10 -48h-327l-58 -290h330l-9 -47q-37 -26 -57 -42t-38 -40.5t-18 -47.5q0 -42 51 -42q20 0 43 7l-8 -41q-23 -5 -43 -5q-41 0 -65 20t-24 56q0 38 28 70t78 65h-329l141 706h382z" />
    <glyph glyph-name="eogonek" unicode="&#x119;" horiz-adv-x="529" 
d="M483 235h-388q-3 -23 -3 -46q0 -72 36 -113.5t112 -41.5q130 0 173 117h52q-29 -88 -117 -151q-37 -26 -57 -42t-38 -40.5t-18 -47.5q0 -42 51 -42q20 0 43 7l-8 -41q-23 -5 -43 -5q-41 0 -65 20t-24 56q0 61 97 129q-19 -4 -45 -4q-100 0 -149 54.5t-49 145.5
q0 127 70 214t186 87q87 0 137.5 -52.5t50.5 -147.5q0 -29 -4 -56zM299 446q-77 0 -127.5 -46.5t-69.5 -122.5h336v15q0 72 -34 113t-105 41z" />
    <glyph glyph-name="Ecaron" unicode="&#x11a;" horiz-adv-x="529" 
d="M573 901l-150 -121h-66l-102 121h56l79 -93l115 93h68zM50 0l141 706h382l-9 -47h-330l-55 -274h327l-10 -48h-327l-58 -290h330l-9 -47h-382z" />
    <glyph glyph-name="ecaron" unicode="&#x11b;" horiz-adv-x="529" 
d="M349 571h-64l-74 154h49l59 -126l111 126h55zM483 235h-388q-3 -23 -3 -46q0 -72 36 -113.5t112 -41.5q130 0 174 117h51q-24 -78 -83.5 -119.5t-140.5 -41.5q-100 0 -149 54.5t-49 145.5q0 127 70 214t186 87q87 0 137.5 -52.5t50.5 -147.5q0 -29 -4 -56zM299 446
q-77 0 -127.5 -46.5t-69.5 -122.5h336v15q0 72 -34 113t-105 41z" />
    <glyph glyph-name="Gcircumflex" unicode="&#x11c;" horiz-adv-x="697" 
d="M480 873l-115 -93h-68l150 121h66l102 -121h-56zM400 313l9 47h258l-15 -76q-27 -135 -107.5 -217t-221.5 -82q-123 0 -187 77.5t-64 203.5q0 194 98.5 324.5t267.5 130.5q242 0 242 -247h-50q-1 97 -49 148.5t-143 51.5q-101 0 -173 -58.5t-106 -151.5t-34 -209
q0 -100 52 -161.5t147 -61.5q226 0 277 258l5 23h-206z" />
    <glyph glyph-name="gcircumflex" unicode="&#x11d;" horiz-adv-x="555" 
d="M354 698l-111 -126h-55l136 154h64l74 -154h-49zM473 480h48l-99 -495q-38 -197 -232 -197q-96 0 -144.5 43t-34.5 124h47q-10 -60 26.5 -91.5t107.5 -31.5q152 0 184 165l15 75q-66 -81 -170 -81q-92 0 -135 55.5t-43 146.5q0 122 70 209.5t180 87.5q131 0 160 -110z
M226 37q73 0 125.5 47t68.5 128q11 57 11 89q0 69 -35 106.5t-99 37.5q-92 0 -148 -75t-56 -178q0 -70 32 -112.5t101 -42.5z" />
    <glyph glyph-name="Gbreve" unicode="&#x11e;" horiz-adv-x="697" 
d="M455 776q-112 0 -112 96q0 9 2 29h40q-1 -7 -1 -19q0 -69 77 -69q44 0 70 21t40 67h43q-30 -125 -159 -125zM400 313l9 47h258l-15 -76q-27 -135 -107.5 -217t-221.5 -82q-123 0 -187 77.5t-64 203.5q0 194 98.5 324.5t267.5 130.5q242 0 242 -247h-50q-1 97 -49 148.5
t-143 51.5q-101 0 -173 -58.5t-106 -151.5t-34 -209q0 -100 52 -161.5t147 -61.5q226 0 277 258l5 23h-206z" />
    <glyph glyph-name="gbreve" unicode="&#x11f;" horiz-adv-x="555" 
d="M330 571q-61 0 -88.5 29t-27.5 87q0 18 3 39h42q-3 -22 -3 -42q0 -39 17.5 -57.5t57.5 -18.5q51 0 77.5 28.5t42.5 89.5h43q-19 -78 -57 -116.5t-107 -38.5zM473 480h48l-99 -495q-38 -197 -232 -197q-96 0 -144.5 43t-34.5 124h47q-10 -60 26.5 -91.5t107.5 -31.5
q152 0 184 165l15 75q-66 -81 -170 -81q-92 0 -135 55.5t-43 146.5q0 122 70 209.5t180 87.5q131 0 160 -110zM226 37q73 0 125.5 47t68.5 128q11 57 11 89q0 69 -35 106.5t-99 37.5q-92 0 -148 -75t-56 -178q0 -70 32 -112.5t101 -42.5z" />
    <glyph glyph-name="Gdotaccent" unicode="&#x120;" horiz-adv-x="697" 
d="M468 803q-17 0 -28 10.5t-11 26.5t11 26.5t28 10.5q16 0 27 -10.5t11 -26.5t-11 -26.5t-27 -10.5zM400 313l9 47h258l-15 -76q-27 -135 -107.5 -217t-221.5 -82q-123 0 -187 77.5t-64 203.5q0 194 98.5 324.5t267.5 130.5q242 0 242 -247h-50q-1 97 -49 148.5t-143 51.5
q-101 0 -173 -58.5t-106 -151.5t-34 -209q0 -100 52 -161.5t147 -61.5q226 0 277 258l5 23h-206z" />
    <glyph glyph-name="gdotaccent" unicode="&#x121;" horiz-adv-x="555" 
d="M337 608q-19 0 -30.5 11.5t-11.5 29.5q0 19 11.5 31t30.5 12q17 0 29.5 -12t12.5 -31q0 -18 -12 -29.5t-30 -11.5zM473 480h48l-99 -495q-38 -197 -232 -197q-96 0 -144.5 43t-34.5 124h47q-10 -60 26.5 -91.5t107.5 -31.5q152 0 184 165l15 75q-66 -81 -170 -81
q-92 0 -135 55.5t-43 146.5q0 122 70 209.5t180 87.5q131 0 160 -110zM226 37q73 0 125.5 47t68.5 128q11 57 11 89q0 69 -35 106.5t-99 37.5q-92 0 -148 -75t-56 -178q0 -70 32 -112.5t101 -42.5z" />
    <glyph glyph-name="uni0122" unicode="&#x122;" horiz-adv-x="697" 
d="M400 313l9 47h258l-15 -76q-27 -135 -107.5 -217t-221.5 -82q-123 0 -187 77.5t-64 203.5q0 194 98.5 324.5t267.5 130.5q242 0 242 -247h-50q-1 97 -49 148.5t-143 51.5q-101 0 -173 -58.5t-106 -151.5t-34 -209q0 -100 52 -161.5t147 -61.5q226 0 277 258l5 23h-206z
M217 -201l59 147h50l-63 -147h-46z" />
    <glyph glyph-name="uni0123" unicode="&#x123;" horiz-adv-x="555" 
d="M394 720l-59 -147h-50l63 147h46zM473 480h48l-99 -495q-38 -197 -232 -197q-96 0 -144.5 43t-34.5 124h47q-10 -60 26.5 -91.5t107.5 -31.5q152 0 184 165l15 75q-66 -81 -170 -81q-92 0 -135 55.5t-43 146.5q0 122 70 209.5t180 87.5q131 0 160 -110zM226 37
q73 0 125.5 47t68.5 128q11 57 11 89q0 69 -35 106.5t-99 37.5q-92 0 -148 -75t-56 -178q0 -70 32 -112.5t101 -42.5z" />
    <glyph glyph-name="Hcircumflex" unicode="&#x124;" horiz-adv-x="662" 
d="M270 780l150 121h66l102 -121h-56l-79 93l-115 -93h-68zM50 0l141 706h52l-64 -321h362l64 321h52l-141 -706h-52l68 338h-362l-68 -338h-52z" />
    <glyph glyph-name="hcircumflex" unicode="&#x125;" horiz-adv-x="542" 
d="M438 901l102 -121h-56l-79 93l-115 -93h-68l150 121h66zM325 491q151 0 151 -155q0 -37 -9 -79l-51 -257h-48l53 265q8 40 8 70q0 110 -113 110q-71 0 -116 -41.5t-61 -120.5l-57 -283h-48l141 706h48l-57 -287q60 72 159 72z" />
    <glyph glyph-name="Hbar" unicode="&#x126;" horiz-adv-x="662" 
d="M605 706h52l-141 -706h-52l68 338h-362l-68 -338h-52l141 706h52l-26 -131h362zM179 385h362l30 149h-362z" />
    <glyph glyph-name="hbar" unicode="&#x127;" horiz-adv-x="542" 
d="M325 491q151 0 151 -155q0 -37 -9 -79l-51 -257h-48l53 265q8 40 8 70q0 110 -113 110q-71 0 -116 -41.5t-61 -120.5l-57 -283h-48l117 585h-63l8 40h63l16 81h48l-16 -81h173l-8 -40h-173l-33 -166q60 72 159 72z" />
    <glyph glyph-name="Itilde" unicode="&#x128;" horiz-adv-x="248" 
d="M293 777q-42 0 -63 47q-9 22 -17 31.5t-24 9.5q-23 0 -36 -21t-23 -64h-38q15 63 39 93t64 30q42 0 62 -46q7 -15 11 -23t11.5 -13.5t18.5 -5.5q22 0 34.5 20.5t24.5 65.5h38q-15 -65 -38.5 -94.5t-63.5 -29.5zM50 0l141 706h52l-141 -706h-52z" />
    <glyph glyph-name="itilde" unicode="&#x129;" horiz-adv-x="212" 
d="M228 569q-26 0 -38 14.5t-17 47.5q-1 4 -2.5 13t-2.5 12.5t-2.5 10.5t-3.5 10t-5 7t-6.5 5.5t-8.5 1.5q-17 0 -28 -27t-25 -92h-39q19 86 40 121.5t57 35.5q28 0 39.5 -16.5t16.5 -52.5q4 -20 6 -28.5t8.5 -16.5t15.5 -8q18 0 29.5 27.5t24.5 91.5h39q-19 -87 -39.5 -122
t-58.5 -35zM34 0l96 480h48l-96 -480h-48z" />
    <glyph glyph-name="Imacron" unicode="&#x12a;" horiz-adv-x="248" 
d="M136 819l8 42h207l-8 -42h-207zM50 0l141 706h52l-141 -706h-52z" />
    <glyph glyph-name="imacron" unicode="&#x12b;" horiz-adv-x="212" 
d="M86 616l8 41h191l-8 -41h-191zM34 0l96 480h48l-96 -480h-48z" />
    <glyph glyph-name="Ibreve" unicode="&#x12c;" horiz-adv-x="248" 
d="M235 776q-92 0 -92 85q0 20 4 40h41q-4 -19 -4 -36q0 -52 54 -52q36 0 55 20.5t29 67.5h43q-12 -64 -42.5 -94.5t-87.5 -30.5zM50 0l141 706h52l-141 -706h-52z" />
    <glyph glyph-name="ibreve" unicode="&#x12d;" horiz-adv-x="212" 
d="M174 571q-90 0 -90 96q0 26 6 59h40q-7 -40 -7 -59q0 -60 51 -60q38 0 59 28t34 91h42q-16 -80 -48 -117.5t-87 -37.5zM34 0l96 480h48l-96 -480h-48z" />
    <glyph glyph-name="Iogonek" unicode="&#x12e;" horiz-adv-x="248" 
d="M243 706l-141 -706q-90 -94 -90 -137q0 -35 39 -35q20 0 39 8l-9 -40q-20 -7 -42 -7q-33 0 -52.5 17.5t-19.5 48.5q0 60 89 145h-6l141 706h52z" />
    <glyph glyph-name="iogonek" unicode="&#x12f;" horiz-adv-x="212" 
d="M189 690q17 0 29.5 -12t12.5 -31q0 -18 -12 -29.5t-30 -11.5q-19 0 -30.5 11.5t-11.5 29.5q0 19 11.5 31t30.5 12zM34 0l96 480h48l-96 -480q-90 -94 -90 -137q0 -35 39 -35q20 0 39 8l-9 -40q-20 -7 -42 -7q-33 0 -52.5 17.5t-19.5 48.5q0 60 89 145h-2z" />
    <glyph glyph-name="Idotaccent" unicode="&#x130;" horiz-adv-x="248" 
d="M244 803q-17 0 -28 10.5t-11 26.5t11 26.5t28 10.5q16 0 27 -10.5t11 -26.5t-11 -26.5t-27 -10.5zM50 0l141 706h52l-141 -706h-52z" />
    <glyph glyph-name="dotlessi" unicode="&#x131;" horiz-adv-x="212" 
d="M34 0l96 480h48l-96 -480h-48z" />
    <glyph glyph-name="IJ" unicode="&#x132;" horiz-adv-x="588" 
d="M50 0l141 706h52l-141 -706h-52zM286 -3q-38 0 -66 5l10 49q28 -5 53 -5q73 0 112 36t55 120l101 504h52l-104 -522q-20 -97 -70.5 -142t-142.5 -45z" />
    <glyph glyph-name="ij" unicode="&#x133;" horiz-adv-x="424" 
d="M189 606q-19 0 -30.5 11.5t-11.5 29.5q0 19 11.5 31t30.5 12q17 0 29.5 -12t12.5 -31q0 -18 -12 -29.5t-30 -11.5zM400 606q-19 0 -30.5 11.5t-11.5 29.5q0 19 11.5 31t30.5 12q18 0 30 -12t12 -31q0 -18 -12 -29.5t-30 -11.5zM34 0l96 480h48l-96 -480h-48zM142 -204
q-21 0 -41 4l9 43q12 -2 29 -2q41 0 62 19t30 65l111 555h48l-114 -572q-12 -59 -44 -85.5t-90 -26.5z" />
    <glyph glyph-name="Jcircumflex" unicode="&#x134;" horiz-adv-x="340" 
d="M224 780l107 121h58l61 -121h-47l-45 91l-81 -91h-53zM38 -3q-38 0 -66 5l10 49q28 -5 53 -5q73 0 112 36t55 120l101 504h52l-104 -522q-20 -97 -70.5 -142t-142.5 -45z" />
    <glyph glyph-name="jcircumflex" unicode="&#x135;" horiz-adv-x="212" 
d="M48 572l122 154h58l60 -154h-46l-47 122l-97 -122h-50zM-70 -204q-21 0 -41 4l9 43q12 -2 29 -2q41 0 62 19t30 65l111 555h48l-114 -572q-12 -59 -44 -85.5t-90 -26.5z" />
    <glyph glyph-name="uni0136" unicode="&#x136;" horiz-adv-x="549" 
d="M586 706l-356 -328l256 -378h-61l-250 367l-73 -367h-52l141 706h52l-61 -306l335 306h69zM177 -201l59 147h50l-63 -147h-46z" />
    <glyph glyph-name="uni0137" unicode="&#x137;" horiz-adv-x="428" 
d="M451 480l-270 -218l199 -262h-57l-191 250l-50 -250h-48l141 706h48l-85 -425l243 199h70zM115 -201l59 147h50l-63 -147h-46z" />
    <glyph glyph-name="kgreenlandic" unicode="&#x138;" horiz-adv-x="428" 
d="M451 480l-269 -219l198 -261h-57l-191 250l-50 -250h-48l96 480h48l-40 -199l243 199h70z" />
    <glyph glyph-name="Lacute" unicode="&#x139;" horiz-adv-x="468" 
d="M202 780l144 121h70l-149 -121h-65zM50 0l141 706h52l-132 -659h298l-9 -47h-350z" />
    <glyph glyph-name="lacute" unicode="&#x13a;" horiz-adv-x="212" 
d="M145 780l144 121h70l-149 -121h-65zM34 0l141 706h48l-141 -706h-48z" />
    <glyph glyph-name="uni013B" unicode="&#x13b;" horiz-adv-x="468" 
d="M50 0l141 706h52l-132 -659h298l-9 -47h-350zM156 -201l59 147h50l-63 -147h-46z" />
    <glyph glyph-name="uni013C" unicode="&#x13c;" horiz-adv-x="212" 
d="M34 0l141 706h48l-141 -706h-48zM-35 -201l59 147h50l-63 -147h-46z" />
    <glyph glyph-name="Lcaron" unicode="&#x13d;" horiz-adv-x="468" 
d="M50 0l141 706h52l-132 -659h298l-9 -47h-350zM312 541l64 165h47l-69 -165h-42z" />
    <glyph glyph-name="lcaron" unicode="&#x13e;" horiz-adv-x="221" 
d="M34 0l141 706h48l-141 -706h-48zM233 541l64 165h47l-69 -165h-42z" />
    <glyph glyph-name="Ldot" unicode="&#x13f;" horiz-adv-x="497" 
d="M50 0l141 706h52l-132 -659h298l-9 -47h-350zM398 342q-19 0 -30.5 11t-11.5 30t11.5 31t30.5 12q18 0 30 -12t12 -31q0 -18 -12 -29.5t-30 -11.5z" />
    <glyph glyph-name="ldot" unicode="&#x140;" horiz-adv-x="312" 
d="M34 0l141 706h48l-141 -706h-48zM280 291q-19 0 -30.5 11t-11.5 30t11.5 31t30.5 12q18 0 30 -12t12 -31q0 -18 -12 -29.5t-30 -11.5z" />
    <glyph glyph-name="Lslash" unicode="&#x141;" horiz-adv-x="468" 
d="M111 47h298l-9 -47h-350l67 335l-75 -44l11 53l74 44l64 318h52l-58 -288l166 99l-11 -54l-165 -98z" />
    <glyph glyph-name="lslash" unicode="&#x142;" horiz-adv-x="228" 
d="M265 484l-10 -51l-90 -58l-75 -375h-48l70 351l-88 -56l10 50l88 56l61 305h48l-56 -280z" />
    <glyph glyph-name="Nacute" unicode="&#x143;" horiz-adv-x="690" 
d="M385 780l144 121h70l-149 -121h-65zM50 0l141 706h58l259 -634l127 634h50l-141 -706h-58l-259 634l-127 -634h-50z" />
    <glyph glyph-name="nacute" unicode="&#x144;" horiz-adv-x="542" 
d="M472 726l-126 -153h-55l122 153h59zM325 491q75 0 113 -38.5t38 -107.5q0 -43 -9 -88l-51 -257h-48l53 263q7 37 7 74q0 55 -28 81.5t-88 26.5q-67 0 -112 -41.5t-61 -120.5l-57 -283h-48l96 480h48l-12 -61q59 72 159 72z" />
    <glyph glyph-name="uni0145" unicode="&#x145;" horiz-adv-x="690" 
d="M50 0l141 706h58l259 -634l127 634h50l-141 -706h-58l-259 634l-127 -634h-50zM220 -201l59 147h50l-63 -147h-46z" />
    <glyph glyph-name="uni0146" unicode="&#x146;" horiz-adv-x="542" 
d="M325 491q75 0 113 -38.5t38 -107.5q0 -43 -9 -88l-51 -257h-48l53 263q7 37 7 74q0 55 -28 81.5t-88 26.5q-67 0 -112 -41.5t-61 -120.5l-57 -283h-48l96 480h48l-12 -61q59 72 159 72zM143 -201l59 147h50l-63 -147h-46z" />
    <glyph glyph-name="Ncaron" unicode="&#x147;" horiz-adv-x="690" 
d="M637 901l-150 -121h-66l-102 121h56l79 -93l115 93h68zM50 0l141 706h58l259 -634l127 634h50l-141 -706h-58l-259 634l-127 -634h-50z" />
    <glyph glyph-name="ncaron" unicode="&#x148;" horiz-adv-x="542" 
d="M380 571h-64l-74 154h49l59 -126l111 126h55zM325 491q75 0 113 -38.5t38 -107.5q0 -43 -9 -88l-51 -257h-48l53 263q7 37 7 74q0 55 -28 81.5t-88 26.5q-67 0 -112 -41.5t-61 -120.5l-57 -283h-48l96 480h48l-12 -61q59 72 159 72z" />
    <glyph glyph-name="napostrophe" unicode="&#x149;" horiz-adv-x="666" 
d="M204 706h55l-132 -281h-44zM449 491q75 0 113 -38.5t38 -107.5q0 -43 -9 -88l-51 -257h-48l53 263q7 37 7 74q0 55 -28 81.5t-88 26.5q-67 0 -112 -41.5t-61 -120.5l-57 -283h-48l96 480h48l-12 -61q59 72 159 72z" />
    <glyph glyph-name="Eng" unicode="&#x14a;" horiz-adv-x="690" 
d="M635 706h50l-158 -792q-13 -62 -45.5 -90t-91.5 -28q-21 0 -41 4l9 44q12 -2 29 -2q41 0 62 19t30 65l15 74l-267 634l-127 -634h-50l141 706h58l262 -621z" />
    <glyph glyph-name="eng" unicode="&#x14b;" horiz-adv-x="542" 
d="M325 491q151 0 151 -154q0 -38 -9 -80l-69 -349q-12 -59 -44 -85.5t-90 -26.5q-21 0 -41 4l9 43q13 -2 32 -2q39 0 59 18t29 61l69 345q7 35 7 67q0 59 -27.5 86t-88.5 27q-67 0 -112 -41.5t-61 -120.5l-57 -283h-48l96 480h48l-12 -61q59 72 159 72z" />
    <glyph glyph-name="Omacron" unicode="&#x14c;" horiz-adv-x="712" 
d="M325 819l8 42h282l-8 -42h-282zM324 -15q-128 0 -190 78t-62 206q0 90 24.5 171.5t69 144t113.5 99.5t153 37q129 0 191 -77.5t62 -204.5q0 -123 -41 -225t-124.5 -165.5t-195.5 -63.5zM334 32q92 0 161.5 59.5t103 152t33.5 201.5q0 104 -51 166.5t-158 62.5
q-92 0 -161.5 -59t-103 -151t-33.5 -201q0 -106 50 -168.5t159 -62.5z" />
    <glyph glyph-name="omacron" unicode="&#x14d;" horiz-adv-x="528" 
d="M203 616l8 41h271l-8 -41h-271zM232 -11q-97 0 -143 57t-46 148q0 123 70.5 210t181.5 87q96 0 142.5 -58.5t46.5 -151.5q0 -123 -68.5 -207.5t-183.5 -84.5zM232 34q96 0 149 74t53 176q0 161 -139 161q-94 0 -148 -76.5t-54 -175.5q0 -74 33.5 -116.5t105.5 -42.5z" />
    <glyph glyph-name="Obreve" unicode="&#x14e;" horiz-adv-x="712" 
d="M457 776q-112 0 -112 96q0 9 2 29h40q-1 -7 -1 -19q0 -69 77 -69q44 0 70 21t40 67h43q-30 -125 -159 -125zM324 -15q-128 0 -190 78t-62 206q0 90 24.5 171.5t69 144t113.5 99.5t153 37q129 0 191 -77.5t62 -204.5q0 -123 -41 -225t-124.5 -165.5t-195.5 -63.5zM334 32
q92 0 161.5 59.5t103 152t33.5 201.5q0 104 -51 166.5t-158 62.5q-92 0 -161.5 -59t-103 -151t-33.5 -201q0 -106 50 -168.5t159 -62.5z" />
    <glyph glyph-name="obreve" unicode="&#x14f;" horiz-adv-x="528" 
d="M335 571q-61 0 -88.5 29t-27.5 87q0 18 3 39h42q-3 -22 -3 -42q0 -39 17.5 -57.5t57.5 -18.5q51 0 77.5 28.5t42.5 89.5h43q-19 -78 -57 -116.5t-107 -38.5zM232 -11q-97 0 -143 57t-46 148q0 123 70.5 210t181.5 87q96 0 142.5 -58.5t46.5 -151.5q0 -123 -68.5 -207.5
t-183.5 -84.5zM232 34q96 0 149 74t53 176q0 161 -139 161q-94 0 -148 -76.5t-54 -175.5q0 -74 33.5 -116.5t105.5 -42.5z" />
    <glyph glyph-name="Ohungarumlaut" unicode="&#x150;" horiz-adv-x="712" 
d="M354 781l137 120h62l-144 -120h-55zM487 781l136 120h61l-142 -120h-55zM324 -15q-128 0 -190 78t-62 206q0 90 24.5 171.5t69 144t113.5 99.5t153 37q129 0 191 -77.5t62 -204.5q0 -123 -41 -225t-124.5 -165.5t-195.5 -63.5zM334 32q92 0 161.5 59.5t103 152
t33.5 201.5q0 104 -51 166.5t-158 62.5q-92 0 -161.5 -59t-103 -151t-33.5 -201q0 -106 50 -168.5t159 -62.5z" />
    <glyph glyph-name="ohungarumlaut" unicode="&#x151;" horiz-adv-x="528" 
d="M232 573l139 153h58l-147 -153h-50zM362 573l139 153h58l-146 -153h-51zM232 -11q-97 0 -143 57t-46 148q0 123 70.5 210t181.5 87q96 0 142.5 -58.5t46.5 -151.5q0 -123 -68.5 -207.5t-183.5 -84.5zM232 34q96 0 149 74t53 176q0 161 -139 161q-94 0 -148 -76.5
t-54 -175.5q0 -74 33.5 -116.5t105.5 -42.5z" />
    <glyph glyph-name="OE" unicode="&#x152;" horiz-adv-x="1003" 
d="M1038 659h-329l-55 -275h326l-10 -47h-326l-58 -290h329l-9 -47h-381l22 109q-91 -124 -237 -124q-236 0 -236 297q0 116 40 215t118 161.5t178 62.5q183 0 221 -189l35 174h381zM312 32q91 0 156.5 56.5t95.5 144.5t30 196q0 245 -188 245q-85 0 -150 -58.5t-97 -148
t-32 -192.5q0 -112 44 -177.5t141 -65.5z" />
    <glyph glyph-name="oe" unicode="&#x153;" horiz-adv-x="866" 
d="M820 235h-365q-2 -30 -2 -46q0 -72 32.5 -113.5t101.5 -41.5q123 0 164 117h52q-24 -78 -81 -119.5t-134 -41.5q-137 0 -171 126q-30 -59 -82 -93t-120 -34q-87 0 -129 56t-42 146q0 127 65.5 213.5t178.5 86.5q127 0 158 -129q31 60 82.5 94.5t117.5 34.5
q82 0 130 -52.5t48 -147.5q0 -29 -4 -56zM646 446q-72 0 -119 -46t-64 -123h312v15q0 72 -31.5 113t-97.5 41zM215 34q94 0 144 75t50 180q0 156 -121 156q-65 0 -110.5 -39.5t-64.5 -95t-19 -120.5q0 -156 121 -156z" />
    <glyph glyph-name="Racute" unicode="&#x154;" horiz-adv-x="594" 
d="M559 901l-149 -121h-65l144 121h70zM602 538q0 -94 -67.5 -147.5t-178.5 -53.5h-7l187 -337h-58l-186 337h-123l-67 -337h-52l141 706h201q210 0 210 -168zM179 383h173q94 0 144.5 39.5t50.5 116.5q0 121 -160 121h-153z" />
    <glyph glyph-name="racute" unicode="&#x155;" horiz-adv-x="317" 
d="M377 726l-126 -153h-55l122 153h59zM164 419q50 66 137 66q26 0 49 -5l-9 -46q-22 5 -44 5q-63 0 -102.5 -38t-53.5 -107l-59 -294h-48l96 480h46z" />
    <glyph glyph-name="uni0156" unicode="&#x156;" horiz-adv-x="594" 
d="M602 538q0 -94 -67.5 -147.5t-178.5 -53.5h-7l187 -337h-58l-186 337h-123l-67 -337h-52l141 706h201q210 0 210 -168zM179 383h173q94 0 144.5 39.5t50.5 116.5q0 121 -160 121h-153zM210 -201l59 147h50l-63 -147h-46z" />
    <glyph glyph-name="uni0157" unicode="&#x157;" horiz-adv-x="317" 
d="M301 485q26 0 49 -5l-9 -46q-22 5 -44 5q-63 0 -102.5 -38t-53.5 -107l-59 -294h-48l96 480h46l-12 -61q50 66 137 66zM-35 -201l59 147h50l-63 -147h-46z" />
    <glyph glyph-name="Rcaron" unicode="&#x158;" horiz-adv-x="594" 
d="M447 780h-66l-102 121h56l79 -93l115 93h68zM602 538q0 -94 -67.5 -147.5t-178.5 -53.5h-7l187 -337h-58l-186 337h-123l-67 -337h-52l141 706h201q210 0 210 -168zM179 383h173q94 0 144.5 39.5t50.5 116.5q0 121 -160 121h-153z" />
    <glyph glyph-name="rcaron" unicode="&#x159;" horiz-adv-x="317" 
d="M285 571h-64l-74 154h49l59 -126l111 126h55zM164 419q50 66 137 66q26 0 49 -5l-9 -46q-22 5 -44 5q-63 0 -102.5 -38t-53.5 -107l-59 -294h-48l96 480h46z" />
    <glyph glyph-name="Sacute" unicode="&#x15a;" horiz-adv-x="580" 
d="M299 780l144 121h70l-149 -121h-65zM270 -15q-118 0 -175.5 55t-57.5 150q0 22 3 46h52q-4 -23 -4 -46q0 -74 46 -116t139 -42q94 0 148 43t54 115q0 35 -12 59.5t-40.5 42.5t-53 27.5t-72.5 25.5q-88 29 -134 70t-46 113q0 86 64.5 139.5t170.5 53.5q103 0 156.5 -51.5
t53.5 -135.5q0 -24 -5 -52h-50q5 28 5 49q0 65 -42.5 104t-120.5 39q-81 0 -130.5 -40.5t-49.5 -104.5q0 -17 4.5 -32t10.5 -26t19 -22t22 -17t28.5 -14.5t29 -12t33 -12t32.5 -11.5q94 -34 136.5 -74t42.5 -114q0 -97 -69 -153t-188 -56z" />
    <glyph glyph-name="sacute" unicode="&#x15b;" horiz-adv-x="450" 
d="M230 573l122 153h59l-126 -153h-55zM188 -10q-83 0 -123.5 35.5t-40.5 97.5q0 19 3 38h48q-3 -15 -3 -30q0 -98 122 -98q63 0 101 26.5t38 71.5q0 28 -18 48t-37.5 28.5t-57.5 21.5q-65 22 -99 50.5t-34 79.5q0 60 47 96t125 36q73 0 111 -33t38 -89q0 -15 -3 -32h-48
q3 14 3 27q0 39 -26.5 62t-78.5 23q-54 0 -86.5 -24t-32.5 -62q0 -36 28 -55.5t87 -39.5q66 -23 99 -53t33 -80q0 -67 -54 -106t-141 -39z" />
    <glyph glyph-name="Scircumflex" unicode="&#x15c;" horiz-adv-x="580" 
d="M209 780l150 121h66l102 -121h-56l-79 93l-115 -93h-68zM270 -15q-118 0 -175.5 55t-57.5 150q0 22 3 46h52q-4 -23 -4 -46q0 -74 46 -116t139 -42q94 0 148 43t54 115q0 35 -12 59.5t-40.5 42.5t-53 27.5t-72.5 25.5q-88 29 -134 70t-46 113q0 86 64.5 139.5t170.5 53.5
q103 0 156.5 -51.5t53.5 -135.5q0 -24 -5 -52h-50q5 28 5 49q0 65 -42.5 104t-120.5 39q-81 0 -130.5 -40.5t-49.5 -104.5q0 -17 4.5 -32t10.5 -26t19 -22t22 -17t28.5 -14.5t29 -12t33 -12t32.5 -11.5q94 -34 136.5 -74t42.5 -114q0 -97 -69 -153t-188 -56z" />
    <glyph glyph-name="scircumflex" unicode="&#x15d;" horiz-adv-x="450" 
d="M148 572l136 154h64l74 -154h-49l-59 126l-111 -126h-55zM188 -10q-83 0 -123.5 35.5t-40.5 97.5q0 19 3 38h48q-3 -15 -3 -30q0 -98 122 -98q63 0 101 26.5t38 71.5q0 28 -18 48t-37.5 28.5t-57.5 21.5q-65 22 -99 50.5t-34 79.5q0 60 47 96t125 36q73 0 111 -33t38 -89
q0 -15 -3 -32h-48q3 14 3 27q0 39 -26.5 62t-78.5 23q-54 0 -86.5 -24t-32.5 -62q0 -36 28 -55.5t87 -39.5q66 -23 99 -53t33 -80q0 -67 -54 -106t-141 -39z" />
    <glyph glyph-name="Scedilla" unicode="&#x15e;" horiz-adv-x="580" 
d="M557 482h-50q5 28 5 49q0 65 -42.5 104t-120.5 39q-81 0 -130.5 -40.5t-49.5 -104.5q0 -17 4.5 -32t10.5 -26t19 -22t22 -17t28.5 -14.5t29 -12t33 -12t32.5 -11.5q94 -34 136.5 -74t42.5 -114q0 -91 -61 -146t-168 -62l-21 -43q91 -5 91 -73q0 -40 -30.5 -61t-81.5 -21
q-45 0 -76 14l14 37q31 -12 61 -12q31 0 50.5 12t19.5 33q0 40 -81 40h-27l37 73q-110 4 -163.5 59t-53.5 146q0 22 3 46h52q-4 -23 -4 -46q0 -74 46 -116t139 -42q94 0 148 43t54 115q0 35 -12 59.5t-40.5 42.5t-53 27.5t-72.5 25.5q-88 29 -134 70t-46 113
q0 86 64.5 139.5t170.5 53.5q103 0 156.5 -51.5t53.5 -135.5q0 -24 -5 -52z" />
    <glyph glyph-name="scedilla" unicode="&#x15f;" horiz-adv-x="450" 
d="M405 337h-48q3 14 3 27q0 39 -26.5 62t-78.5 23q-54 0 -86.5 -24t-32.5 -62q0 -36 28 -55.5t87 -39.5q66 -23 99 -53t33 -80q0 -62 -46.5 -100.5t-124.5 -43.5l-24 -48q91 -5 91 -73q0 -40 -30.5 -61t-81.5 -21q-45 0 -76 14l14 37q31 -12 61 -12q31 0 50.5 12t19.5 33
q0 40 -81 40h-27l40 79q-74 4 -109 39t-35 93q0 19 3 38h48q-3 -15 -3 -30q0 -98 122 -98q63 0 101 26.5t38 71.5q0 28 -18 48t-37.5 28.5t-57.5 21.5q-65 22 -99 50.5t-34 79.5q0 60 47 96t125 36q73 0 111 -33t38 -89q0 -15 -3 -32z" />
    <glyph glyph-name="Scaron" unicode="&#x160;" horiz-adv-x="580" 
d="M551 901l-150 -121h-66l-102 121h56l79 -93l115 93h68zM270 -15q-118 0 -175.5 55t-57.5 150q0 22 3 46h52q-4 -23 -4 -46q0 -74 46 -116t139 -42q94 0 148 43t54 115q0 35 -12 59.5t-40.5 42.5t-53 27.5t-72.5 25.5q-88 29 -134 70t-46 113q0 86 64.5 139.5t170.5 53.5
q103 0 156.5 -51.5t53.5 -135.5q0 -24 -5 -52h-50q5 28 5 49q0 65 -42.5 104t-120.5 39q-81 0 -130.5 -40.5t-49.5 -104.5q0 -17 4.5 -32t10.5 -26t19 -22t22 -17t28.5 -14.5t29 -12t33 -12t32.5 -11.5q94 -34 136.5 -74t42.5 -114q0 -97 -69 -153t-188 -56z" />
    <glyph glyph-name="scaron" unicode="&#x161;" horiz-adv-x="450" 
d="M455 725l-136 -154h-64l-74 154h49l59 -126l111 126h55zM188 -10q-83 0 -123.5 35.5t-40.5 97.5q0 19 3 38h48q-3 -15 -3 -30q0 -98 122 -98q63 0 101 26.5t38 71.5q0 28 -18 48t-37.5 28.5t-57.5 21.5q-65 22 -99 50.5t-34 79.5q0 60 47 96t125 36q73 0 111 -33t38 -89
q0 -15 -3 -32h-48q3 14 3 27q0 39 -26.5 62t-78.5 23q-54 0 -86.5 -24t-32.5 -62q0 -36 28 -55.5t87 -39.5q66 -23 99 -53t33 -80q0 -67 -54 -106t-141 -39z" />
    <glyph glyph-name="uni0162" unicode="&#x162;" horiz-adv-x="542" 
d="M113 706h502l-9 -47h-225l-132 -659h-3l-28 -57q91 -5 91 -73q0 -40 -30.5 -61t-81.5 -21q-45 0 -76 14l14 37q31 -12 61 -12q31 0 50.5 12t19.5 33q0 40 -81 40h-27l44 88h-5l132 659h-225z" />
    <glyph glyph-name="uni0163" unicode="&#x163;" horiz-adv-x="347" 
d="M194 437l-58 -293q-4 -20 -4 -40q0 -66 76 -66q26 0 59 7l-9 -46q-28 -6 -57 -6q-13 0 -20 1l-25 -51q91 -5 91 -73q0 -40 -30.5 -61t-81.5 -21q-45 0 -76 14l14 37q31 -12 61 -12q31 0 50.5 12t19.5 33q0 40 -81 40h-27l45 90q-58 19 -58 93q0 25 6 55l57 287h-83l9 43
h83l24 118h48l-24 -118h154l-9 -43h-154z" />
    <glyph glyph-name="Tcaron" unicode="&#x164;" horiz-adv-x="542" 
d="M561 901l-150 -121h-66l-102 121h56l79 -93l115 93h68zM197 0l132 659h-225l9 47h502l-9 -47h-225l-132 -659h-52z" />
    <glyph glyph-name="tcaron" unicode="&#x165;" horiz-adv-x="361" 
d="M268 539l64 165h47l-69 -165h-42zM201 -7q-118 0 -118 102q0 25 6 55l57 287h-83l9 43h83l24 118h48l-24 -118h154l-9 -43h-154l-58 -293q-4 -20 -4 -40q0 -66 76 -66q26 0 59 7l-9 -46q-28 -6 -57 -6z" />
    <glyph glyph-name="Tbar" unicode="&#x166;" horiz-adv-x="542" 
d="M606 659h-225l-43 -216h137l-9 -43h-137l-80 -400h-52l80 400h-140l9 43h140l43 216h-225l9 47h502z" />
    <glyph glyph-name="tbar" unicode="&#x167;" horiz-adv-x="347" 
d="M348 437h-154l-29 -146h155l-8 -41h-155l-21 -106q-4 -20 -4 -40q0 -66 76 -66q26 0 59 7l-9 -46q-28 -6 -57 -6q-118 0 -118 102q0 25 6 55l20 100h-84l8 41h84l29 146h-83l9 43h83l24 118h48l-24 -118h154z" />
    <glyph glyph-name="Utilde" unicode="&#x168;" horiz-adv-x="618" 
d="M497 776q-47 0 -80 46q-2 2 -8 10.5t-8 10.5l-7.5 7.5t-10 7.5t-11 4t-14.5 2q-52 0 -77 -86h-43q31 126 124 126q28 0 45.5 -11t35.5 -35q1 -1 8 -10t8.5 -11t7.5 -8t9.5 -7.5t10 -3.5t13.5 -2q53 0 78 85h43q-34 -125 -124 -125zM270 -15q-103 0 -152.5 42.5
t-49.5 130.5q0 34 7 69l96 479h52l-97 -487q-6 -33 -6 -59q0 -66 36.5 -97t114.5 -31q92 0 142.5 43t68.5 134l99 497h52l-102 -509q-22 -108 -85 -160t-176 -52z" />
    <glyph glyph-name="utilde" unicode="&#x169;" horiz-adv-x="542" 
d="M277 689q-24 0 -39 -27t-31 -90h-41q19 83 45.5 120t71.5 37q26 0 41.5 -13.5t31.5 -48.5q2 -4 6 -13.5t5.5 -13t5.5 -10t6.5 -9t7 -6.5t9 -5t10.5 -1q24 0 38.5 27t29.5 90h41q-20 -86 -44.5 -121.5t-73.5 -35.5q-25 0 -41.5 12.5t-30.5 47.5q-1 3 -4 10t-4 10t-3.5 9
t-4 9t-4.5 7.5t-5.5 6t-6 4t-7.5 3.5t-9 1zM403 197l57 283h48l-96 -480h-48l12 61q-59 -72 -159 -72q-75 0 -113 38.5t-38 107.5q0 43 9 88l51 257h48l-53 -263q-7 -37 -7 -74q0 -55 28 -81.5t88 -26.5q67 0 112 41.5t61 120.5z" />
    <glyph glyph-name="Umacron" unicode="&#x16a;" horiz-adv-x="618" 
d="M285 819l8 42h282l-8 -42h-282zM270 -15q-103 0 -152.5 42.5t-49.5 130.5q0 34 7 69l96 479h52l-97 -487q-6 -33 -6 -59q0 -66 36.5 -97t114.5 -31q92 0 142.5 43t68.5 134l99 497h52l-102 -509q-22 -108 -85 -160t-176 -52z" />
    <glyph glyph-name="umacron" unicode="&#x16b;" horiz-adv-x="542" 
d="M477 657l-8 -41h-271l8 41h271zM460 480h48l-96 -480h-48l12 61q-59 -72 -159 -72q-75 0 -113 38.5t-38 107.5q0 43 9 88l51 257h48l-53 -263q-7 -37 -7 -74q0 -55 28 -81.5t88 -26.5q67 0 112 41.5t61 120.5z" />
    <glyph glyph-name="Ubreve" unicode="&#x16c;" horiz-adv-x="618" 
d="M417 776q-112 0 -112 96q0 9 2 29h40q-1 -7 -1 -19q0 -69 77 -69q44 0 70 21t40 67h43q-30 -125 -159 -125zM270 -15q-103 0 -152.5 42.5t-49.5 130.5q0 34 7 69l96 479h52l-97 -487q-6 -33 -6 -59q0 -66 36.5 -97t114.5 -31q92 0 142.5 43t68.5 134l99 497h52l-102 -509
q-22 -108 -85 -160t-176 -52z" />
    <glyph glyph-name="ubreve" unicode="&#x16d;" horiz-adv-x="542" 
d="M330 571q-61 0 -88.5 29t-27.5 87q0 18 3 39h42q-3 -22 -3 -42q0 -39 17.5 -57.5t57.5 -18.5q51 0 77.5 28.5t42.5 89.5h43q-19 -78 -57 -116.5t-107 -38.5zM460 480h48l-96 -480h-48l12 61q-59 -72 -159 -72q-75 0 -113 38.5t-38 107.5q0 43 9 88l51 257h48l-53 -263
q-7 -37 -7 -74q0 -55 28 -81.5t88 -26.5q67 0 112 41.5t61 120.5z" />
    <glyph glyph-name="Uring" unicode="&#x16e;" horiz-adv-x="618" 
d="M420 747q-46 0 -73 26.5t-27 70.5t27 70.5t73 26.5q45 0 73 -27t28 -70q0 -44 -27.5 -70.5t-73.5 -26.5zM420 781q28 0 45.5 17.5t17.5 45.5t-17.5 45t-45.5 17q-29 0 -46 -17t-17 -45t17.5 -45.5t45.5 -17.5zM270 -15q-103 0 -152.5 42.5t-49.5 130.5q0 34 7 69l96 479
h52l-97 -487q-6 -33 -6 -59q0 -66 36.5 -97t114.5 -31q92 0 142.5 43t68.5 134l99 497h52l-102 -509q-22 -108 -85 -160t-176 -52z" />
    <glyph glyph-name="uring" unicode="&#x16f;" horiz-adv-x="542" 
d="M336 557q-46 0 -73 26.5t-27 70.5t27 70.5t73 26.5q45 0 73 -27t28 -70q0 -44 -27.5 -70.5t-73.5 -26.5zM336 716q-29 0 -46 -17t-17 -45t17.5 -45.5t45.5 -17.5t45.5 17.5t17.5 45.5t-17.5 45t-45.5 17zM460 480h48l-96 -480h-48l12 61q-59 -72 -159 -72
q-75 0 -113 38.5t-38 107.5q0 43 9 88l51 257h48l-53 -263q-7 -37 -7 -74q0 -55 28 -81.5t88 -26.5q67 0 112 41.5t61 120.5z" />
    <glyph glyph-name="Uhungarumlaut" unicode="&#x170;" horiz-adv-x="618" 
d="M314 781l137 120h62l-144 -120h-55zM447 781l136 120h61l-142 -120h-55zM270 -15q-103 0 -152.5 42.5t-49.5 130.5q0 34 7 69l96 479h52l-97 -487q-6 -33 -6 -59q0 -66 36.5 -97t114.5 -31q92 0 142.5 43t68.5 134l99 497h52l-102 -509q-22 -108 -85 -160t-176 -52z" />
    <glyph glyph-name="uhungarumlaut" unicode="&#x171;" horiz-adv-x="542" 
d="M424 726l-147 -153h-50l139 153h58zM408 573h-51l139 153h58zM403 197l57 283h48l-96 -480h-48l12 61q-59 -72 -159 -72q-75 0 -113 38.5t-38 107.5q0 43 9 88l51 257h48l-53 -263q-7 -37 -7 -74q0 -55 28 -81.5t88 -26.5q67 0 112 41.5t61 120.5z" />
    <glyph glyph-name="Uogonek" unicode="&#x172;" horiz-adv-x="618" 
d="M581 706h52l-102 -509q-29 -134 -122 -197q-37 -26 -57 -42t-38 -40.5t-18 -47.5q0 -42 51 -42q20 0 43 7l-8 -41q-23 -5 -43 -5q-41 0 -65 20t-24 56t24.5 65.5t69.5 61.5q-31 -7 -74 -7q-103 0 -152.5 42.5t-49.5 130.5q0 34 7 69l96 479h52l-97 -487q-6 -33 -6 -59
q0 -66 36.5 -97t114.5 -31q92 0 142.5 43t68.5 134z" />
    <glyph glyph-name="uogonek" unicode="&#x173;" horiz-adv-x="542" 
d="M412 0q-37 -26 -57 -42t-38 -40.5t-18 -47.5q0 -42 51 -42q20 0 43 7l-8 -41q-23 -5 -43 -5q-41 0 -65 20t-24 56q0 39 29 70.5t83 68.5l11 57q-59 -72 -159 -72q-75 0 -113 38.5t-38 107.5q0 43 9 88l51 257h48l-53 -263q-7 -37 -7 -74q0 -55 28 -81.5t88 -26.5
q67 0 112 41.5t61 120.5l57 283h48z" />
    <glyph glyph-name="Wcircumflex" unicode="&#x174;" horiz-adv-x="870" 
d="M558 873l-115 -93h-68l150 121h66l102 -121h-56zM900 706h53l-337 -706h-58l-50 635l-288 -635h-56l-61 706h49l52 -633l286 633h59l51 -628z" />
    <glyph glyph-name="wcircumflex" unicode="&#x175;" horiz-adv-x="710" 
d="M440 698l-111 -126h-55l136 154h64l74 -154h-49zM683 480h55l-260 -480h-51l-41 414l-200 -414h-49l-69 480h50l52 -417l203 417h49l42 -417z" />
    <glyph glyph-name="Ycircumflex" unicode="&#x176;" horiz-adv-x="537" 
d="M214 780l150 121h66l102 -121h-56l-79 93l-115 -93h-68zM196 0l61 305l-154 401h54l133 -349l267 349h63l-312 -401l-61 -305h-51z" />
    <glyph glyph-name="ycircumflex" unicode="&#x177;" horiz-adv-x="484" 
d="M328 698l-111 -126h-55l136 154h64l74 -154h-49zM455 480h57l-429 -681h-55l128 203l-88 478h50l75 -421z" />
    <glyph glyph-name="Ydieresis" unicode="&#x178;" horiz-adv-x="537" 
d="M282 812q-18 0 -29.5 11.5t-11.5 28.5q0 19 11.5 30.5t29.5 11.5t29.5 -12t11.5 -30q0 -17 -12 -28.5t-29 -11.5zM483 812q-18 0 -29.5 11.5t-11.5 28.5q0 19 11.5 30.5t29.5 11.5q17 0 29 -12t12 -30q0 -17 -12 -28.5t-29 -11.5zM196 0l61 305l-154 401h54l133 -349
l267 349h63l-312 -401l-61 -305h-51z" />
    <glyph glyph-name="Zacute" unicode="&#x179;" horiz-adv-x="548" 
d="M300 780l144 121h70l-149 -121h-65zM-25 0l529 659h-380l9 47h471l-527 -659h407l-9 -47h-500z" />
    <glyph glyph-name="zacute" unicode="&#x17a;" horiz-adv-x="446" 
d="M403 726l-126 -153h-55l122 153h59zM463 480l-387 -437h301l-9 -43h-391l389 437h-276l9 43h364z" />
    <glyph glyph-name="Zdotaccent" unicode="&#x17b;" horiz-adv-x="548" 
d="M381 803q-17 0 -28 10.5t-11 26.5t11 26.5t28 10.5q16 0 27 -10.5t11 -26.5t-11 -26.5t-27 -10.5zM-25 0l529 659h-380l9 47h471l-527 -659h407l-9 -47h-500z" />
    <glyph glyph-name="zdotaccent" unicode="&#x17c;" horiz-adv-x="446" 
d="M289 608q-19 0 -30.5 11.5t-11.5 29.5q0 19 11.5 31t30.5 12q17 0 29.5 -12t12.5 -31q0 -18 -12 -29.5t-30 -11.5zM463 480l-387 -437h301l-9 -43h-391l389 437h-276l9 43h364z" />
    <glyph glyph-name="Zcaron" unicode="&#x17d;" horiz-adv-x="548" 
d="M552 901l-150 -121h-66l-102 121h56l79 -93l115 93h68zM-25 0l529 659h-380l9 47h471l-527 -659h407l-9 -47h-500z" />
    <glyph glyph-name="zcaron" unicode="&#x17e;" horiz-adv-x="446" 
d="M311 571h-64l-74 154h49l59 -126l111 126h55zM463 480l-387 -437h301l-9 -43h-391l389 437h-276l9 43h364z" />
    <glyph glyph-name="Schwa" unicode="&#x18f;" horiz-adv-x="672" 
d="M397 721q124 0 185.5 -79t61.5 -208q0 -188 -95 -318.5t-246 -130.5q-108 0 -171 74t-63 206q0 47 7 87h510q5 45 5 84q0 111 -47 174.5t-146 63.5q-179 0 -241 -190h-54q34 113 111.5 175t182.5 62zM304 32q105 0 176.5 75t97.5 199h-459q-1 -13 -1 -41
q0 -108 46 -170.5t140 -62.5z" />
    <glyph glyph-name="florin" unicode="&#x192;" horiz-adv-x="374" 
d="M32 -6q-28 0 -56 7l9 42q18 -5 42 -5q94 0 115 99l51 252h-133l8 42h133l31 154q26 129 155 129q27 0 57 -6l-9 -43q-27 5 -48 5q-47 0 -73 -24.5t-36 -74.5l-28 -140h138l-8 -42h-138l-53 -265q-25 -130 -157 -130z" />
    <glyph glyph-name="Aringacute" unicode="&#x1fa;" horiz-adv-x="593" 
d="M593 1136l-149 -121h-65l144 121h70zM403 747q-46 0 -73 26.5t-27 70.5t27 70.5t73 26.5q45 0 73 -27t28 -70q0 -44 -27.5 -70.5t-73.5 -26.5zM403 906q-29 0 -46 -17t-17 -45t17 -45.5t46 -17.5t46 17.5t17 45.5t-17.5 45t-45.5 17zM350 706h79l106 -706h-51l-29 199
h-327l-109 -199h-57zM153 245h295l-62 422h-2z" />
    <glyph glyph-name="aringacute" unicode="&#x1fb;" horiz-adv-x="518" 
d="M497 997l-126 -153h-55l122 153h59zM328 557q-46 0 -73 26.5t-27 70.5t27 70.5t73 26.5q45 0 73 -27t28 -70q0 -44 -27.5 -70.5t-73.5 -26.5zM328 716q-29 0 -46 -17t-17 -45t17.5 -45.5t45.5 -17.5t45.5 17.5t17.5 45.5t-17.5 45t-45.5 17zM283 491q170 0 170 -158
q0 -32 -10 -79l-51 -254h-48l15 74q-68 -85 -185 -85q-74 0 -112 33.5t-38 91.5q0 162 232 162h143q6 35 6 59q0 55 -28.5 83t-94.5 28q-127 0 -149 -113h-51q13 73 64.5 115.5t136.5 42.5zM182 33q87 0 138 49t71 152h-129q-187 0 -187 -112q0 -89 107 -89z" />
    <glyph glyph-name="AEacute" unicode="&#x1fc;" horiz-adv-x="755" 
d="M686 901l-149 -121h-65l144 121h70zM790 659h-313l-20 -275h275l-10 -47h-269l-21 -290h235l-9 -47h-283l16 201h-247l-123 -201h-59l436 706h401zM395 247l34 417h-2l-255 -417h223z" />
    <glyph glyph-name="aeacute" unicode="&#x1fd;" horiz-adv-x="850" 
d="M618 726l-126 -153h-55l122 153h59zM804 235h-365q-2 -30 -2 -46q0 -72 32.5 -113.5t101.5 -41.5q121 0 164 117h51q-24 -78 -80.5 -119.5t-133.5 -41.5q-145 0 -174 140q-64 -141 -220 -141q-77 0 -115.5 34.5t-38.5 95.5q0 82 63.5 120t168.5 38h143q7 34 7 58
q0 55 -29 83t-95 28q-130 0 -151 -113h-49q13 73 64.5 115.5t136.5 42.5q137 0 161 -104q68 104 186 104q82 0 130 -52.5t48 -147.5q0 -29 -4 -56zM630 446q-72 0 -119 -46t-64 -123h312v15q0 72 -31.5 113t-97.5 41zM184 33q87 0 137 49.5t70 152.5h-129q-187 0 -187 -113
q0 -42 27.5 -65.5t81.5 -23.5z" />
    <glyph glyph-name="Oslashacute" unicode="&#x1fe;" horiz-adv-x="712" 
d="M603 901l-149 -121h-65l144 121h70zM764 706l-112 -108q33 -65 33 -159q0 -123 -41 -225t-124.5 -165.5t-195.5 -63.5q-136 0 -201 92l-2 1l-78 -78h-62l120 115q-29 65 -29 154q0 90 24.5 171.5t69 144t113.5 99.5t153 37q133 0 199 -87l71 72h62zM423 674
q-92 0 -161.5 -59t-103 -151t-33.5 -201q0 -64 17 -109l448 446q-53 74 -167 74zM334 32q92 0 161.5 59.5t103 152t33.5 201.5q0 68 -20 115l-451 -446q51 -82 173 -82z" />
    <glyph glyph-name="oslashacute" unicode="&#x1ff;" horiz-adv-x="528" 
d="M456 726l-126 -153h-55l122 153h59zM529 480l-74 -73q29 -51 29 -126q0 -123 -68.5 -207.5t-183.5 -84.5q-92 0 -140 54l-43 -43h-54l75 73q-27 48 -27 121q0 123 70.5 210t181.5 87q88 0 138 -53l42 42h54zM295 445q-94 0 -148 -76.5t-54 -175.5q0 -49 14 -83l291 295
q-35 40 -103 40zM232 34q96 0 149 74t53 176q0 50 -15 88l-292 -295q35 -43 105 -43z" />
    <glyph glyph-name="uni0218" unicode="&#x218;" horiz-adv-x="580" 
d="M270 -15q-118 0 -175.5 55t-57.5 150q0 22 3 46h52q-4 -23 -4 -46q0 -74 46 -116t139 -42q94 0 148 43t54 115q0 35 -12 59.5t-40.5 42.5t-53 27.5t-72.5 25.5q-88 29 -134 70t-46 113q0 86 64.5 139.5t170.5 53.5q103 0 156.5 -51.5t53.5 -135.5q0 -24 -5 -52h-50
q5 28 5 49q0 65 -42.5 104t-120.5 39q-81 0 -130.5 -40.5t-49.5 -104.5q0 -17 4.5 -32t10.5 -26t19 -22t22 -17t28.5 -14.5t29 -12t33 -12t32.5 -11.5q94 -34 136.5 -74t42.5 -114q0 -97 -69 -153t-188 -56zM189 -201l59 147h50l-63 -147h-46z" />
    <glyph glyph-name="uni0219" unicode="&#x219;" horiz-adv-x="450" 
d="M188 -10q-83 0 -123.5 35.5t-40.5 97.5q0 19 3 38h48q-3 -15 -3 -30q0 -98 122 -98q63 0 101 26.5t38 71.5q0 28 -18 48t-37.5 28.5t-57.5 21.5q-65 22 -99 50.5t-34 79.5q0 60 47 96t125 36q73 0 111 -33t38 -89q0 -15 -3 -32h-48q3 14 3 27q0 39 -26.5 62t-78.5 23
q-54 0 -86.5 -24t-32.5 -62q0 -36 28 -55.5t87 -39.5q66 -23 99 -53t33 -80q0 -67 -54 -106t-141 -39zM100 -201l59 147h50l-63 -147h-46z" />
    <glyph glyph-name="uni021A" unicode="&#x21a;" horiz-adv-x="542" 
d="M197 0l132 659h-225l9 47h502l-9 -47h-225l-132 -659h-52zM130 -201l59 147h50l-63 -147h-46z" />
    <glyph glyph-name="uni021B" unicode="&#x21b;" horiz-adv-x="347" 
d="M201 -7q-118 0 -118 102q0 25 6 55l57 287h-83l9 43h83l24 118h48l-24 -118h154l-9 -43h-154l-58 -293q-4 -20 -4 -40q0 -66 76 -66q26 0 59 7l-9 -46q-28 -6 -57 -6zM68 -201l59 147h50l-63 -147h-46z" />
    <glyph glyph-name="uni0237" unicode="&#x237;" horiz-adv-x="212" 
d="M-70 -204q-21 0 -41 4l9 43q12 -2 29 -2q41 0 62 19t30 65l111 555h48l-114 -572q-12 -59 -44 -85.5t-90 -26.5z" />
    <glyph glyph-name="uni0259" unicode="&#x259;" horiz-adv-x="529" 
d="M288 490q100 0 149 -54.5t49 -145.5q0 -127 -70 -214t-186 -87q-87 0 -137.5 52.5t-50.5 147.5q0 29 4 56h388q3 23 3 46q0 72 -36 113.5t-112 41.5q-130 0 -174 -117h-51q24 78 83.5 119.5t140.5 41.5zM230 34q77 0 127.5 46.5t69.5 122.5h-336v-15q0 -72 34 -113
t105 -41z" />
    <glyph glyph-name="circumflex" unicode="&#x2c6;" horiz-adv-x="374" 
d="M116 572l136 154h64l74 -154h-49l-59 126l-111 -126h-55z" />
    <glyph glyph-name="caron" unicode="&#x2c7;" horiz-adv-x="374" 
d="M421 725l-136 -154h-64l-74 154h49l59 -126l111 126h55z" />
    <glyph glyph-name="uni02C9" unicode="&#x2c9;" horiz-adv-x="371" 
d="M125 616l8 41h271l-8 -41h-271z" />
    <glyph glyph-name="breve" unicode="&#x2d8;" horiz-adv-x="377" 
d="M260 571q-61 0 -88.5 29t-27.5 87q0 18 3 39h42q-3 -22 -3 -42q0 -39 17.5 -57.5t57.5 -18.5q51 0 77.5 28.5t42.5 89.5h43q-19 -78 -57 -116.5t-107 -38.5z" />
    <glyph glyph-name="dotaccent" unicode="&#x2d9;" horiz-adv-x="186" 
d="M175 608q-19 0 -30.5 11.5t-11.5 29.5q0 19 11.5 31t30.5 12q17 0 29.5 -12t12.5 -31q0 -18 -12 -29.5t-30 -11.5z" />
    <glyph glyph-name="ring" unicode="&#x2da;" horiz-adv-x="306" 
d="M235 557q-46 0 -73 26.5t-27 70.5t27 70.5t73 26.5q45 0 73 -27t28 -70q0 -44 -27.5 -70.5t-73.5 -26.5zM235 591q29 0 46 17.5t17 45.5t-17.5 45t-45.5 17q-29 0 -46 -17t-17 -45t17 -45.5t46 -17.5z" />
    <glyph glyph-name="ogonek" unicode="&#x2db;" horiz-adv-x="248" 
d="M66 -211q-41 0 -65 20t-24 56q0 29 19.5 57t41.5 45.5t60 42.5l38 -10q-37 -26 -57 -42t-38 -40.5t-18 -47.5q0 -42 51 -42q20 0 43 7l-8 -41q-23 -5 -43 -5z" />
    <glyph glyph-name="tilde" unicode="&#x2dc;" horiz-adv-x="418" 
d="M347 569q-25 0 -41.5 12.5t-30.5 47.5q-1 3 -4 10t-4 10t-3.5 9t-4 9t-4.5 7.5t-5.5 6t-6 4t-7.5 3.5t-9 1q-24 0 -39 -27t-31 -90h-41q19 83 45.5 120t71.5 37q26 0 41.5 -13.5t31.5 -48.5q2 -4 6 -13.5t5.5 -13t5.5 -10t6.5 -9t7 -6.5t9 -5t10.5 -1q24 0 38.5 27
t29.5 90h41q-20 -86 -44.5 -121.5t-73.5 -35.5z" />
    <glyph glyph-name="hungarumlaut" unicode="&#x2dd;" horiz-adv-x="397" 
d="M117 573l139 153h58l-147 -153h-50zM247 573l139 153h58l-146 -153h-51z" />
    <glyph glyph-name="gravecomb" unicode="&#x300;" 
d="M17 573h-47l-73 153h51z" />
    <glyph glyph-name="acutecomb" unicode="&#x301;" 
d="M-134 573l122 153h59l-126 -153h-55z" />
    <glyph glyph-name="uni0302" unicode="&#x302;" 
d="M-258 572l136 154h64l74 -154h-49l-59 126l-111 -126h-55z" />
    <glyph glyph-name="tildecomb" unicode="&#x303;" 
d="M-71 569q-25 0 -41.5 12.5t-30.5 47.5q-1 3 -4 10t-4 10t-3.5 9t-4 9t-4.5 7.5t-5.5 6t-6 4t-7.5 3.5t-9 1q-24 0 -39 -27t-31 -90h-41q19 83 45.5 120t71.5 37q26 0 41.5 -13.5t31.5 -48.5q2 -4 6 -13.5t5.5 -13t5.5 -10t6.5 -9t7 -6.5t9 -5t10.5 -1q24 0 38.5 27
t29.5 90h41q-20 -86 -44.5 -121.5t-73.5 -35.5z" />
    <glyph glyph-name="uni0304" unicode="&#x304;" 
d="M-246 616l8 41h271l-8 -41h-271z" />
    <glyph glyph-name="uni0306" unicode="&#x306;" 
d="M-117 571q-61 0 -88.5 29t-27.5 87q0 18 3 39h42q-3 -22 -3 -42q0 -39 17.5 -57.5t57.5 -18.5q51 0 77.5 28.5t42.5 89.5h43q-19 -78 -57 -116.5t-107 -38.5z" />
    <glyph glyph-name="uni0307" unicode="&#x307;" 
d="M-11 608q-19 0 -30.5 11.5t-11.5 29.5q0 19 11.5 31t30.5 12q17 0 29.5 -12t12.5 -31q0 -18 -12 -29.5t-30 -11.5z" />
    <glyph glyph-name="uni0308" unicode="&#x308;" 
d="M-191 597q-19 0 -30.5 11t-11.5 29q0 19 11.5 31t30.5 12q17 0 29 -12.5t12 -30.5t-12 -29t-29 -11zM-12 597q-19 0 -30.5 11t-11.5 29q0 19 11.5 31t30.5 12q17 0 29 -12.5t12 -30.5t-12 -29t-29 -11z" />
    <glyph glyph-name="uni030A" unicode="&#x30a;" 
d="M-71 557q-46 0 -73 26.5t-27 70.5t27 70.5t73 26.5q45 0 73 -27t28 -70q0 -44 -27.5 -70.5t-73.5 -26.5zM-71 591q29 0 46 17.5t17 45.5t-17.5 45t-45.5 17q-29 0 -46 -17t-17 -45t17 -45.5t46 -17.5z" />
    <glyph glyph-name="uni030B" unicode="&#x30b;" 
d="M-280 573l139 153h58l-147 -153h-50zM-150 573l139 153h58l-146 -153h-51z" />
    <glyph glyph-name="uni030C" unicode="&#x30c;" 
d="M47 725l-136 -154h-64l-74 154h49l59 -126l111 126h55z" />
    <glyph glyph-name="uni0312" unicode="&#x312;" 
d="M46 720l-59 -147h-50l63 147h46z" />
    <glyph glyph-name="uni0326" unicode="&#x326;" 
d="M-218 -201l59 147h50l-63 -147h-46z" />
    <glyph glyph-name="uni0327" unicode="&#x327;" 
d="M-217 -57q91 -5 91 -73q0 -40 -30.5 -61t-81.5 -21q-45 0 -76 14l14 37q31 -12 61 -12q31 0 50.5 12t19.5 33q0 40 -81 40h-27l47 93h44z" />
    <glyph glyph-name="uni0328" unicode="&#x328;" 
d="M-182 -211q-41 0 -65 20t-24 56q0 29 19.5 57t41.5 45.5t60 42.5l38 -10q-37 -26 -57 -42t-38 -40.5t-18 -47.5q0 -42 51 -42q20 0 43 7l-8 -41q-23 -5 -43 -5z" />
    <glyph glyph-name="uni0335" unicode="&#x335;" 
d="M-325 300l8 41h287l-8 -41h-287z" />
    <glyph glyph-name="uni0336" unicode="&#x336;" 
d="M-322 610l8 41h396l-8 -41h-396z" />
    <glyph glyph-name="uni0337" unicode="&#x337;" 
d="M-67 365l10 51l106 68l-10 -51zM-192 295l10 50l104 66l-10 -50z" />
    <glyph glyph-name="uni0338" unicode="&#x338;" 
d="M-526 0l92 90l3 3l329 333l5 3l51 51h54l-92 -90l-332 -335l-5 -4l-51 -51h-54z" />
    <glyph glyph-name="uni0394" unicode="&#x394;" horiz-adv-x="593" 
d="M429 706l106 -706h-573l388 706h79zM44 46h433l-91 620h-2z" />
    <glyph glyph-name="uni0394" unicode="&#x3b4;" horiz-adv-x="593" 
d="M429 706l106 -706h-573l388 706h79zM44 46h433l-91 620h-2z" />
    <glyph glyph-name="uni03A9" unicode="&#x3a9;" horiz-adv-x="687" 
d="M30 0l9 45h167l19 93q-135 54 -135 239q0 150 90 247t237 97q129 0 191 -68.5t62 -186.5q0 -122 -67.5 -215t-182.5 -121l-17 -85h167l-9 -45h-215l34 171q111 15 173.5 97t62.5 195q0 97 -49 154t-153 57q-126 0 -198.5 -84t-72.5 -215q0 -83 31.5 -134t104.5 -70
l-34 -171h-215z" />
    <glyph glyph-name="uni03A9" unicode="&#x3c9;" horiz-adv-x="687" 
d="M30 0l9 45h167l19 93q-135 54 -135 239q0 150 90 247t237 97q129 0 191 -68.5t62 -186.5q0 -122 -67.5 -215t-182.5 -121l-17 -85h167l-9 -45h-215l34 171q111 15 173.5 97t62.5 195q0 97 -49 154t-153 57q-126 0 -198.5 -84t-72.5 -215q0 -83 31.5 -134t104.5 -70
l-34 -171h-215z" />
    <glyph glyph-name="uni03BC" unicode="&#x3bc;" horiz-adv-x="546" 
d="M464 480h48l-96 -480h-48l14 69q-61 -80 -166 -80q-102 0 -125 75q-7 -60 -21 -123l-28 -142h-48l136 681h48l-56 -278q-7 -34 -7 -64q0 -53 26.5 -78t82.5 -25q72 0 120 42t64 121z" />
    <glyph glyph-name="pi" unicode="&#x3c0;" horiz-adv-x="653" 
d="M540 -7q-118 0 -118 102q0 25 6 55l57 287h-239l-87 -437h-48l87 437h-106l9 43h547l-9 -43h-106l-58 -293q-4 -20 -4 -40q0 -66 76 -66h12l-9 -45h-10z" />
    <glyph glyph-name="Wgrave" unicode="&#x1e80;" horiz-adv-x="870" 
d="M603 780h-55l-111 121h60zM900 706h53l-337 -706h-58l-50 635l-288 -635h-56l-61 706h49l52 -633l286 633h59l51 -628z" />
    <glyph glyph-name="wgrave" unicode="&#x1e81;" horiz-adv-x="710" 
d="M467 573h-47l-73 153h51zM683 480h55l-260 -480h-51l-41 414l-200 -414h-49l-69 480h50l52 -417l203 417h49l42 -417z" />
    <glyph glyph-name="Wacute" unicode="&#x1e82;" horiz-adv-x="870" 
d="M679 901l-149 -121h-65l144 121h70zM900 706h53l-337 -706h-58l-50 635l-288 -635h-56l-61 706h49l52 -633l286 633h59l51 -628z" />
    <glyph glyph-name="wacute" unicode="&#x1e83;" horiz-adv-x="710" 
d="M537 726l-126 -153h-55l122 153h59zM683 480h55l-260 -480h-51l-41 414l-200 -414h-49l-69 480h50l52 -417l203 417h49l42 -417z" />
    <glyph glyph-name="Wdieresis" unicode="&#x1e84;" horiz-adv-x="870" 
d="M443 812q-18 0 -29.5 11.5t-11.5 28.5q0 19 11.5 30.5t29.5 11.5q17 0 29 -12t12 -30q0 -17 -12 -28.5t-29 -11.5zM644 812q-18 0 -29.5 11.5t-11.5 28.5q0 19 11.5 30.5t29.5 11.5t29.5 -12t11.5 -30q0 -17 -12 -28.5t-29 -11.5zM900 706h53l-337 -706h-58l-50 635
l-288 -635h-56l-61 706h49l52 -633l286 633h59l51 -628z" />
    <glyph glyph-name="wdieresis" unicode="&#x1e85;" horiz-adv-x="710" 
d="M336 597q-19 0 -30.5 11t-11.5 29q0 19 11.5 31t30.5 12q17 0 29 -12.5t12 -30.5t-12 -29t-29 -11zM515 597q-19 0 -30.5 11t-11.5 29q0 19 11.5 31t30.5 12q17 0 29 -12.5t12 -30.5t-12 -29t-29 -11zM683 480h55l-260 -480h-51l-41 414l-200 -414h-49l-69 480h50
l52 -417l203 417h49l42 -417z" />
    <glyph glyph-name="uni1E9E" unicode="&#x1e9e;" horiz-adv-x="642" 
d="M650 706l-1 -4l-230 -298q84 -12 125.5 -59t41.5 -121q0 -105 -76.5 -166t-203.5 -61q-64 0 -105 8l10 50q44 -9 101 -9q104 0 162.5 48.5t58.5 133.5q0 135 -175 135q-19 0 -31 -2l1 2l227 296h-321l-132 -659h-52l141 706h459z" />
    <glyph glyph-name="Ygrave" unicode="&#x1ef2;" horiz-adv-x="537" 
d="M442 780h-55l-111 121h60zM196 0l61 305l-154 401h54l133 -349l267 349h63l-312 -401l-61 -305h-51z" />
    <glyph glyph-name="ygrave" unicode="&#x1ef3;" horiz-adv-x="484" 
d="M355 573h-47l-73 153h51zM455 480h57l-429 -681h-55l128 203l-88 478h50l75 -421z" />
    <glyph glyph-name="uni2009" unicode="&#x2009;" horiz-adv-x="72" 
 />
    <glyph glyph-name="uni2011" unicode="&#x2011;" horiz-adv-x="600" 
d="M56 255l10 48h268l-10 -48h-268z" />
    <glyph glyph-name="endash" unicode="&#x2013;" horiz-adv-x="489" 
d="M56 256l9 46h383l-9 -46h-383z" />
    <glyph glyph-name="emdash" unicode="&#x2014;" horiz-adv-x="958" 
d="M56 256l9 46h852l-9 -46h-852z" />
    <glyph glyph-name="quoteleft" unicode="&#x2018;" horiz-adv-x="212" 
d="M259 706l-121 -281h-55l132 281h44z" />
    <glyph glyph-name="quoteright" unicode="&#x2019;" horiz-adv-x="212" 
d="M83 425l121 281h55l-132 -281h-44z" />
    <glyph glyph-name="quotesinglbase" unicode="&#x201a;" horiz-adv-x="212" 
d="M-29 -135l121 281h55l-132 -281h-44z" />
    <glyph glyph-name="quotedblleft" unicode="&#x201c;" horiz-adv-x="365" 
d="M259 706l-121 -281h-55l132 281h44zM412 706l-121 -281h-55l132 281h44z" />
    <glyph glyph-name="quotedblright" unicode="&#x201d;" horiz-adv-x="365" 
d="M83 425l121 281h55l-132 -281h-44zM236 425l121 281h55l-132 -281h-44z" />
    <glyph glyph-name="quotedblbase" unicode="&#x201e;" horiz-adv-x="365" 
d="M-29 -135l121 281h55l-132 -281h-44zM124 -135l121 281h55l-132 -281h-44z" />
    <glyph glyph-name="dagger" unicode="&#x2020;" horiz-adv-x="369" 
d="M405 533l-9 -45h-137l-97 -488h-50l97 488h-136l9 45h136l35 173h50l-35 -173h137z" />
    <glyph glyph-name="daggerdbl" unicode="&#x2021;" horiz-adv-x="369" 
d="M396 491h-136l-55 -276h136l-9 -45h-136l-34 -170h-50l34 170h-137l9 45h137l55 276h-137l9 46h137l34 169h50l-34 -169h136z" />
    <glyph glyph-name="bullet" unicode="&#x2022;" horiz-adv-x="409" 
d="M230 274q-43 0 -68.5 26t-25.5 69q0 45 25.5 69.5t68.5 24.5t68.5 -24.5t25.5 -69.5q0 -43 -26 -69t-68 -26z" />
    <glyph glyph-name="ellipsis" unicode="&#x2026;" horiz-adv-x="632" 
d="M84 -12q-19 0 -30.5 11t-11.5 30t11.5 31t30.5 12q18 0 30 -12t12 -31q0 -18 -12 -29.5t-30 -11.5zM274 -12q-19 0 -30.5 11t-11.5 30t11.5 31t30.5 12q18 0 30 -12t12 -31q0 -18 -12 -29.5t-30 -11.5zM464 -12q-19 0 -30.5 11t-11.5 30t11.5 31t30.5 12q18 0 30 -12
t12 -31q0 -18 -12 -29.5t-30 -11.5z" />
    <glyph glyph-name="perthousand" unicode="&#x2030;" horiz-adv-x="1095" 
d="M229 411q-59 0 -86.5 35t-27.5 93q0 74 40 123.5t108 49.5q113 0 113 -129q0 -73 -39.5 -122.5t-107.5 -49.5zM52 0l622 706h54l-622 -706h-54zM230 449q53 0 79.5 38.5t26.5 97.5q0 89 -75 89q-53 0 -79.5 -39t-26.5 -99q0 -87 75 -87zM518 -6q-59 0 -86.5 35t-27.5 93
q0 74 40 123.5t108 49.5q113 0 113 -129q0 -73 -39.5 -122.5t-107.5 -49.5zM879 -6q-59 0 -86.5 35t-27.5 93q0 74 40 123.5t108 49.5q113 0 113 -129q0 -73 -39.5 -122.5t-107.5 -49.5zM519 32q53 0 79.5 38.5t26.5 97.5q0 89 -75 89q-53 0 -79.5 -39t-26.5 -99
q0 -87 75 -87zM880 32q53 0 79.5 38.5t26.5 97.5q0 89 -75 89q-53 0 -79.5 -39t-26.5 -99q0 -87 75 -87z" />
    <glyph glyph-name="guilsinglleft" unicode="&#x2039;" horiz-adv-x="258" 
d="M151 117l-122 159l186 159h63l-191 -164l118 -154h-54z" />
    <glyph glyph-name="guilsinglright" unicode="&#x203a;" horiz-adv-x="258" 
d="M121 435l122 -159l-186 -159h-63l191 164l-118 154h54z" />
    <glyph glyph-name="fraction" unicode="&#x2044;" horiz-adv-x="181" 
d="M-190 0l555 706h51l-554 -706h-52z" />
    <glyph glyph-name="uni2070" unicode="&#x2070;" horiz-adv-x="421" 
d="M263 430q-70 0 -102 42.5t-32 114.5q0 31 7 70q16 80 62 128.5t118 48.5q70 0 102 -42.5t32 -114.5q0 -31 -7 -70q-14 -79 -60.5 -128t-119.5 -49zM265 469q55 0 89 40t47 105q6 30 6 63q0 118 -93 118q-55 0 -89 -40t-47 -105q-6 -30 -6 -63q0 -118 93 -118z" />
    <glyph glyph-name="uni2074" unicode="&#x2074;" horiz-adv-x="349" 
d="M273 438l21 105h-229v2l247 281h82l-49 -245h57l-8 -38h-57l-21 -105h-43zM149 581h153l45 229z" />
    <glyph glyph-name="uni2075" unicode="&#x2075;" horiz-adv-x="365" 
d="M233 430q-130 0 -130 104q0 11 2 21h41q-1 -8 -1 -18q0 -70 88 -70q52 0 82 27t30 72q0 89 -114 89q-48 0 -93 -14l69 185h209l-13 -36h-168l-39 -104q24 4 45 4q74 0 110.5 -32.5t36.5 -88.5q0 -61 -43.5 -100t-111.5 -39z" />
    <glyph glyph-name="uni2076" unicode="&#x2076;" horiz-adv-x="407" 
d="M293 691q63 0 97 -33.5t34 -82.5q0 -62 -45.5 -103.5t-113.5 -41.5q-146 0 -146 153q0 106 53.5 178.5t144.5 72.5q58 0 91 -29t37 -83h-43q-6 76 -91 76q-62 0 -99.5 -47.5t-47.5 -122.5q45 63 129 63zM265 467q56 0 85.5 30.5t29.5 76.5q0 38 -24 59.5t-71 21.5
q-54 0 -87 -31.5t-33 -72.5q0 -37 26 -60.5t74 -23.5z" />
    <glyph glyph-name="uni2077" unicode="&#x2077;" horiz-adv-x="312" 
d="M104 438l228 349h-194l8 39h264l-254 -388h-52z" />
    <glyph glyph-name="uni2078" unicode="&#x2078;" horiz-adv-x="383" 
d="M339 641q64 -22 64 -91q0 -56 -44 -88t-113 -32q-70 0 -106.5 29.5t-36.5 80.5q0 42 28 70t76 37q-55 22 -55 82q0 49 40.5 77t102.5 28q66 0 100.5 -25t34.5 -70q0 -34 -23 -61.5t-68 -36.5zM292 800q-45 0 -71.5 -18.5t-26.5 -54.5q0 -65 94 -65q45 0 73 19.5t28 55.5
q0 63 -97 63zM250 467q50 0 80.5 23t30.5 62q0 33 -26 52.5t-77 19.5q-49 0 -80.5 -22.5t-31.5 -60.5q0 -35 27.5 -54.5t76.5 -19.5z" />
    <glyph glyph-name="uni2079" unicode="&#x2079;" horiz-adv-x="407" 
d="M318 834q146 0 146 -153q0 -106 -53.5 -178.5t-144.5 -72.5q-58 0 -91 29t-37 83h43q6 -76 91 -76q62 0 99.5 47.5t47.5 122.5q-45 -63 -129 -63q-63 0 -97 33.5t-34 82.5q0 62 45.5 103.5t113.5 41.5zM298 609q54 0 87 31.5t33 72.5q0 37 -26 60.5t-74 23.5
q-56 0 -85.5 -30.5t-29.5 -76.5q0 -38 24 -59.5t71 -21.5z" />
    <glyph glyph-name="uni207A" unicode="&#x207a;" horiz-adv-x="342" 
d="M393 655l-7 -37h-121l-24 -119h-36l24 119h-121l7 37h121l24 119h36l-24 -119h121z" />
    <glyph glyph-name="uni207B" unicode="&#x207b;" horiz-adv-x="342" 
d="M108 618l7 37h278l-7 -37h-278z" />
    <glyph glyph-name="uni207C" unicode="&#x207c;" horiz-adv-x="342" 
d="M119 673l7 34h277l-7 -34h-277zM97 565l7 35h277l-7 -35h-277z" />
    <glyph glyph-name="uni207D" unicode="&#x207d;" horiz-adv-x="238" 
d="M188 365q-36 94 -36 185q0 183 142 349h45q-149 -165 -149 -351q0 -94 36 -183h-38z" />
    <glyph glyph-name="uni207E" unicode="&#x207e;" horiz-adv-x="238" 
d="M207 899q36 -94 36 -185q0 -183 -142 -349h-45q149 165 149 351q0 94 -36 183h38z" />
    <glyph glyph-name="uni207F" unicode="&#x207f;" horiz-adv-x="368" 
d="M285 735q99 0 99 -100q0 -17 -5 -45l-30 -152h-39l30 154q5 25 5 39q0 67 -68 67q-84 0 -102 -90l-34 -170h-39l58 290h36l-7 -35q35 42 96 42z" />
    <glyph glyph-name="uni2080" unicode="&#x2080;" horiz-adv-x="421" 
d="M151 -128q-70 0 -102 42.5t-32 114.5q0 31 7 70q16 80 62 128.5t118 48.5q70 0 102 -42.5t32 -114.5q0 -31 -7 -70q-14 -79 -60.5 -128t-119.5 -49zM153 -89q55 0 89 40t47 105q6 30 6 63q0 118 -93 118q-55 0 -89 -40t-47 -105q-6 -30 -6 -63q0 -118 93 -118z" />
    <glyph glyph-name="uni2081" unicode="&#x2081;" horiz-adv-x="249" 
d="M39 -120l70 348h-83l14 40h121l-78 -388h-44z" />
    <glyph glyph-name="uni2082" unicode="&#x2082;" horiz-adv-x="334" 
d="M-48 -120l1 3l196 162q33 28 49 43t29 38.5t13 48.5q0 65 -78 65q-50 0 -74.5 -26t-33.5 -72h-42q25 136 150 136q60 0 90 -27.5t30 -76.5q0 -43 -22 -74t-69 -68l-135 -111h177l-8 -41h-273z" />
    <glyph glyph-name="uni2083" unicode="&#x2083;" horiz-adv-x="367" 
d="M304 180q0 -75 -87 -97q59 -20 59 -86q0 -58 -42.5 -92.5t-110.5 -34.5q-135 0 -135 115q0 16 3 34h40q-3 -15 -3 -29q0 -83 95 -83q51 0 81 24.5t30 65.5q0 69 -98 69h-12l8 37h22q107 0 107 75q0 63 -81 63q-50 0 -78 -26.5t-36 -65.5h-40q10 58 51.5 93.5t109.5 35.5
q58 0 87.5 -27t29.5 -71z" />
    <glyph glyph-name="uni2084" unicode="&#x2084;" horiz-adv-x="349" 
d="M161 -120l21 105h-229v2l247 281h82l-49 -245h57l-8 -38h-57l-21 -105h-43zM37 23h153l45 229z" />
    <glyph glyph-name="uni2085" unicode="&#x2085;" horiz-adv-x="365" 
d="M121 -128q-130 0 -130 104q0 11 2 21h41q-1 -8 -1 -18q0 -70 88 -70q52 0 82 27t30 72q0 89 -114 89q-48 0 -93 -14l69 185h209l-13 -36h-168l-39 -104q24 4 45 4q74 0 110.5 -32.5t36.5 -88.5q0 -61 -43.5 -100t-111.5 -39z" />
    <glyph glyph-name="uni2086" unicode="&#x2086;" horiz-adv-x="407" 
d="M181 133q63 0 97 -33.5t34 -82.5q0 -62 -45.5 -103.5t-113.5 -41.5q-146 0 -146 153q0 106 53.5 178.5t144.5 72.5q58 0 91 -29t37 -83h-43q-6 76 -91 76q-62 0 -99.5 -47.5t-47.5 -122.5q45 63 129 63zM153 -91q56 0 85.5 30.5t29.5 76.5q0 38 -24 59.5t-71 21.5
q-54 0 -87 -31.5t-33 -72.5q0 -37 26 -60.5t74 -23.5z" />
    <glyph glyph-name="uni2087" unicode="&#x2087;" horiz-adv-x="312" 
d="M-8 -120l228 349h-194l8 39h264l-254 -388h-52z" />
    <glyph glyph-name="uni2088" unicode="&#x2088;" horiz-adv-x="383" 
d="M227 83q64 -22 64 -91q0 -56 -44 -88t-113 -32q-70 0 -106.5 29.5t-36.5 80.5q0 42 28 70t76 37q-55 22 -55 82q0 49 40.5 77t102.5 28q66 0 100.5 -25t34.5 -70q0 -34 -23 -61.5t-68 -36.5zM180 242q-45 0 -71.5 -18.5t-26.5 -54.5q0 -65 94 -65q45 0 73 19.5t28 55.5
q0 63 -97 63zM138 -91q50 0 80.5 23t30.5 62q0 33 -26 52.5t-77 19.5q-49 0 -80.5 -22.5t-31.5 -60.5q0 -35 27.5 -54.5t76.5 -19.5z" />
    <glyph glyph-name="uni2089" unicode="&#x2089;" horiz-adv-x="407" 
d="M206 276q146 0 146 -153q0 -106 -53.5 -178.5t-144.5 -72.5q-58 0 -91 29t-37 83h43q6 -76 91 -76q62 0 99.5 47.5t47.5 122.5q-45 -63 -129 -63q-63 0 -97 33.5t-34 82.5q0 62 45.5 103.5t113.5 41.5zM186 51q54 0 87 31.5t33 72.5q0 37 -26 60.5t-74 23.5
q-56 0 -85.5 -30.5t-29.5 -76.5q0 -38 24 -59.5t71 -21.5z" />
    <glyph glyph-name="uni208A" unicode="&#x208a;" horiz-adv-x="342" 
d="M281 97l-7 -37h-121l-24 -119h-36l24 119h-121l7 37h121l24 119h36l-24 -119h121z" />
    <glyph glyph-name="uni208B" unicode="&#x208b;" horiz-adv-x="342" 
d="M-4 60l7 37h278l-7 -37h-278z" />
    <glyph glyph-name="uni208C" unicode="&#x208c;" horiz-adv-x="341" 
d="M7 115l7 34h277l-7 -34h-277zM-15 7l7 35h277l-7 -35h-277z" />
    <glyph glyph-name="uni208D" unicode="&#x208d;" horiz-adv-x="238" 
d="M76 -193q-36 94 -36 185q0 183 142 349h45q-149 -165 -149 -351q0 -94 36 -183h-38z" />
    <glyph glyph-name="uni208E" unicode="&#x208e;" horiz-adv-x="237" 
d="M95 341q36 -94 36 -185q0 -183 -142 -349h-45q149 165 149 351q0 94 -36 183h38z" />
    <glyph glyph-name="uni2099" unicode="&#x2099;" horiz-adv-x="368" 
d="M167 148q99 0 99 -100q0 -17 -5 -45l-30 -152h-39l30 154q5 25 5 39q0 67 -68 67q-84 0 -102 -90l-34 -170h-39l58 290h36l-7 -35q35 42 96 42z" />
    <glyph glyph-name="Euro" unicode="&#x20ac;" horiz-adv-x="723" 
d="M714 459h-50q1 9 1 21q0 90 -53 142t-145 52q-102 0 -174 -63.5t-106 -167.5h300l-9 -42h-303q-12 -51 -13 -97h297l-9 -42h-289q7 -230 203 -230q99 0 166.5 55t92.5 148h50q-26 -119 -110.5 -184.5t-202.5 -65.5q-126 0 -187.5 74t-64.5 203h-61l9 42h53q2 51 12 97
h-46l9 42h48q37 124 125 201t213 77q115 0 180 -65.5t65 -177.5q0 -10 -1 -19z" />
    <glyph glyph-name="uni20B9" unicode="&#x20b9;" horiz-adv-x="639" 
d="M708 706l-8 -42h-190q50 -41 52 -132h113l-8 -41h-107q-11 -86 -73 -130.5t-169 -44.5h-75l245 -316h-60l-275 357h158q175 0 197 134h-379l8 41h374q0 65 -31 98.5t-103 33.5h-214l8 42h537z" />
    <glyph glyph-name="uni20BA" unicode="&#x20ba;" horiz-adv-x="558" 
d="M495 299h50q-30 -151 -107 -225t-235 -74h-132l49 243l-83 -34l9 45l83 34l21 109l-82 -34l9 45l82 34l53 264h51l-49 -244l218 93l-9 -45l-218 -93l-21 -108l217 92l-9 -45l-217 -92l-44 -218h70q140 0 203.5 61.5t90.5 191.5z" />
    <glyph glyph-name="uni20BC" unicode="&#x20bc;" horiz-adv-x="792" 
d="M502 637q266 -6 210 -298l-66 -339h-52l66 341q12 48 9.5 93t-16.5 79.5t-54.5 56t-105.5 21.5l-118 -591h-52l118 591h-3q-66 0 -115 -20t-79 -57.5t-47 -78.5t-27 -94l-66 -341h-52l66 339q13 65 33.5 115t56.5 93.5t94.5 66.5t136.5 23h11l14 69h52z" />
    <glyph glyph-name="uni2113" unicode="&#x2113;" horiz-adv-x="378" 
d="M383 463q-47 -234 -273 -276q-3 -24 -3 -43q0 -56 25 -81t75 -25q43 0 85 17l-9 -48q-39 -12 -78 -12q-72 0 -108.5 35.5t-36.5 115.5q0 10 2 34q-30 -3 -62 -3l8 40q32 0 60 3l3 15l54 268q23 112 62.5 160.5t103.5 48.5q53 0 78.5 -32t25.5 -106q0 -53 -12 -111z
M173 504l-55 -275q179 42 218 236q12 57 12 107q0 55 -14.5 77t-44.5 22q-43 0 -70.5 -37.5t-45.5 -129.5z" />
    <glyph glyph-name="uni2117" unicode="&#x2117;" horiz-adv-x="814" 
d="M392 -15q-148 0 -232.5 85.5t-84.5 230.5q0 173 113 296.5t280 123.5q148 0 232 -85t84 -231q0 -174 -112.5 -297t-279.5 -123zM394 24q151 0 250.5 111.5t99.5 268.5q0 129 -73.5 203t-203.5 74q-152 0 -251.5 -111t-99.5 -268q0 -129 73.5 -203.5t204.5 -74.5zM275 119
l94 472h111q65 0 97.5 -27t32.5 -87q0 -68 -41.5 -106.5t-114.5 -38.5h-95l-42 -213h-42zM366 368h86q57 0 85.5 28t28.5 77q0 82 -86 82h-76z" />
    <glyph glyph-name="trademark" unicode="&#x2122;" horiz-adv-x="626" 
d="M125 396l55 276h-82l7 34h203l-7 -34h-82l-55 -276h-39zM280 396l62 310h47l57 -261l161 261h53l-62 -310h-37l51 256l-160 -256h-27l-57 256l-51 -256h-37z" />
    <glyph glyph-name="uni2126" unicode="&#x2126;" horiz-adv-x="687" 
d="M30 0l9 45h167l19 93q-135 54 -135 239q0 150 90 247t237 97q129 0 191 -68.5t62 -186.5q0 -122 -67.5 -215t-182.5 -121l-17 -85h167l-9 -45h-215l34 171q111 15 173.5 97t62.5 195q0 97 -49 154t-153 57q-126 0 -198.5 -84t-72.5 -215q0 -83 31.5 -134t104.5 -70
l-34 -171h-215z" />
    <glyph glyph-name="estimated" unicode="&#x212e;" horiz-adv-x="849" 
d="M425 -11q-100 0 -186 42.5t-139.5 121.5t-53.5 177q0 145 110.5 243t268.5 98q156 0 267 -99.5t111 -247.5h-608q-10 0 -10 -11v-197q47 -51 110 -78.5t130 -27.5q73 0 139 32.5t113 88.5h57q-56 -68 -138 -105t-171 -37zM195 347h461q9 0 9 11v184q-44 51 -108 79.5
t-132 28.5q-70 0 -133 -28.5t-107 -78.5v-185q0 -11 10 -11z" />
    <glyph glyph-name="partialdiff" unicode="&#x2202;" horiz-adv-x="604" 
d="M375 721q209 0 209 -262q0 -126 -36.5 -232t-113 -174t-179.5 -68q-106 0 -160.5 57.5t-54.5 148.5q0 110 74.5 185.5t186.5 75.5q94 0 146 -50.5t57 -132.5q31 106 31 188q0 218 -160 218q-80 0 -128 -46t-71 -114h-51q27 89 89 147.5t161 58.5zM255 31q93 0 155.5 62
t62.5 148q0 76 -44 121.5t-129 45.5q-92 0 -148.5 -62.5t-56.5 -156.5q0 -72 40 -115t120 -43z" />
    <glyph glyph-name="uni2206" unicode="&#x2206;" horiz-adv-x="593" 
d="M429 706l106 -706h-573l388 706h79zM44 46h433l-91 620h-2z" />
    <glyph glyph-name="product" unicode="&#x220f;" horiz-adv-x="663" 
d="M10 -201l181 907h467l-181 -907h-53l172 859h-361l-172 -859h-53z" />
    <glyph glyph-name="summation" unicode="&#x2211;" horiz-adv-x="485" 
d="M-63 -201l343 461l-152 446h425l-9 -47h-347l140 -409l-302 -404h355l-9 -47h-444z" />
    <glyph glyph-name="minus" unicode="&#x2212;" horiz-adv-x="568" 
d="M56 257l9 44h462l-9 -44h-462z" />
    <glyph glyph-name="uni2215" unicode="&#x2215;" horiz-adv-x="568" 
d="M70 0l415 706h53l-415 -706h-53z" />
    <glyph glyph-name="uni2219" unicode="&#x2219;" horiz-adv-x="568" 
d="M310 331q-19 0 -30.5 11t-11.5 30t11.5 31t30.5 12q18 0 30 -12t12 -31q0 -18 -12 -29.5t-30 -11.5z" />
    <glyph glyph-name="radical" unicode="&#x221a;" horiz-adv-x="585" 
d="M611 706h57l-453 -914h-55l-73 427l-87 -31l10 51l120 40l66 -422z" />
    <glyph glyph-name="infinity" unicode="&#x221e;" horiz-adv-x="830" 
d="M643 444q71 0 106.5 -48t35.5 -125q0 -96 -53.5 -164.5t-141.5 -68.5q-71 0 -112.5 42.5t-69.5 117.5q-55 -78 -104 -119t-116 -41q-72 0 -107.5 48t-35.5 125q0 96 54 164.5t142 68.5q70 0 110.5 -42.5t70.5 -119.5q52 78 102.5 120t118.5 42zM194 82q31 0 58 12
t52.5 38.5t43 50t43.5 63.5q-25 73 -58 113.5t-91 40.5q-69 0 -110.5 -56t-41.5 -131q0 -58 26.5 -94.5t77.5 -36.5zM588 82q69 0 111 56t42 130q0 58 -26.5 95t-78.5 37q-31 0 -58 -12t-52 -38.5t-42.5 -50t-43.5 -63.5q24 -73 57 -113.5t91 -40.5z" />
    <glyph glyph-name="integral" unicode="&#x222b;" horiz-adv-x="329" 
d="M-37 -205q-26 0 -51 5l17 45q14 -2 30 -2q39 0 61.5 18.5t34.5 60.5l185 675q16 58 49 85t88 27q21 0 45 -4l-17 -45q-12 3 -24 3q-74 0 -97 -84l-186 -673q-16 -57 -48.5 -84t-86.5 -27z" />
    <glyph glyph-name="approxequal" unicode="&#x2248;" horiz-adv-x="568" 
d="M394 308q-24 0 -44 8.5t-27.5 14.5t-23.5 22q-22 20 -37 28.5t-38 8.5q-61 0 -87 -75h-41q34 115 130 115q33 0 53 -11t42 -33q36 -38 75 -38q61 0 85 73h41q-37 -113 -128 -113zM358 128q-24 0 -44 8.5t-27.5 14.5t-23.5 22q-22 20 -37 28.5t-38 8.5q-61 0 -87 -75h-41
q34 115 130 115q33 0 53 -11t42 -33q36 -38 75 -38q61 0 85 73h41q-37 -113 -128 -113z" />
    <glyph glyph-name="notequal" unicode="&#x2260;" horiz-adv-x="568" 
d="M538 355h-159l-134 -152h263l-9 -44h-290l-109 -123h-52l109 123h-120l9 44h147l135 152h-252l9 44h277l109 123h52l-109 -123h133z" />
    <glyph glyph-name="lessequal" unicode="&#x2264;" horiz-adv-x="568" 
d="M573 530l-10 -49l-456 -153l395 -154l-10 -48l-427 169l9 46l4 18zM10 28l10 44h462l-10 -44h-462z" />
    <glyph glyph-name="greaterequal" unicode="&#x2265;" horiz-adv-x="568" 
d="M538 359l-9 -44l-4 -20l-495 -169l10 48l456 154l-395 153l10 49zM11 28l8 44h462l-8 -44h-462z" />
    <glyph glyph-name="lozenge" unicode="&#x25ca;" horiz-adv-x="478" 
d="M361 706l95 -453l-276 -454h-57l-95 454l276 453h57zM157 -153l249 413l-81 397l-247 -412z" />
    <glyph glyph-name="uniFB00" unicode="&#xfb00;" horiz-adv-x="636" 
d="M59 0l87 437h-83l9 43h83l21 104q27 130 160 130q27 0 52 -5l-9 -44q-20 5 -44 5q-94 0 -114 -98l-18 -92h137l-9 -43h-137l-87 -437h-48zM377 0l87 437h-83l9 43h83l21 104q27 130 160 130q27 0 52 -5l-9 -44q-20 5 -44 5q-94 0 -114 -98l-18 -92h137l-9 -43h-137
l-87 -437h-48z" />
    <glyph glyph-name="fi" unicode="&#xfb01;" horiz-adv-x="530" 
d="M59 0l87 437h-83l9 43h83l21 104q27 130 160 130q27 0 52 -5l-9 -44q-20 5 -44 5q-94 0 -114 -98l-18 -92h137l-9 -43h-137l-87 -437h-48zM507 606q-19 0 -30.5 11.5t-11.5 29.5q0 19 11.5 31t30.5 12q17 0 29.5 -12t12.5 -31q0 -18 -12 -29.5t-30 -11.5zM352 0l96 480
h48l-96 -480h-48z" />
    <glyph glyph-name="fl" unicode="&#xfb02;" horiz-adv-x="530" 
d="M59 0l87 437h-83l9 43h83l21 104q27 130 160 130q27 0 52 -5l-9 -44q-20 5 -44 5q-94 0 -114 -98l-18 -92h137l-9 -43h-137l-87 -437h-48zM352 0l141 706h48l-141 -706h-48z" />
    <glyph glyph-name="uniFB03" unicode="&#xfb03;" horiz-adv-x="848" 
d="M59 0l87 437h-83l9 43h83l21 104q27 130 160 130q27 0 52 -5l-9 -44q-20 5 -44 5q-94 0 -114 -98l-18 -92h137l-9 -43h-137l-87 -437h-48zM377 0l87 437h-83l9 43h83l21 104q27 130 160 130q27 0 52 -5l-9 -44q-20 5 -44 5q-94 0 -114 -98l-18 -92h137l-9 -43h-137
l-87 -437h-48zM825 606q-19 0 -30.5 11.5t-11.5 29.5q0 19 11.5 31t30.5 12q17 0 29.5 -12t12.5 -31q0 -18 -12 -29.5t-30 -11.5zM670 0l96 480h48l-96 -480h-48z" />
    <glyph glyph-name="uniFB04" unicode="&#xfb04;" horiz-adv-x="848" 
d="M59 0l87 437h-83l9 43h83l21 104q27 130 160 130q27 0 52 -5l-9 -44q-20 5 -44 5q-94 0 -114 -98l-18 -92h137l-9 -43h-137l-87 -437h-48zM377 0l87 437h-83l9 43h83l21 104q27 130 160 130q27 0 52 -5l-9 -44q-20 5 -44 5q-94 0 -114 -98l-18 -92h137l-9 -43h-137
l-87 -437h-48zM670 0l141 706h48l-141 -706h-48z" />
    <glyph glyph-name="uniFEFF" unicode="&#xfeff;" 
 />
    <glyph glyph-name="uni00A40301" horiz-adv-x="340" 
d="M272 780l144 121h70l-149 -121h-65zM38 -3q-38 0 -66 5l10 49q28 -5 53 -5q73 0 112 36t55 120l101 504h52l-104 -522q-20 -97 -70.5 -142t-142.5 -45z" />
    <glyph glyph-name="M.ss01" horiz-adv-x="769" 
d="M50 0l141 706h64l151 -341l285 341h73l-141 -706h-50l129 645l-294 -350h-25l-154 350l-129 -645h-50z" />
    <glyph glyph-name="Q.ss02" horiz-adv-x="712" 
d="M685 439q0 -157 -68 -278t-189 -160l46 -142l-49 -18l-45 148q-36 -4 -56 -4q-128 0 -190 78t-62 206q0 90 24.5 171.5t69 144t113.5 99.5t153 37q129 0 191 -77.5t62 -204.5zM334 32q92 0 161.5 59.5t103 152t33.5 201.5q0 104 -51 166.5t-158 62.5q-92 0 -161.5 -59
t-103 -151t-33.5 -201q0 -106 50 -168.5t159 -62.5z" />
    <glyph glyph-name="Oslash.ss04" horiz-adv-x="712" 
d="M766 718l-117 -114q36 -66 36 -165q0 -123 -41 -225t-124.5 -165.5t-195.5 -63.5q-129 0 -194 83l-116 -115l-35 35l125 122q-32 65 -32 159q0 90 24.5 171.5t69 144t113.5 99.5t153 37q124 0 190 -76l109 108zM334 32q92 0 161.5 59.5t103 152t33.5 201.5
q0 104 -51 166.5t-158 62.5q-92 0 -161.5 -59t-103 -151t-33.5 -201q0 -106 50 -168.5t159 -62.5z" />
    <glyph glyph-name="i.loclTRK" horiz-adv-x="212" 
d="M189 606q-19 0 -30.5 11.5t-11.5 29.5q0 19 11.5 31t30.5 12q17 0 29.5 -12t12.5 -31q0 -18 -12 -29.5t-30 -11.5zM34 0l96 480h48l-96 -480h-48z" />
    <glyph glyph-name="uni006A0301" horiz-adv-x="212" 
d="M135 573l106 153h56l-110 -153h-52zM-70 -204q-21 0 -41 4l9 43q12 -2 29 -2q41 0 62 19t30 65l111 555h48l-114 -572q-12 -59 -44 -85.5t-90 -26.5z" />
    <glyph glyph-name="oslash.ss04" horiz-adv-x="528" 
d="M525 489l-72 -78q31 -53 31 -130q0 -123 -68.5 -207.5t-183.5 -84.5q-85 0 -133 46l-63 -71l-35 30l71 77q-29 49 -29 123q0 123 70.5 210t181.5 87q82 0 130 -45l66 73zM232 34q96 0 149 74t53 176q0 161 -139 161q-94 0 -148 -76.5t-54 -175.5q0 -74 33.5 -116.5
t105.5 -42.5z" />
    <glyph glyph-name="f_i" horiz-adv-x="530" 
d="M59 0l87 437h-83l9 43h83l21 104q27 130 160 130q27 0 52 -5l-9 -44q-20 5 -44 5q-94 0 -114 -98l-18 -92h137l-9 -43h-137l-87 -437h-48zM507 606q-19 0 -30.5 11.5t-11.5 29.5q0 19 11.5 31t30.5 12q17 0 29.5 -12t12.5 -31q0 -18 -12 -29.5t-30 -11.5zM352 0l96 480
h48l-96 -480h-48z" />
    <glyph glyph-name="f_l" horiz-adv-x="530" 
d="M59 0l87 437h-83l9 43h83l21 104q27 130 160 130q27 0 52 -5l-9 -44q-20 5 -44 5q-94 0 -114 -98l-18 -92h137l-9 -43h-137l-87 -437h-48zM352 0l141 706h48l-141 -706h-48z" />
    <glyph glyph-name="a.sc" horiz-adv-x="514" 
d="M406 0l-25 157h-275l-88 -157h-56l324 579h78l92 -579h-50zM131 203h243l-53 336h-2z" />
    <glyph glyph-name="aacute.sc" horiz-adv-x="514" 
d="M464 825l-126 -153h-55l122 153h59zM286 579h78l92 -579h-50l-25 157h-275l-88 -157h-56zM131 203h243l-53 336h-2z" />
    <glyph glyph-name="abreve.sc" horiz-adv-x="514" 
d="M343 670q-61 0 -88.5 29t-27.5 87q0 18 3 39h42q-3 -23 -3 -42q0 -39 17.5 -57.5t57.5 -18.5q51 0 77.5 28.5t42.5 89.5h43q-19 -78 -57 -116.5t-107 -38.5zM286 579h78l92 -579h-50l-25 157h-275l-88 -157h-56zM131 203h243l-53 336h-2z" />
    <glyph glyph-name="acircumflex.sc" horiz-adv-x="514" 
d="M367 797l-111 -126h-55l136 154h64l74 -154h-49zM286 579h78l92 -579h-50l-25 157h-275l-88 -157h-56zM131 203h243l-53 336h-2z" />
    <glyph glyph-name="adieresis.sc" horiz-adv-x="514" 
d="M263 696q-19 0 -30.5 11t-11.5 29q0 19 11.5 31t30.5 12q17 0 29 -12.5t12 -30.5t-12 -29t-29 -11zM442 779q17 0 29 -12.5t12 -30.5t-12 -29t-29 -11q-19 0 -30.5 11t-11.5 29q0 19 11.5 31t30.5 12zM286 579h78l92 -579h-50l-25 157h-275l-88 -157h-56zM131 203h243
l-53 336h-2z" />
    <glyph glyph-name="agrave.sc" horiz-adv-x="514" 
d="M394 672h-47l-73 153h51zM406 0l-25 157h-275l-88 -157h-56l324 579h78l92 -579h-50zM131 203h243l-53 336h-2z" />
    <glyph glyph-name="amacron.sc" horiz-adv-x="514" 
d="M219 756h271l-8 -41h-271zM286 579h78l92 -579h-50l-25 157h-275l-88 -157h-56zM131 203h243l-53 336h-2z" />
    <glyph glyph-name="aogonek.sc" horiz-adv-x="514" 
d="M343 -130q0 -42 51 -42q20 0 43 7l-8 -41q-23 -5 -43 -5q-41 0 -65 20t-24 56q0 39 28.5 70.5t80.5 66.5l-25 155h-275l-88 -157h-56l324 579h78l92 -579q-37 -26 -57 -42t-38 -40.5t-18 -47.5zM131 203h243l-53 336h-2z" />
    <glyph glyph-name="aring.sc" horiz-adv-x="514" 
d="M349 656q-46 0 -73 26.5t-27 70.5t27 70.5t73 26.5q45 0 73 -27t28 -70q0 -44 -27.5 -70.5t-73.5 -26.5zM349 815q-29 0 -46 -17t-17 -45q0 -29 17 -46t46 -17t46 17t17 46q0 28 -17.5 45t-45.5 17zM406 0l-25 157h-275l-88 -157h-56l324 579h78l92 -579h-50zM131 203
h243l-53 336h-2z" />
    <glyph glyph-name="aringacute.sc" horiz-adv-x="514" 
d="M518 1096l-126 -153h-55l122 153h59zM349 656q-46 0 -73 26.5t-27 70.5t27 70.5t73 26.5q45 0 73 -27t28 -70q0 -44 -27.5 -70.5t-73.5 -26.5zM349 815q-29 0 -46 -17t-17 -45q0 -29 17 -46t46 -17t46 17t17 46q0 28 -17.5 45t-45.5 17zM286 579h78l92 -579h-50l-25 157
h-275l-88 -157h-56zM131 203h243l-53 336h-2z" />
    <glyph glyph-name="atilde.sc" horiz-adv-x="514" 
d="M487 825h41q-20 -86 -44.5 -121.5t-73.5 -35.5q-25 0 -41.5 12.5t-30.5 47.5q-1 3 -4 10t-4 10t-3.5 9t-4 9t-4.5 7.5t-5.5 6t-6 4t-7.5 3.5t-9 1q-24 0 -39 -27t-31 -90h-41q19 83 45.5 120t71.5 37q26 0 41.5 -13.5t31.5 -48.5q2 -4 6 -13.5t5.5 -13t5.5 -10t6.5 -9
t7 -6.5t9 -5t10.5 -1q24 0 38.5 27t29.5 90zM286 579h78l92 -579h-50l-25 157h-275l-88 -157h-56zM131 203h243l-53 336h-2z" />
    <glyph glyph-name="ae.sc" horiz-adv-x="656" 
d="M665 532h-261l-15 -213h231l-10 -47h-225l-16 -225h199l-9 -47h-245l12 159h-207l-99 -159h-58l364 579h349zM330 204l25 332h-2l-206 -332h183z" />
    <glyph glyph-name="aeacute.sc" horiz-adv-x="656" 
d="M584 825l-126 -153h-55l122 153h59zM665 532h-261l-15 -213h231l-10 -47h-225l-16 -225h199l-9 -47h-245l12 159h-207l-99 -159h-58l364 579h349zM330 204l25 332h-2l-206 -332h183z" />
    <glyph glyph-name="b.sc" horiz-adv-x="523" 
d="M360 298q95 -26 95 -128q0 -85 -57.5 -127.5t-161.5 -42.5h-186l116 579h153q83 0 125.5 -35t42.5 -96q0 -58 -34.5 -97t-92.5 -53zM208 535l-43 -215h112q71 0 113.5 32t42.5 88q0 95 -125 95h-100zM233 44q168 0 168 120q0 112 -136 112h-109l-46 -232h123z" />
    <glyph glyph-name="c.sc" horiz-adv-x="604" 
d="M282 -13q-112 0 -166.5 65t-54.5 171q0 157 82.5 262.5t221.5 105.5q99 0 155.5 -51t56.5 -142q0 -10 -2 -26h-49q1 9 1 20q0 71 -43 112t-120 41q-119 0 -184 -90.5t-65 -225.5q0 -196 167 -196q81 0 136.5 41.5t74.5 117.5h52q-21 -98 -90 -151.5t-173 -53.5z" />
    <glyph glyph-name="cacute.sc" horiz-adv-x="604" 
d="M329 672l122 153h59l-126 -153h-55zM282 -13q-112 0 -166.5 65t-54.5 171q0 157 82.5 262.5t221.5 105.5q99 0 155.5 -51t56.5 -142q0 -10 -2 -26h-49q1 9 1 20q0 71 -43 112t-120 41q-119 0 -184 -90.5t-65 -225.5q0 -196 167 -196q81 0 136.5 41.5t74.5 117.5h52
q-21 -98 -90 -151.5t-173 -53.5z" />
    <glyph glyph-name="ccaron.sc" horiz-adv-x="604" 
d="M554 824l-136 -154h-64l-74 154h49l59 -126l111 126h55zM282 -13q-112 0 -166.5 65t-54.5 171q0 157 82.5 262.5t221.5 105.5q99 0 155.5 -51t56.5 -142q0 -10 -2 -26h-49q1 9 1 20q0 71 -43 112t-120 41q-119 0 -184 -90.5t-65 -225.5q0 -196 167 -196q81 0 136.5 41.5
t74.5 117.5h52q-21 -98 -90 -151.5t-173 -53.5z" />
    <glyph glyph-name="ccedilla.sc" horiz-adv-x="604" 
d="M575 372h-49q1 9 1 20q0 71 -43 112t-120 41q-119 0 -184 -90.5t-65 -225.5q0 -196 167 -196q81 0 136.5 41.5t74.5 117.5h52q-19 -93 -82 -146t-159 -58l-22 -45q91 -5 91 -73q0 -40 -30.5 -61t-81.5 -21q-45 0 -76 14l14 37q31 -12 61 -12q31 0 50.5 12t19.5 33
q0 40 -81 40h-27l38 76q-100 6 -149.5 70t-49.5 165q0 157 82.5 262.5t221.5 105.5q99 0 155.5 -51t56.5 -142q0 -10 -2 -26z" />
    <glyph glyph-name="ccircumflex.sc" horiz-adv-x="604" 
d="M247 671l136 154h64l74 -154h-49l-59 126l-111 -126h-55zM282 -13q-112 0 -166.5 65t-54.5 171q0 157 82.5 262.5t221.5 105.5q99 0 155.5 -51t56.5 -142q0 -10 -2 -26h-49q1 9 1 20q0 71 -43 112t-120 41q-119 0 -184 -90.5t-65 -225.5q0 -196 167 -196q81 0 136.5 41.5
t74.5 117.5h52q-21 -98 -90 -151.5t-173 -53.5z" />
    <glyph glyph-name="cdotaccent.sc" horiz-adv-x="604" 
d="M396 707q-19 0 -30.5 11.5t-11.5 29.5q0 19 11.5 31t30.5 12q18 0 30 -12.5t12 -30.5t-12 -29.5t-30 -11.5zM282 -13q-112 0 -166.5 65t-54.5 171q0 157 82.5 262.5t221.5 105.5q99 0 155.5 -51t56.5 -142q0 -10 -2 -26h-49q1 9 1 20q0 71 -43 112t-120 41
q-119 0 -184 -90.5t-65 -225.5q0 -196 167 -196q81 0 136.5 41.5t74.5 117.5h52q-21 -98 -90 -151.5t-173 -53.5z" />
    <glyph glyph-name="d.sc" horiz-adv-x="600" 
d="M50 0l116 579h148q242 0 242 -240q0 -151 -85 -245t-243 -94h-178zM110 47h122q135 0 202.5 78t67.5 206q0 201 -188 201h-107z" />
    <glyph glyph-name="eth.sc" horiz-adv-x="600" 
d="M314 579q242 0 242 -240q0 -151 -85 -245t-243 -94h-178l55 276h-67l8 41h68l52 262h148zM232 47q135 0 202.5 78t67.5 206q0 201 -188 201h-107l-43 -215h169l-8 -41h-169l-46 -229h122z" />
    <glyph glyph-name="dcaron.sc" horiz-adv-x="600" 
d="M544 824l-136 -154h-64l-74 154h49l59 -126l111 126h55zM50 0l116 579h148q242 0 242 -240q0 -151 -85 -245t-243 -94h-178zM110 47h122q135 0 202.5 78t67.5 206q0 201 -188 201h-107z" />
    <glyph glyph-name="dcroat.sc" horiz-adv-x="600" 
d="M314 579q242 0 242 -240q0 -151 -85 -245t-243 -94h-178l55 276h-67l8 41h68l52 262h148zM232 47q135 0 202.5 78t67.5 206q0 201 -188 201h-107l-43 -215h169l-8 -41h-169l-46 -229h122z" />
    <glyph glyph-name="e.sc" horiz-adv-x="475" 
d="M50 0l116 579h328l-10 -47h-277l-42 -212h275l-10 -48h-275l-45 -225h277l-9 -47h-328z" />
    <glyph glyph-name="eacute.sc" horiz-adv-x="475" 
d="M284 672l122 153h59l-126 -153h-55zM50 0l116 579h328l-10 -47h-277l-42 -212h275l-10 -48h-275l-45 -225h277l-9 -47h-328z" />
    <glyph glyph-name="ebreve.sc" horiz-adv-x="475" 
d="M344 670q-61 0 -88.5 29t-27.5 87q0 18 3 39h42q-3 -23 -3 -42q0 -39 17.5 -57.5t57.5 -18.5q51 0 77.5 28.5t42.5 89.5h43q-19 -78 -57 -116.5t-107 -38.5zM50 0l116 579h328l-10 -47h-277l-42 -212h275l-10 -48h-275l-45 -225h277l-9 -47h-328z" />
    <glyph glyph-name="ecaron.sc" horiz-adv-x="475" 
d="M509 824l-136 -154h-64l-74 154h49l59 -126l111 126h55zM50 0l116 579h328l-10 -47h-277l-42 -212h275l-10 -48h-275l-45 -225h277l-9 -47h-328z" />
    <glyph glyph-name="ecircumflex.sc" horiz-adv-x="475" 
d="M202 671l136 154h64l74 -154h-49l-59 126l-111 -126h-55zM50 0l116 579h328l-10 -47h-277l-42 -212h275l-10 -48h-275l-45 -225h277l-9 -47h-328z" />
    <glyph glyph-name="edieresis.sc" horiz-adv-x="475" 
d="M264 696q-19 0 -30.5 11t-11.5 29q0 19 11.5 31t30.5 12q17 0 29 -12.5t12 -30.5t-12 -29t-29 -11zM443 696q-19 0 -30.5 11t-11.5 29q0 19 11.5 31t30.5 12q17 0 29 -12.5t12 -30.5t-12 -29t-29 -11zM50 0l116 579h328l-10 -47h-277l-42 -212h275l-10 -48h-275l-45 -225
h277l-9 -47h-328z" />
    <glyph glyph-name="edotaccent.sc" horiz-adv-x="475" 
d="M351 707q-19 0 -30.5 11.5t-11.5 29.5q0 19 11.5 31t30.5 12q17 0 29.5 -12.5t12.5 -30.5t-12 -29.5t-30 -11.5zM50 0l116 579h328l-10 -47h-277l-42 -212h275l-10 -48h-275l-45 -225h277l-9 -47h-328z" />
    <glyph glyph-name="egrave.sc" horiz-adv-x="475" 
d="M395 672h-47l-73 153h51zM50 0l116 579h328l-10 -47h-277l-42 -212h275l-10 -48h-275l-45 -225h277l-9 -47h-328z" />
    <glyph glyph-name="emacron.sc" horiz-adv-x="475" 
d="M212 715l8 41h271l-8 -41h-271zM50 0l116 579h328l-10 -47h-277l-42 -212h275l-10 -48h-275l-45 -225h277l-9 -47h-328z" />
    <glyph glyph-name="eogonek.sc" horiz-adv-x="475" 
d="M484 532h-277l-42 -212h275l-10 -48h-275l-45 -225h277l-9 -47q-37 -26 -57 -42t-38 -40.5t-18 -47.5q0 -42 51 -42q20 0 43 7l-8 -41q-23 -5 -43 -5q-41 0 -65 20t-24 56q0 38 28 70t78 65h-275l116 579h328z" />
    <glyph glyph-name="uni0259.sc" horiz-adv-x="576" 
d="M330 591q103 0 154 -64.5t51 -171.5q0 -154 -78.5 -261t-203.5 -107q-90 0 -142.5 61t-52.5 170q0 38 6 74h414q4 28 4 64q0 88 -37 138.5t-116 50.5q-140 0 -189 -148h-54q28 92 92 143t152 51zM255 34q82 0 138 58t78 155h-362q-1 -9 -1 -30q0 -84 36.5 -133.5
t110.5 -49.5z" />
    <glyph glyph-name="f.sc" horiz-adv-x="465" 
d="M50 0l116 579h324l-10 -47h-273l-42 -212h271l-10 -48h-271l-54 -272h-51z" />
    <glyph glyph-name="g.sc" horiz-adv-x="613" 
d="M339 252l10 46h222l-8 -39q-56 -272 -279 -272q-115 0 -169 65t-54 177q0 150 84.5 256t223.5 106q99 0 154.5 -52t56.5 -151h-52q0 77 -43 116t-120 39q-118 0 -185 -94.5t-67 -223.5q0 -189 170 -189q98 0 152.5 58t73.5 150l2 8h-172z" />
    <glyph glyph-name="gbreve.sc" horiz-adv-x="613" 
d="M406 670q-61 0 -88.5 29t-27.5 87q0 18 3 39h42q-3 -23 -3 -42q0 -39 17.5 -57.5t57.5 -18.5q51 0 77.5 28.5t42.5 89.5h43q-19 -78 -57 -116.5t-107 -38.5zM339 252l10 46h222l-8 -39q-56 -272 -279 -272q-115 0 -169 65t-54 177q0 150 84.5 256t223.5 106
q99 0 154.5 -52t56.5 -151h-52q0 77 -43 116t-120 39q-118 0 -185 -94.5t-67 -223.5q0 -189 170 -189q98 0 152.5 58t73.5 150l2 8h-172z" />
    <glyph glyph-name="gcircumflex.sc" horiz-adv-x="613" 
d="M430 797l-111 -126h-55l136 154h64l74 -154h-49zM339 252l10 46h222l-8 -39q-56 -272 -279 -272q-115 0 -169 65t-54 177q0 150 84.5 256t223.5 106q99 0 154.5 -52t56.5 -151h-52q0 77 -43 116t-120 39q-118 0 -185 -94.5t-67 -223.5q0 -189 170 -189q98 0 152.5 58
t73.5 150l2 8h-172z" />
    <glyph glyph-name="uni0123.sc" horiz-adv-x="613" 
d="M339 252l10 46h222l-8 -39q-56 -272 -279 -272q-115 0 -169 65t-54 177q0 150 84.5 256t223.5 106q99 0 154.5 -52t56.5 -151h-52q0 77 -43 116t-120 39q-118 0 -185 -94.5t-67 -223.5q0 -189 170 -189q98 0 152.5 58t73.5 150l2 8h-172zM180 -201l59 147h50l-63 -147
h-46z" />
    <glyph glyph-name="gdotaccent.sc" horiz-adv-x="613" 
d="M413 707q-19 0 -30.5 11.5t-11.5 29.5q0 19 11.5 31t30.5 12q17 0 29.5 -12.5t12.5 -30.5t-12 -29.5t-30 -11.5zM339 252l10 46h222l-8 -39q-56 -272 -279 -272q-115 0 -169 65t-54 177q0 150 84.5 256t223.5 106q99 0 154.5 -52t56.5 -151h-52q0 77 -43 116t-120 39
q-118 0 -185 -94.5t-67 -223.5q0 -189 170 -189q98 0 152.5 58t73.5 150l2 8h-172z" />
    <glyph glyph-name="h.sc" horiz-adv-x="599" 
d="M50 0l116 579h51l-52 -259h301l52 259h51l-116 -579h-51l54 272h-301l-54 -272h-51z" />
    <glyph glyph-name="hbar.sc" horiz-adv-x="599" 
d="M518 579h51l-116 -579h-51l54 272h-301l-54 -272h-51l116 579h51l-21 -103h301zM165 320h301l23 115h-301z" />
    <glyph glyph-name="hcircumflex.sc" horiz-adv-x="599" 
d="M243 671l136 154h64l74 -154h-49l-59 126l-111 -126h-55zM50 0l116 579h51l-52 -259h301l52 259h51l-116 -579h-51l54 272h-301l-54 -272h-51z" />
    <glyph glyph-name="i.sc" horiz-adv-x="247" 
d="M50 0l116 579h51l-116 -579h-51z" />
    <glyph glyph-name="dotlessi.sc" horiz-adv-x="247" 
d="M50 0l116 579h51l-116 -579h-51z" />
    <glyph glyph-name="iacute.sc" horiz-adv-x="247" 
d="M172 672l106 153h56l-110 -153h-52zM50 0l116 579h51l-116 -579h-51z" />
    <glyph glyph-name="ibreve.sc" horiz-adv-x="247" 
d="M210 670q-90 0 -90 96q0 26 6 59h40q-7 -40 -7 -59q0 -60 51 -60q38 0 59 28t34 91h42q-16 -80 -48 -117.5t-87 -37.5zM50 0l116 579h51l-116 -579h-51z" />
    <glyph glyph-name="icircumflex.sc" horiz-adv-x="247" 
d="M85 671l122 154h58l60 -154h-46l-47 122l-97 -122h-50zM50 0l116 579h51l-116 -579h-51z" />
    <glyph glyph-name="idieresis.sc" horiz-adv-x="247" 
d="M156 697q-17 0 -27.5 10t-10.5 27q0 16 10.5 26t27.5 10q16 0 26.5 -10t10.5 -26t-10.5 -26.5t-26.5 -10.5zM280 697q-17 0 -27.5 10.5t-10.5 26.5t10.5 26t27.5 10q16 0 26.5 -10t10.5 -26t-10.5 -26.5t-26.5 -10.5zM50 0l116 579h51l-116 -579h-51z" />
    <glyph glyph-name="i.sc.loclTRK" horiz-adv-x="247" 
d="M225 705q-19 0 -30.5 11.5t-11.5 29.5q0 19 11.5 31t30.5 12q17 0 29.5 -12.5t12.5 -30.5t-12 -29.5t-30 -11.5zM50 0l116 579h51l-116 -579h-51z" />
    <glyph glyph-name="igrave.sc" horiz-adv-x="247" 
d="M247 672h-46l-55 153h50zM50 0l116 579h51l-116 -579h-51z" />
    <glyph glyph-name="ij.sc" horiz-adv-x="554" 
d="M50 0l116 579h51l-116 -579h-51zM277 -2q-29 0 -57 5l9 47q18 -3 38 -3q65 0 98 29.5t47 99.5l81 403h51l-84 -421q-17 -83 -60.5 -121.5t-122.5 -38.5z" />
    <glyph glyph-name="imacron.sc" horiz-adv-x="247" 
d="M122 715l8 41h191l-8 -41h-191zM50 0l116 579h51l-116 -579h-51z" />
    <glyph glyph-name="iogonek.sc" horiz-adv-x="247" 
d="M217 579l-116 -579q-90 -94 -90 -137q0 -35 39 -35q20 0 39 8l-9 -40q-20 -7 -42 -7q-33 0 -52.5 17.5t-19.5 48.5q0 60 89 145h-5l116 579h51z" />
    <glyph glyph-name="itilde.sc" horiz-adv-x="247" 
d="M264 668q-26 0 -38 14.5t-17 47.5q-1 4 -2.5 13t-2.5 12.5t-2.5 10.5t-3.5 10t-5 7t-6.5 5.5t-8.5 1.5q-17 0 -28 -27t-25 -92h-39q19 86 40 121.5t57 35.5q28 0 39.5 -16.5t16.5 -52.5q4 -20 6 -28.5t8.5 -16.5t15.5 -8q18 0 29.5 27.5t24.5 91.5h39q-19 -87 -39.5 -122
t-58.5 -35zM50 0l116 579h51l-116 -579h-51z" />
    <glyph glyph-name="j.sc" horiz-adv-x="307" 
d="M30 -2q-29 0 -57 5l9 47q18 -3 38 -3q65 0 98 29.5t47 99.5l81 403h51l-84 -421q-17 -83 -60.5 -121.5t-122.5 -38.5z" />
    <glyph glyph-name="uni006A0301.sc" horiz-adv-x="307" 
d="M253 672l106 153h56l-110 -153h-52zM30 -2q-29 0 -57 5l9 47q18 -3 38 -3q65 0 98 29.5t47 99.5l81 403h51l-84 -421q-17 -83 -60.5 -121.5t-122.5 -38.5z" />
    <glyph glyph-name="jcircumflex.sc" horiz-adv-x="307" 
d="M166 671l122 154h58l60 -154h-46l-47 122l-97 -122h-50zM30 -2q-29 0 -57 5l9 47q18 -3 38 -3q65 0 98 29.5t47 99.5l81 403h51l-84 -421q-17 -83 -60.5 -121.5t-122.5 -38.5z" />
    <glyph glyph-name="k.sc" horiz-adv-x="486" 
d="M507 579l-295 -267l211 -312h-60l-202 298l-60 -298h-51l116 579h51l-50 -247l275 247h65z" />
    <glyph glyph-name="uni0137.sc" horiz-adv-x="486" 
d="M507 579l-295 -267l211 -312h-60l-202 298l-60 -298h-51l116 579h51l-50 -247l275 247h65zM143 -201l59 147h50l-63 -147h-46z" />
    <glyph glyph-name="kgreenlandic.sc" horiz-adv-x="486" 
d="M507 579l-295 -267l211 -312h-60l-202 298l-60 -298h-51l116 579h51l-50 -247l275 247h65z" />
    <glyph glyph-name="l.sc" horiz-adv-x="418" 
d="M50 0l116 579h51l-106 -531h249l-10 -48h-300z" />
    <glyph glyph-name="lacute.sc" horiz-adv-x="418" 
d="M180 672l122 153h59l-126 -153h-55zM50 0l116 579h51l-106 -531h249l-10 -48h-300z" />
    <glyph glyph-name="lcaron.sc" horiz-adv-x="418" 
d="M50 0l116 579h51l-106 -531h249l-10 -48h-300zM245 414l64 165h47l-69 -165h-42z" />
    <glyph glyph-name="uni013C.sc" horiz-adv-x="418" 
d="M50 0l116 579h51l-106 -531h249l-10 -48h-300zM124 -201l59 147h50l-63 -147h-46z" />
    <glyph glyph-name="ldot.sc" horiz-adv-x="399" 
d="M50 0l116 579h51l-106 -531h249l-10 -48h-300zM319 291q-19 0 -30.5 11t-11.5 30t11.5 31t30.5 12q18 0 30 -12t12 -31q0 -18 -12 -29.5t-30 -11.5z" />
    <glyph glyph-name="lslash.sc" horiz-adv-x="418" 
d="M111 48h249l-10 -48h-300l54 270l-76 -45l11 53l76 44l51 257h51l-45 -227l165 99l-11 -54l-165 -98z" />
    <glyph glyph-name="m.sc" horiz-adv-x="742" 
d="M50 0l116 579h63l109 -490l305 490h69l-116 -579h-49l100 497l-309 -497h-29l-110 497l-100 -497h-49z" />
    <glyph glyph-name="n.sc" horiz-adv-x="622" 
d="M50 0l116 579h54l222 -503l101 503h49l-116 -579h-54l-222 503l-101 -503h-49z" />
    <glyph glyph-name="nacute.sc" horiz-adv-x="622" 
d="M343 672l122 153h59l-126 -153h-55zM50 0l116 579h54l222 -503l101 503h49l-116 -579h-54l-222 503l-101 -503h-49z" />
    <glyph glyph-name="napostrophe.sc" horiz-adv-x="751" 
d="M83 425l121 281h55l-132 -281h-44zM199 0l116 579h54l222 -503l101 503h49l-116 -579h-54l-222 503l-101 -503h-49z" />
    <glyph glyph-name="ncaron.sc" horiz-adv-x="622" 
d="M568 824l-136 -154h-64l-74 154h49l59 -126l111 126h55zM50 0l116 579h54l222 -503l101 503h49l-116 -579h-54l-222 503l-101 -503h-49z" />
    <glyph glyph-name="uni0146.sc" horiz-adv-x="622" 
d="M50 0l116 579h54l222 -503l101 503h49l-116 -579h-54l-222 503l-101 -503h-49zM177 -201l59 147h50l-63 -147h-46z" />
    <glyph glyph-name="eng.sc" horiz-adv-x="622" 
d="M543 579h49l-130 -650q-10 -50 -36.5 -73t-74.5 -23q-23 0 -44 3l9 44q9 -2 23 -2q34 0 52 16t25 51l11 55l-227 503l-101 -503h-49l116 579h54l224 -495z" />
    <glyph glyph-name="ntilde.sc" horiz-adv-x="622" 
d="M470 668q-25 0 -41.5 12.5t-30.5 47.5q-1 3 -4 10t-4 10t-3.5 9t-4 9t-4.5 7.5t-5.5 6t-6 4t-7.5 3.5t-9 1q-24 0 -39 -27t-31 -90h-41q19 83 45.5 120t71.5 37q26 0 41.5 -13.5t31.5 -48.5q2 -4 6 -13.5t5.5 -13t5.5 -10t6.5 -9t7 -6.5t9 -5t10.5 -1q24 0 38.5 27
t29.5 90h41q-20 -86 -44.5 -121.5t-73.5 -35.5zM50 0l116 579h54l222 -503l101 503h49l-116 -579h-54l-222 503l-101 -503h-49z" />
    <glyph glyph-name="o.sc" horiz-adv-x="628" 
d="M285 -13q-112 0 -168 66.5t-56 177.5q0 96 35.5 177.5t106 132t161.5 50.5q112 0 167 -66t55 -178q0 -149 -82.5 -254.5t-218.5 -105.5zM289 36q114 0 178.5 91t64.5 221q0 194 -172 194q-115 0 -180 -91t-65 -222q0 -193 174 -193z" />
    <glyph glyph-name="oacute.sc" horiz-adv-x="628" 
d="M345 672l122 153h59l-126 -153h-55zM285 -13q-112 0 -168 66.5t-56 177.5q0 96 35.5 177.5t106 132t161.5 50.5q112 0 167 -66t55 -178q0 -149 -82.5 -254.5t-218.5 -105.5zM289 36q114 0 178.5 91t64.5 221q0 194 -172 194q-115 0 -180 -91t-65 -222q0 -193 174 -193z
" />
    <glyph glyph-name="obreve.sc" horiz-adv-x="628" 
d="M405 670q-61 0 -88.5 29t-27.5 87q0 18 3 39h42q-3 -23 -3 -42q0 -39 17.5 -57.5t57.5 -18.5q51 0 77.5 28.5t42.5 89.5h43q-19 -78 -57 -116.5t-107 -38.5zM285 -13q-112 0 -168 66.5t-56 177.5q0 96 35.5 177.5t106 132t161.5 50.5q112 0 167 -66t55 -178
q0 -149 -82.5 -254.5t-218.5 -105.5zM289 36q114 0 178.5 91t64.5 221q0 194 -172 194q-115 0 -180 -91t-65 -222q0 -193 174 -193z" />
    <glyph glyph-name="ocircumflex.sc" horiz-adv-x="628" 
d="M263 671l136 154h64l74 -154h-49l-59 126l-111 -126h-55zM285 -13q-112 0 -168 66.5t-56 177.5q0 96 35.5 177.5t106 132t161.5 50.5q112 0 167 -66t55 -178q0 -149 -82.5 -254.5t-218.5 -105.5zM289 36q114 0 178.5 91t64.5 221q0 194 -172 194q-115 0 -180 -91
t-65 -222q0 -193 174 -193z" />
    <glyph glyph-name="odieresis.sc" horiz-adv-x="628" 
d="M325 696q-19 0 -30.5 11t-11.5 29q0 19 11.5 31t30.5 12q17 0 29 -12.5t12 -30.5t-12 -29t-29 -11zM504 696q-19 0 -30.5 11t-11.5 29q0 19 11.5 31t30.5 12q17 0 29 -12.5t12 -30.5t-12 -29t-29 -11zM285 -13q-112 0 -168 66.5t-56 177.5q0 96 35.5 177.5t106 132
t161.5 50.5q112 0 167 -66t55 -178q0 -149 -82.5 -254.5t-218.5 -105.5zM289 36q114 0 178.5 91t64.5 221q0 194 -172 194q-115 0 -180 -91t-65 -222q0 -193 174 -193z" />
    <glyph glyph-name="ograve.sc" horiz-adv-x="628" 
d="M456 672h-47l-73 153h51zM285 -13q-112 0 -168 66.5t-56 177.5q0 96 35.5 177.5t106 132t161.5 50.5q112 0 167 -66t55 -178q0 -149 -82.5 -254.5t-218.5 -105.5zM289 36q114 0 178.5 91t64.5 221q0 194 -172 194q-115 0 -180 -91t-65 -222q0 -193 174 -193z" />
    <glyph glyph-name="ohungarumlaut.sc" horiz-adv-x="628" 
d="M302 672l139 153h58l-147 -153h-50zM432 672l139 153h58l-146 -153h-51zM285 -13q-112 0 -168 66.5t-56 177.5q0 96 35.5 177.5t106 132t161.5 50.5q112 0 167 -66t55 -178q0 -149 -82.5 -254.5t-218.5 -105.5zM289 36q114 0 178.5 91t64.5 221q0 194 -172 194
q-115 0 -180 -91t-65 -222q0 -193 174 -193z" />
    <glyph glyph-name="omacron.sc" horiz-adv-x="628" 
d="M273 715l8 41h271l-8 -41h-271zM285 -13q-112 0 -168 66.5t-56 177.5q0 96 35.5 177.5t106 132t161.5 50.5q112 0 167 -66t55 -178q0 -149 -82.5 -254.5t-218.5 -105.5zM289 36q114 0 178.5 91t64.5 221q0 194 -172 194q-115 0 -180 -91t-65 -222q0 -193 174 -193z" />
    <glyph glyph-name="oslash.sc" horiz-adv-x="628" 
d="M644 579l-90 -88q32 -58 32 -144q0 -149 -82.5 -254.5t-218.5 -105.5q-108 0 -168 66l-53 -53h-60l89 87q-32 58 -32 144q0 96 35.5 177.5t106 132t161.5 50.5q109 0 166 -66l54 54h60zM360 542q-115 0 -180 -91t-65 -222q0 -63 18 -103l360 363q-43 53 -133 53zM289 36
q114 0 178.5 91t64.5 221q0 63 -18 105l-360 -363q43 -54 135 -54z" />
    <glyph glyph-name="oslashacute.sc" horiz-adv-x="628" 
d="M526 825l-126 -153h-55l122 153h59zM644 579l-90 -88q32 -58 32 -144q0 -149 -82.5 -254.5t-218.5 -105.5q-108 0 -168 66l-53 -53h-60l89 87q-32 58 -32 144q0 96 35.5 177.5t106 132t161.5 50.5q109 0 166 -66l54 54h60zM360 542q-115 0 -180 -91t-65 -222
q0 -63 18 -103l360 363q-43 53 -133 53zM289 36q114 0 178.5 91t64.5 221q0 63 -18 105l-360 -363q43 -54 135 -54z" />
    <glyph glyph-name="otilde.sc" horiz-adv-x="628" 
d="M472 668q-25 0 -41.5 12.5t-30.5 47.5q-1 3 -4 10t-4 10t-3.5 9t-4 9t-4.5 7.5t-5.5 6t-6 4t-7.5 3.5t-9 1q-24 0 -39 -27t-31 -90h-41q19 83 45.5 120t71.5 37q26 0 41.5 -13.5t31.5 -48.5q2 -4 6 -13.5t5.5 -13t5.5 -10t6.5 -9t7 -6.5t9 -5t10.5 -1q24 0 38.5 27
t29.5 90h41q-20 -86 -44.5 -121.5t-73.5 -35.5zM285 -13q-112 0 -168 66.5t-56 177.5q0 96 35.5 177.5t106 132t161.5 50.5q112 0 167 -66t55 -178q0 -149 -82.5 -254.5t-218.5 -105.5zM289 36q114 0 178.5 91t64.5 221q0 194 -172 194q-115 0 -180 -91t-65 -222
q0 -193 174 -193z" />
    <glyph glyph-name="oe.sc" horiz-adv-x="871" 
d="M880 532h-277l-42 -213h274l-10 -47h-274l-45 -225h277l-9 -47h-326l16 79q-80 -90 -199 -90q-102 0 -152.5 66t-50.5 177q0 96 34.5 177t102 131.5t155.5 50.5q143 0 186 -133l24 121h326zM270 37q114 0 178.5 90.5t64.5 220.5q0 194 -162 194q-110 0 -172.5 -91
t-62.5 -222q0 -192 154 -192z" />
    <glyph glyph-name="p.sc" horiz-adv-x="493" 
d="M50 0l116 579h161q178 0 178 -136q0 -81 -54.5 -127t-145.5 -46h-150l-54 -270h-51zM164 316h132q74 0 114.5 31t40.5 90q0 96 -131 96h-112z" />
    <glyph glyph-name="thorn.sc" horiz-adv-x="494" 
d="M50 0l116 579h51l-21 -105h85q198 0 198 -156q0 -100 -60.5 -153.5t-169.5 -53.5h-126l-22 -111h-51zM132 157h109q89 0 137 41t48 118q0 56 -35.5 84t-115.5 28h-88z" />
    <glyph glyph-name="q.sc" horiz-adv-x="628" 
d="M586 347q0 -124 -59 -221t-161 -127l47 -103l-46 -26l-51 119q-20 -2 -31 -2q-112 0 -168 66.5t-56 177.5q0 96 35.5 177.5t106 132t161.5 50.5q112 0 167 -66t55 -178zM346 43q88 22 137 107.5t49 197.5q0 194 -172 194q-115 0 -180 -91t-65 -222q0 -193 174 -193h6
l-32 74l42 24z" />
    <glyph glyph-name="r.sc" horiz-adv-x="526" 
d="M519 440q0 -80 -56.5 -124t-153.5 -45l159 -271h-55l-159 271h-99l-54 -271h-51l116 579h182q171 0 171 -139zM303 315q78 0 121 31t43 92q0 48 -31.5 72t-100.5 24h-127l-44 -219h139z" />
    <glyph glyph-name="racute.sc" horiz-adv-x="526" 
d="M489 825l-126 -153h-55l122 153h59zM519 440q0 -80 -56.5 -124t-153.5 -45l159 -271h-55l-159 271h-99l-54 -271h-51l116 579h182q171 0 171 -139zM303 315q78 0 121 31t43 92q0 48 -31.5 72t-100.5 24h-127l-44 -219h139z" />
    <glyph glyph-name="rcaron.sc" horiz-adv-x="526" 
d="M397 670h-64l-74 154h49l59 -126l111 126h55zM348 579q171 0 171 -139q0 -80 -56.5 -124t-153.5 -45l159 -271h-55l-159 271h-99l-54 -271h-51l116 579h182zM303 315q78 0 121 31t43 92q0 48 -31.5 72t-100.5 24h-127l-44 -219h139z" />
    <glyph glyph-name="uni0157.sc" horiz-adv-x="526" 
d="M519 440q0 -80 -56.5 -124t-153.5 -45l159 -271h-55l-159 271h-99l-54 -271h-51l116 579h182q171 0 171 -139zM303 315q78 0 121 31t43 92q0 48 -31.5 72t-100.5 24h-127l-44 -219h139zM168 -201l59 147h50l-63 -147h-46z" />
    <glyph glyph-name="s.sc" horiz-adv-x="509" 
d="M240 -13q-102 0 -157 43t-55 123q0 19 3 39h52q-3 -20 -3 -36q0 -124 160 -124q66 0 109.5 30t43.5 86q0 28 -10 48t-33 34.5t-42.5 22.5t-58.5 21l-9 3q-76 26 -114 59.5t-38 94.5q0 74 53 117t144 43q90 0 138.5 -43t48.5 -114q0 -13 -2 -37h-52q2 26 2 33
q0 53 -35.5 84.5t-99.5 31.5q-63 0 -102.5 -29t-39.5 -85q0 -11 2 -20.5t5 -17t10 -15t11.5 -12.5t15.5 -11t16.5 -9.5t20 -9t21.5 -7.5t24.5 -8t24.5 -9q79 -27 117 -62t38 -97q0 -83 -57 -125t-152 -42z" />
    <glyph glyph-name="sacute.sc" horiz-adv-x="509" 
d="M255 672l122 153h59l-126 -153h-55zM240 -13q-102 0 -157 43t-55 123q0 19 3 39h52q-3 -20 -3 -36q0 -124 160 -124q66 0 109.5 30t43.5 86q0 28 -10 48t-33 34.5t-42.5 22.5t-58.5 21l-9 3q-76 26 -114 59.5t-38 94.5q0 74 53 117t144 43q90 0 138.5 -43t48.5 -114
q0 -13 -2 -37h-52q2 26 2 33q0 53 -35.5 84.5t-99.5 31.5q-63 0 -102.5 -29t-39.5 -85q0 -11 2 -20.5t5 -17t10 -15t11.5 -12.5t15.5 -11t16.5 -9.5t20 -9t21.5 -7.5t24.5 -8t24.5 -9q79 -27 117 -62t38 -97q0 -83 -57 -125t-152 -42z" />
    <glyph glyph-name="scaron.sc" horiz-adv-x="509" 
d="M480 824l-136 -154h-64l-74 154h49l59 -126l111 126h55zM240 -13q-102 0 -157 43t-55 123q0 19 3 39h52q-3 -20 -3 -36q0 -124 160 -124q66 0 109.5 30t43.5 86q0 28 -10 48t-33 34.5t-42.5 22.5t-58.5 21l-9 3q-76 26 -114 59.5t-38 94.5q0 74 53 117t144 43
q90 0 138.5 -43t48.5 -114q0 -13 -2 -37h-52q2 26 2 33q0 53 -35.5 84.5t-99.5 31.5q-63 0 -102.5 -29t-39.5 -85q0 -11 2 -20.5t5 -17t10 -15t11.5 -12.5t15.5 -11t16.5 -9.5t20 -9t21.5 -7.5t24.5 -8t24.5 -9q79 -27 117 -62t38 -97q0 -83 -57 -125t-152 -42z" />
    <glyph glyph-name="scedilla.sc" horiz-adv-x="509" 
d="M470 397h-52q2 26 2 33q0 53 -35.5 84.5t-99.5 31.5q-63 0 -102.5 -29t-39.5 -85q0 -11 2 -20.5t5 -17t10 -15t11.5 -12.5t15.5 -11t16.5 -9.5t20 -9t21.5 -7.5t24.5 -8t24.5 -9q79 -27 117 -62t38 -97q0 -81 -53.5 -122.5t-142.5 -44.5l-22 -44q91 -5 91 -73
q0 -40 -30.5 -61t-81.5 -21q-45 0 -76 14l14 37q31 -12 61 -12q31 0 50.5 12t19.5 33q0 40 -81 40h-27l38 76q-88 7 -134.5 49.5t-46.5 115.5q0 19 3 39h52q-3 -20 -3 -36q0 -124 160 -124q66 0 109.5 30t43.5 86q0 28 -10 48t-33 34.5t-42.5 22.5t-58.5 21l-9 3
q-76 26 -114 59.5t-38 94.5q0 74 53 117t144 43q90 0 138.5 -43t48.5 -114q0 -13 -2 -37z" />
    <glyph glyph-name="scircumflex.sc" horiz-adv-x="509" 
d="M173 671l136 154h64l74 -154h-49l-59 126l-111 -126h-55zM240 -13q-102 0 -157 43t-55 123q0 19 3 39h52q-3 -20 -3 -36q0 -124 160 -124q66 0 109.5 30t43.5 86q0 28 -10 48t-33 34.5t-42.5 22.5t-58.5 21l-9 3q-76 26 -114 59.5t-38 94.5q0 74 53 117t144 43
q90 0 138.5 -43t48.5 -114q0 -13 -2 -37h-52q2 26 2 33q0 53 -35.5 84.5t-99.5 31.5q-63 0 -102.5 -29t-39.5 -85q0 -11 2 -20.5t5 -17t10 -15t11.5 -12.5t15.5 -11t16.5 -9.5t20 -9t21.5 -7.5t24.5 -8t24.5 -9q79 -27 117 -62t38 -97q0 -83 -57 -125t-152 -42z" />
    <glyph glyph-name="uni0219.sc" horiz-adv-x="509" 
d="M240 -13q-102 0 -157 43t-55 123q0 19 3 39h52q-3 -20 -3 -36q0 -124 160 -124q66 0 109.5 30t43.5 86q0 28 -10 48t-33 34.5t-42.5 22.5t-58.5 21l-9 3q-76 26 -114 59.5t-38 94.5q0 74 53 117t144 43q90 0 138.5 -43t48.5 -114q0 -13 -2 -37h-52q2 26 2 33
q0 53 -35.5 84.5t-99.5 31.5q-63 0 -102.5 -29t-39.5 -85q0 -11 2 -20.5t5 -17t10 -15t11.5 -12.5t15.5 -11t16.5 -9.5t20 -9t21.5 -7.5t24.5 -8t24.5 -9q79 -27 117 -62t38 -97q0 -83 -57 -125t-152 -42zM143 -201l59 147h50l-63 -147h-46z" />
    <glyph glyph-name="germandbls.sc" horiz-adv-x="572" 
d="M552 579l-1 -3l-178 -242q69 -10 102.5 -48t33.5 -97q0 -90 -62.5 -141t-165.5 -51q-55 0 -98 9l10 48q45 -8 89 -8q83 0 129 37t46 105q0 107 -137 107q-19 0 -33 -2v2l175 237h-255l-106 -532h-51l116 579h386z" />
    <glyph glyph-name="t.sc" horiz-adv-x="468" 
d="M160 0l106 532h-188l10 47h428l-10 -47h-189l-106 -532h-51z" />
    <glyph glyph-name="tbar.sc" horiz-adv-x="468" 
d="M506 532h-189l-33 -168h117l-8 -41h-118l-64 -323h-51l64 323h-118l8 41h119l33 168h-188l10 47h428z" />
    <glyph glyph-name="tcaron.sc" horiz-adv-x="482" 
d="M490 824l-136 -154h-64l-74 154h49l59 -126l111 126h55zM160 0l106 532h-188l10 47h428l-10 -47h-189l-106 -532h-51z" />
    <glyph glyph-name="uni0163.sc" horiz-adv-x="468" 
d="M88 579h428l-10 -47h-189l-105 -527l-1 -5h-2l-28 -57q91 -5 91 -73q0 -40 -30.5 -61t-81.5 -21q-45 0 -76 14l14 37q31 -12 61 -12q31 0 50.5 12t19.5 33q0 40 -81 40h-27l44 88h-5l106 532h-188z" />
    <glyph glyph-name="uni021B.sc" horiz-adv-x="468" 
d="M160 0l106 532h-188l10 47h428l-10 -47h-189l-106 -532h-51zM93 -201l59 147h50l-63 -147h-46z" />
    <glyph glyph-name="u.sc" horiz-adv-x="555" 
d="M246 -13q-181 0 -181 159q0 30 7 62l74 371h51l-77 -383q-6 -28 -6 -50q0 -56 32 -83t100 -27q73 0 112 31.5t53 98.5l83 413h51l-84 -421q-34 -171 -215 -171z" />
    <glyph glyph-name="uacute.sc" horiz-adv-x="555" 
d="M299 672l122 153h59l-126 -153h-55zM246 -13q-181 0 -181 159q0 30 7 62l74 371h51l-77 -383q-6 -28 -6 -50q0 -56 32 -83t100 -27q73 0 112 31.5t53 98.5l83 413h51l-84 -421q-34 -171 -215 -171z" />
    <glyph glyph-name="ubreve.sc" horiz-adv-x="555" 
d="M359 670q-61 0 -88.5 29t-27.5 87q0 18 3 39h42q-3 -23 -3 -42q0 -39 17.5 -57.5t57.5 -18.5q51 0 77.5 28.5t42.5 89.5h43q-19 -78 -57 -116.5t-107 -38.5zM246 -13q-181 0 -181 159q0 30 7 62l74 371h51l-77 -383q-6 -28 -6 -50q0 -56 32 -83t100 -27q73 0 112 31.5
t53 98.5l83 413h51l-84 -421q-34 -171 -215 -171z" />
    <glyph glyph-name="ucircumflex.sc" horiz-adv-x="555" 
d="M217 671l136 154h64l74 -154h-49l-59 126l-111 -126h-55zM246 -13q-181 0 -181 159q0 30 7 62l74 371h51l-77 -383q-6 -28 -6 -50q0 -56 32 -83t100 -27q73 0 112 31.5t53 98.5l83 413h51l-84 -421q-34 -171 -215 -171z" />
    <glyph glyph-name="udieresis.sc" horiz-adv-x="555" 
d="M279 696q-19 0 -30.5 11t-11.5 29q0 19 11.5 31t30.5 12q17 0 29 -12.5t12 -30.5t-12 -29t-29 -11zM458 696q-19 0 -30.5 11t-11.5 29q0 19 11.5 31t30.5 12q17 0 29 -12.5t12 -30.5t-12 -29t-29 -11zM246 -13q-181 0 -181 159q0 30 7 62l74 371h51l-77 -383
q-6 -28 -6 -50q0 -56 32 -83t100 -27q73 0 112 31.5t53 98.5l83 413h51l-84 -421q-34 -171 -215 -171z" />
    <glyph glyph-name="ugrave.sc" horiz-adv-x="555" 
d="M410 672h-47l-73 153h51zM246 -13q-181 0 -181 159q0 30 7 62l74 371h51l-77 -383q-6 -28 -6 -50q0 -56 32 -83t100 -27q73 0 112 31.5t53 98.5l83 413h51l-84 -421q-34 -171 -215 -171z" />
    <glyph glyph-name="uhungarumlaut.sc" horiz-adv-x="555" 
d="M256 672l139 153h58l-147 -153h-50zM386 672l139 153h58l-146 -153h-51zM246 -13q-181 0 -181 159q0 30 7 62l74 371h51l-77 -383q-6 -28 -6 -50q0 -56 32 -83t100 -27q73 0 112 31.5t53 98.5l83 413h51l-84 -421q-34 -171 -215 -171z" />
    <glyph glyph-name="umacron.sc" horiz-adv-x="555" 
d="M227 715l8 41h271l-8 -41h-271zM246 -13q-181 0 -181 159q0 30 7 62l74 371h51l-77 -383q-6 -28 -6 -50q0 -56 32 -83t100 -27q73 0 112 31.5t53 98.5l83 413h51l-84 -421q-34 -171 -215 -171z" />
    <glyph glyph-name="uogonek.sc" horiz-adv-x="555" 
d="M494 579h51l-84 -421q-11 -56 -35 -91.5t-69 -66.5q-37 -26 -57 -42t-38 -40.5t-18 -47.5q0 -42 51 -42q20 0 43 7l-8 -41q-23 -5 -43 -5q-41 0 -65 20t-24 56q0 60 91 125q-19 -3 -43 -3q-181 0 -181 159q0 30 7 62l74 371h51l-77 -383q-6 -28 -6 -50q0 -56 32 -83
t100 -27q73 0 112 31.5t53 98.5z" />
    <glyph glyph-name="uring.sc" horiz-adv-x="555" 
d="M365 656q-46 0 -73 26.5t-27 70.5t27 70.5t73 26.5q45 0 73 -27t28 -70q0 -44 -27.5 -70.5t-73.5 -26.5zM365 690q29 0 46 17t17 46q0 28 -17.5 45t-45.5 17q-29 0 -46 -17t-17 -45q0 -29 17 -46t46 -17zM246 -13q-181 0 -181 159q0 30 7 62l74 371h51l-77 -383
q-6 -28 -6 -50q0 -56 32 -83t100 -27q73 0 112 31.5t53 98.5l83 413h51l-84 -421q-34 -171 -215 -171z" />
    <glyph glyph-name="utilde.sc" horiz-adv-x="555" 
d="M426 668q-25 0 -41.5 12.5t-30.5 47.5q-1 3 -4 10t-4 10t-3.5 9t-4 9t-4.5 7.5t-5.5 6t-6 4t-7.5 3.5t-9 1q-24 0 -39 -27t-31 -90h-41q19 83 45.5 120t71.5 37q26 0 41.5 -13.5t31.5 -48.5q2 -4 6 -13.5t5.5 -13t5.5 -10t6.5 -9t7 -6.5t9 -5t10.5 -1q24 0 38.5 27
t29.5 90h41q-20 -86 -44.5 -121.5t-73.5 -35.5zM246 -13q-181 0 -181 159q0 30 7 62l74 371h51l-77 -383q-6 -28 -6 -50q0 -56 32 -83t100 -27q73 0 112 31.5t53 98.5l83 413h51l-84 -421q-34 -171 -215 -171z" />
    <glyph glyph-name="v.sc" horiz-adv-x="508" 
d="M510 579h56l-333 -579h-53l-102 579h51l87 -516z" />
    <glyph glyph-name="w.sc" horiz-adv-x="747" 
d="M753 579h52l-282 -579h-56l-39 508l-244 -508h-54l-52 579h48l44 -501l241 501h58l40 -499z" />
    <glyph glyph-name="wacute.sc" horiz-adv-x="747" 
d="M575 825l-126 -153h-55l122 153h59zM753 579h52l-282 -579h-56l-39 508l-244 -508h-54l-52 579h48l44 -501l241 501h58l40 -499z" />
    <glyph glyph-name="wcircumflex.sc" horiz-adv-x="747" 
d="M478 797l-111 -126h-55l136 154h64l74 -154h-49zM753 579h52l-282 -579h-56l-39 508l-244 -508h-54l-52 579h48l44 -501l241 501h58l40 -499z" />
    <glyph glyph-name="wdieresis.sc" horiz-adv-x="747" 
d="M374 696q-19 0 -30.5 11t-11.5 29q0 19 11.5 31t30.5 12q17 0 29 -12.5t12 -30.5t-12 -29t-29 -11zM553 696q-19 0 -30.5 11t-11.5 29q0 19 11.5 31t30.5 12q17 0 29 -12.5t12 -30.5t-12 -29t-29 -11zM753 579h52l-282 -579h-56l-39 508l-244 -508h-54l-52 579h48
l44 -501l241 501h58l40 -499z" />
    <glyph glyph-name="wgrave.sc" horiz-adv-x="747" 
d="M505 672h-47l-73 153h51zM753 579h52l-282 -579h-56l-39 508l-244 -508h-54l-52 579h48l44 -501l241 501h58l40 -499z" />
    <glyph glyph-name="x.sc" horiz-adv-x="547" 
d="M-33 0l282 309l-158 270h54l138 -237l210 237h63l-247 -275l175 -304h-55l-157 269l-241 -269h-64z" />
    <glyph glyph-name="y.sc" horiz-adv-x="464" 
d="M160 0l50 250l-132 329h52l111 -276l220 276h61l-262 -329l-50 -250h-50z" />
    <glyph glyph-name="yacute.sc" horiz-adv-x="464" 
d="M252 672l122 153h59l-126 -153h-55zM160 0l50 250l-132 329h52l111 -276l220 276h61l-262 -329l-50 -250h-50z" />
    <glyph glyph-name="ycircumflex.sc" horiz-adv-x="464" 
d="M170 671l136 154h64l74 -154h-49l-59 126l-111 -126h-55zM160 0l50 250l-132 329h52l111 -276l220 276h61l-262 -329l-50 -250h-50z" />
    <glyph glyph-name="ydieresis.sc" horiz-adv-x="464" 
d="M232 696q-19 0 -30.5 11t-11.5 29q0 19 11.5 31t30.5 12q17 0 29 -12.5t12 -30.5t-12 -29t-29 -11zM411 696q-19 0 -30.5 11t-11.5 29q0 19 11.5 31t30.5 12q17 0 29 -12.5t12 -30.5t-12 -29t-29 -11zM160 0l50 250l-132 329h52l111 -276l220 276h61l-262 -329l-50 -250
h-50z" />
    <glyph glyph-name="ygrave.sc" horiz-adv-x="464" 
d="M363 672h-47l-73 153h51zM160 0l50 250l-132 329h52l111 -276l220 276h61l-262 -329l-50 -250h-50z" />
    <glyph glyph-name="z.sc" horiz-adv-x="476" 
d="M-25 0l429 532h-312l10 47h403l-430 -532h337l-9 -47h-428z" />
    <glyph glyph-name="zacute.sc" horiz-adv-x="476" 
d="M253 672l122 153h59l-126 -153h-55zM-25 0l429 532h-312l10 47h403l-430 -532h337l-9 -47h-428z" />
    <glyph glyph-name="zcaron.sc" horiz-adv-x="476" 
d="M478 824l-136 -154h-64l-74 154h49l59 -126l111 126h55zM-25 0l429 532h-312l10 47h403l-430 -532h337l-9 -47h-428z" />
    <glyph glyph-name="zdotaccent.sc" horiz-adv-x="476" 
d="M320 707q-19 0 -30.5 11.5t-11.5 29.5q0 19 11.5 31t30.5 12q18 0 30 -12.5t12 -30.5t-12 -29.5t-30 -11.5zM-25 0l429 532h-312l10 47h403l-430 -532h337l-9 -47h-428z" />
    <glyph glyph-name="m.sc.ss01" horiz-adv-x="691" 
d="M50 0l116 579h60l127 -272l235 272h73l-116 -579h-49l103 516l-243 -280h-24l-130 280l-103 -516h-49z" />
    <glyph glyph-name="q.sc.ss02" horiz-adv-x="628" 
d="M586 347q0 -121 -56 -216.5t-154 -128.5l40 -115l-49 -18l-38 121q-21 -3 -44 -3q-112 0 -168 66.5t-56 177.5q0 96 35.5 177.5t106 132t161.5 50.5q112 0 167 -66t55 -178zM289 36q114 0 178.5 91t64.5 221q0 194 -172 194q-115 0 -180 -91t-65 -222q0 -193 174 -193z
" />
    <glyph glyph-name="oslash.sc.ss04" horiz-adv-x="628" 
d="M645 590l-93 -95q34 -59 34 -148q0 -149 -82.5 -254.5t-218.5 -105.5q-103 0 -162 59l-86 -89l-33 32l91 95q-34 59 -34 147q0 96 35.5 177.5t106 132t161.5 50.5q104 0 161 -59l85 90zM289 36q114 0 178.5 91t64.5 221q0 194 -172 194q-115 0 -180 -91t-65 -222
q0 -193 174 -193z" />
    <glyph glyph-name="A.subs" horiz-adv-x="359" 
d="M237 -120l-16 101h-186l-56 -101h-44l218 388h62l64 -388h-42zM56 17h159l-35 219h-2z" />
    <glyph glyph-name="B.subs" horiz-adv-x="373" 
d="M219 77q63 -19 63 -84q0 -113 -153 -113h-127l77 388h104q57 0 88 -24t31 -68q0 -79 -83 -99zM113 234l-27 -137h74q97 0 97 76q0 61 -79 61h-65zM130 -86q108 0 108 78q0 73 -82 73h-77l-30 -151h81z" />
    <glyph glyph-name="C.subs" horiz-adv-x="423" 
d="M158 -129q-71 0 -112 44t-41 123q0 97 59 168t160 71q63 0 101.5 -35.5t37.5 -100.5q0 -6 -1 -12h-44q7 111 -101 111q-79 0 -124.5 -59.5t-45.5 -139.5q0 -63 30 -97.5t84 -34.5q52 0 88 26.5t48 75.5h43q-15 -68 -63.5 -104t-118.5 -36z" />
    <glyph glyph-name="D.subs" horiz-adv-x="425" 
d="M2 -120l77 388h109q87 0 125 -40t38 -120q0 -98 -57 -163t-157 -65h-135zM50 -82h89q81 0 125 53.5t44 136.5q0 61 -28.5 92t-92.5 31h-74z" />
    <glyph glyph-name="E.subs" horiz-adv-x="338" 
d="M2 -120l77 388h227l-7 -37h-186l-27 -134h184l-8 -38h-184l-28 -141h186l-7 -38h-227z" />
    <glyph glyph-name="F.subs" horiz-adv-x="329" 
d="M2 -120l77 388h223l-7 -37h-182l-27 -134h181l-8 -38h-181l-35 -179h-41z" />
    <glyph glyph-name="G.subs" horiz-adv-x="429" 
d="M193 43l8 38h155l-5 -26q-36 -184 -189 -184q-79 0 -118 46t-39 121q0 99 58.5 169t153.5 70q68 0 107 -35t39 -103h-42q0 52 -29 76.5t-76 24.5q-76 0 -122.5 -57.5t-46.5 -142.5q0 -131 117 -131q61 0 96.5 37t46.5 97h-114z" />
    <glyph glyph-name="H.subs" horiz-adv-x="429" 
d="M2 -120l77 388h41l-34 -171h199l34 171h41l-77 -388h-41l35 179h-199l-35 -179h-41z" />
    <glyph glyph-name="I.subs" horiz-adv-x="189" 
d="M2 -120l77 388h41l-77 -388h-41z" />
    <glyph glyph-name="J.subs" horiz-adv-x="221" 
d="M-22 -122q-18 0 -35 3l8 40q18 -2 29 -2q41 0 62 18t29 62l54 269h42l-55 -276q-12 -59 -44 -86.5t-90 -27.5z" />
    <glyph glyph-name="K.subs" horiz-adv-x="352" 
d="M322 268l-199 -179l146 -209h-48l-139 198l-39 -198h-41l77 388h41l-32 -164l178 164h56z" />
    <glyph glyph-name="L.subs" horiz-adv-x="296" 
d="M2 -120l77 388h41l-70 -349h166l-7 -39h-207z" />
    <glyph glyph-name="M.subs" horiz-adv-x="527" 
d="M2 -120l77 388h48l76 -318l201 318h54l-77 -388h-40l64 321l-202 -321h-22l-76 321l-64 -321h-39z" />
    <glyph glyph-name="N.subs" horiz-adv-x="445" 
d="M2 -120l77 388h44l148 -326l65 326h40l-77 -388h-44l-148 326l-65 -326h-40z" />
    <glyph glyph-name="O.subs" horiz-adv-x="440" 
d="M155 -129q-149 0 -149 166q0 102 57 171t153 69q151 0 151 -164q0 -104 -57.5 -173t-154.5 -69zM157 -89q79 0 123.5 59t44.5 146q0 122 -111 122q-78 0 -121.5 -59t-43.5 -147q0 -121 108 -121z" />
    <glyph glyph-name="P.subs" horiz-adv-x="350" 
d="M2 -120l77 388h115q120 0 120 -98q0 -113 -145 -113h-91l-35 -177h-41zM85 93h79q107 0 107 77q0 62 -81 62h-77z" />
    <glyph glyph-name="Q.subs" horiz-adv-x="440" 
d="M367 113q0 -83 -37.5 -145.5t-103.5 -85.5l28 -75l-37 -14l-28 80q-22 -2 -34 -2q-149 0 -149 166q0 102 57 171t153 69q151 0 151 -164zM212 -80q54 19 83.5 72.5t29.5 123.5q0 122 -111 122q-78 0 -121.5 -59t-43.5 -147q0 -121 108 -121q12 0 18 1l-18 51l34 13z" />
    <glyph glyph-name="R.subs" horiz-adv-x="372" 
d="M324 171q0 -53 -37 -83t-101 -31l106 -177h-45l-105 177h-64l-35 -177h-41l77 388h125q120 0 120 -97zM181 92q101 0 101 79q0 62 -83 62h-86l-28 -141h96z" />
    <glyph glyph-name="S.subs" horiz-adv-x="357" 
d="M124 -129q-67 0 -105 28t-38 78q0 13 3 30h45q-2 -18 -2 -25q0 -35 26.5 -54.5t74.5 -19.5q46 0 73 18t27 52q0 33 -25 51t-79 37q-29 10 -47 19.5t-34.5 31.5t-16.5 52q0 50 36.5 79t100.5 29t97 -27t33 -73q0 -13 -3 -30h-43q2 11 2 24q0 70 -86 70q-93 0 -93 -66
q0 -17 7.5 -30.5t25 -23.5t30 -15t36.5 -13q52 -18 78.5 -43t26.5 -66q0 -57 -41 -85t-109 -28z" />
    <glyph glyph-name="T.subs" horiz-adv-x="323" 
d="M69 -120l70 351h-126l7 37h293l-7 -37h-126l-70 -351h-41z" />
    <glyph glyph-name="U.subs" horiz-adv-x="396" 
d="M136 -129q-126 0 -126 110q0 16 5 43l49 244h41l-50 -251q-4 -17 -4 -34q0 -74 87 -74q48 0 74 21.5t35 66.5l54 271h41l-56 -279q-24 -118 -150 -118z" />
    <glyph glyph-name="V.subs" horiz-adv-x="355" 
d="M307 268h45l-225 -388h-42l-72 388h42l59 -337z" />
    <glyph glyph-name="W.subs" horiz-adv-x="517" 
d="M471 268h43l-190 -388h-44l-28 330l-158 -330h-44l-37 388h38l31 -327l156 327h46l27 -323z" />
    <glyph glyph-name="X.subs" horiz-adv-x="382" 
d="M-61 -120l195 209l-101 179h46l84 -150l140 150h55l-173 -183l114 -205h-46l-97 175l-161 -175h-56z" />
    <glyph glyph-name="Y.subs" horiz-adv-x="324" 
d="M69 -120l34 167l-90 221h42l73 -179l144 179h49l-177 -221l-34 -167h-41z" />
    <glyph glyph-name="Z.subs" horiz-adv-x="332" 
d="M-55 -120l284 350h-204l7 38h279l-284 -350h221l-7 -38h-296z" />
    <glyph glyph-name="a.subs" horiz-adv-x="349" 
d="M144 177q111 0 111 -91q0 -21 -5 -46l-32 -160h-39l8 39q-40 -46 -110 -46q-49 0 -73.5 21.5t-24.5 59.5q0 95 145 95h88q5 24 5 35q0 59 -74 59q-79 0 -90 -63h-40q18 97 131 97zM84 -92q53 0 82 27.5t40 82.5h-80q-106 0 -106 -61q0 -49 64 -49z" />
    <glyph glyph-name="b.subs" horiz-adv-x="372" 
d="M178 177q60 0 88.5 -36t28.5 -93q0 -72 -42 -123t-110 -51q-85 0 -104 63l-11 -57h-38l84 424h39l-34 -173q39 46 99 46zM131 -89q57 0 90 39.5t33 95.5q0 42 -20 68t-63 26q-42 0 -72 -28t-40 -78q-6 -30 -6 -48q0 -35 21 -55t57 -20z" />
    <glyph glyph-name="c.subs" horiz-adv-x="336" 
d="M112 -126q-61 0 -91.5 35t-30.5 93q0 74 44.5 124.5t117.5 50.5q56 0 85.5 -29t29.5 -83h-43q0 36 -18.5 55.5t-54.5 19.5q-57 0 -88 -39.5t-31 -96.5q0 -42 20.5 -67.5t61.5 -25.5q38 0 62.5 19.5t30.5 52.5h42q-10 -51 -47 -80t-90 -29z" />
    <glyph glyph-name="d.subs" horiz-adv-x="373" 
d="M284 304h39l-85 -424h-38l9 42q-40 -49 -102 -49q-60 0 -88.5 36t-28.5 93q0 72 42 123t110 51q85 0 104 -64zM114 -90q42 0 72 28t40 78q6 30 6 48q0 35 -21 55t-57 20q-57 0 -90 -39.5t-33 -95.5q0 -42 20 -68t63 -26z" />
    <glyph glyph-name="e.subs" horiz-adv-x="351" 
d="M272 18h-240q-1 -5 -1 -16q0 -93 87 -93q84 0 105 73h40q-12 -51 -52 -79.5t-93 -28.5q-65 0 -96.5 35t-31.5 95q0 74 45.5 123.5t118.5 49.5q58 0 90 -30.5t32 -88.5q0 -21 -4 -40zM152 142q-46 0 -75.5 -25.5t-39.5 -67.5h200v10q0 83 -85 83z" />
    <glyph glyph-name="f.subs" horiz-adv-x="210" 
d="M-4 -120l51 255h-50l7 35h50l11 55q16 84 102 84q21 0 38 -4l-7 -35q-12 3 -28 3q-57 0 -68 -55l-9 -48h84l-7 -35h-84l-51 -255h-39z" />
    <glyph glyph-name="g.subs" horiz-adv-x="371" 
d="M257 170h38l-60 -299q-23 -118 -153 -118q-61 0 -91.5 24.5t-28.5 73.5h41q-2 -32 18.5 -47.5t61.5 -15.5q95 0 114 89l8 40q-39 -44 -98 -44q-60 0 -88.5 36t-28.5 93q0 72 42 123t110 51q84 0 104 -63zM114 -90q42 0 72 28t40 78q6 30 6 48q0 35 -21 55t-57 20
q-57 0 -90 -39.5t-33 -95.5q0 -42 20 -68t63 -26z" />
    <glyph glyph-name="h.subs" horiz-adv-x="368" 
d="M173 177q99 0 99 -100q0 -17 -5 -45l-30 -152h-39l30 154q5 25 5 39q0 67 -68 67q-84 0 -102 -90l-34 -170h-39l84 424h39l-32 -165q34 38 92 38z" />
    <glyph glyph-name="i.subs" horiz-adv-x="162" 
d="M86 239q-13 0 -21.5 8t-8.5 20q0 14 8 23t22 9q13 0 21.5 -8.5t8.5 -21.5t-8.5 -21.5t-21.5 -8.5zM-11 -120l58 290h39l-58 -290h-39z" />
    <glyph glyph-name="j.subs" horiz-adv-x="162" 
d="M86 239q-13 0 -21.5 8t-8.5 20q0 14 8 23t22 9q12 0 21 -8.5t9 -21.5t-9 -21.5t-21 -8.5zM-69 -242q-17 0 -30 3l7 36q9 -2 21 -2q43 0 51 44l67 331h39l-68 -339q-14 -73 -87 -73z" />
    <glyph glyph-name="k.subs" horiz-adv-x="293" 
d="M263 170l-167 -138l125 -152h-46l-117 146l-29 -146h-39l84 424h39l-50 -254l144 120h56z" />
    <glyph glyph-name="l.subs" horiz-adv-x="162" 
d="M-11 -120l84 424h39l-84 -424h-39z" />
    <glyph glyph-name="m.subs" horiz-adv-x="558" 
d="M366 177q96 0 96 -100q0 -17 -5 -45l-30 -152h-39l30 154q5 25 5 39q0 67 -63 67q-80 0 -98 -90l-34 -170h-39l30 154q5 25 5 39q0 67 -63 67q-80 0 -98 -90l-34 -170h-39l58 290h36l-7 -33q36 40 92 40q72 0 89 -62q37 62 108 62z" />
    <glyph glyph-name="n.subs" horiz-adv-x="368" 
d="M173 177q99 0 99 -100q0 -17 -5 -45l-30 -152h-39l30 154q5 25 5 39q0 67 -68 67q-84 0 -102 -90l-34 -170h-39l58 290h36l-7 -35q35 42 96 42z" />
    <glyph glyph-name="o.subs" horiz-adv-x="350" 
d="M117 -127q-62 0 -94 36.5t-32 94.5q0 73 44 123t113 50q63 0 94 -37t31 -95q0 -72 -44 -122t-112 -50zM119 -90q54 0 83.5 39.5t29.5 97.5q0 42 -21 67.5t-64 25.5q-54 0 -84.5 -39.5t-30.5 -97.5q0 -42 21.5 -67.5t65.5 -25.5z" />
    <glyph glyph-name="p.subs" horiz-adv-x="372" 
d="M178 177q60 0 88.5 -36t28.5 -93q0 -72 -42 -123t-110 -51q-82 0 -103 61l-36 -176h-39l82 411h38l-9 -42q40 49 102 49zM131 -89q57 0 90 39.5t33 95.5q0 42 -20 68t-63 26q-42 0 -72 -28t-40 -78q-6 -30 -6 -48q0 -35 21 -55t57 -20z" />
    <glyph glyph-name="q.subs" horiz-adv-x="372" 
d="M257 170h38l-82 -411h-39l32 160q-39 -46 -99 -46t-88.5 36t-28.5 93q0 72 42 123t110 51q84 0 104 -63zM114 -90q42 0 72 28t40 78q6 30 6 48q0 35 -21 55t-57 20q-57 0 -90 -39.5t-33 -95.5q0 -42 20 -68t63 -26z" />
    <glyph glyph-name="r.subs" horiz-adv-x="220" 
d="M164 174q15 0 31 -4l-8 -38q-11 3 -26 3q-82 0 -100 -93l-32 -162h-39l58 290h36l-8 -37q32 41 88 41z" />
    <glyph glyph-name="s.subs" horiz-adv-x="299" 
d="M90 -127q-112 0 -112 86q0 12 1 18h39q-1 -5 -1 -14q0 -56 75 -56q76 0 76 51q0 13 -5 22t-16 15.5t-20 10t-26 8.5q-43 13 -64.5 30.5t-21.5 50.5q0 39 28.5 60.5t76.5 21.5q103 0 103 -79q0 -9 -1 -14h-38q1 4 1 12q0 49 -66 49q-64 0 -64 -48q0 -14 10.5 -24
t19.5 -13.5t33 -10.5q4 -1 6 -2q42 -13 63.5 -32.5t21.5 -54.5q0 -42 -32.5 -64.5t-86.5 -22.5z" />
    <glyph glyph-name="t.subs" horiz-adv-x="230" 
d="M90 -124q-40 0 -59 16t-19 52q0 18 4 35l32 156h-51l7 35h51l14 71h39l-14 -71h93l-7 -35h-93l-33 -161q-3 -14 -3 -24q0 -38 45 -38q17 0 39 5l-7 -37q-17 -4 -38 -4z" />
    <glyph glyph-name="u.subs" horiz-adv-x="368" 
d="M253 170h39l-58 -290h-36l7 35q-35 -42 -96 -42q-99 0 -99 100q0 17 5 45l30 152h39l-30 -154q-5 -25 -5 -39q0 -67 68 -67q84 0 102 90z" />
    <glyph glyph-name="v.subs" horiz-adv-x="308" 
d="M59 -120l-58 290h40l48 -241l144 241h46l-174 -290h-46z" />
    <glyph glyph-name="w.subs" horiz-adv-x="463" 
d="M389 170h45l-162 -290h-39l-27 236l-119 -236h-40l-46 290h40l33 -241l123 241h38l26 -237z" />
    <glyph glyph-name="x.subs" horiz-adv-x="323" 
d="M-52 -120l146 148l-86 142h44l69 -114l115 114h52l-144 -142l88 -148h-43l-72 120l-118 -120h-51z" />
    <glyph glyph-name="y.subs" horiz-adv-x="317" 
d="M242 170h46l-264 -410h-44l79 124l-58 286h41l45 -245z" />
    <glyph glyph-name="z.subs" horiz-adv-x="294" 
d="M257 170l-227 -254h176l-7 -36h-252l230 255h-163l7 35h236z" />
    <glyph glyph-name="A.sups" horiz-adv-x="359" 
d="M349 438l-16 101h-186l-56 -101h-44l218 388h62l64 -388h-42zM168 575h159l-35 219h-2z" />
    <glyph glyph-name="B.sups" horiz-adv-x="373" 
d="M331 635q63 -19 63 -84q0 -113 -153 -113h-127l77 388h104q57 0 88 -24t31 -68q0 -79 -83 -99zM225 792l-27 -137h74q97 0 97 76q0 61 -79 61h-65zM242 472q108 0 108 78q0 73 -82 73h-77l-30 -151h81z" />
    <glyph glyph-name="C.sups" horiz-adv-x="423" 
d="M270 429q-71 0 -112 44t-41 123q0 97 59 168t160 71q63 0 101.5 -35.5t37.5 -100.5q0 -6 -1 -12h-44q7 111 -101 111q-79 0 -124.5 -59.5t-45.5 -139.5q0 -63 30 -97.5t84 -34.5q52 0 88 26.5t48 75.5h43q-15 -68 -63.5 -104t-118.5 -36z" />
    <glyph glyph-name="D.sups" horiz-adv-x="425" 
d="M114 438l77 388h109q87 0 125 -40t38 -120q0 -98 -57 -163t-157 -65h-135zM162 476h89q81 0 125 53.5t44 136.5q0 61 -28.5 92t-92.5 31h-74z" />
    <glyph glyph-name="E.sups" horiz-adv-x="338" 
d="M114 438l77 388h227l-7 -37h-186l-27 -134h184l-8 -38h-184l-28 -141h186l-7 -38h-227z" />
    <glyph glyph-name="F.sups" horiz-adv-x="329" 
d="M114 438l77 388h223l-7 -37h-182l-27 -134h181l-8 -38h-181l-35 -179h-41z" />
    <glyph glyph-name="G.sups" horiz-adv-x="429" 
d="M305 601l8 38h155l-5 -26q-36 -184 -189 -184q-79 0 -118 46t-39 121q0 99 58.5 169t153.5 70q68 0 107 -35t39 -103h-42q0 52 -29 76.5t-76 24.5q-76 0 -122.5 -57.5t-46.5 -142.5q0 -131 117 -131q61 0 96.5 37t46.5 97h-114z" />
    <glyph glyph-name="H.sups" horiz-adv-x="429" 
d="M114 438l77 388h41l-34 -171h199l34 171h41l-77 -388h-41l35 179h-199l-35 -179h-41z" />
    <glyph glyph-name="I.sups" horiz-adv-x="189" 
d="M114 438l77 388h41l-77 -388h-41z" />
    <glyph glyph-name="J.sups" horiz-adv-x="221" 
d="M90 436q-18 0 -35 3l8 40q18 -2 29 -2q41 0 62 18t29 62l54 269h42l-55 -276q-12 -59 -44 -86.5t-90 -27.5z" />
    <glyph glyph-name="K.sups" horiz-adv-x="352" 
d="M434 826l-199 -179l146 -209h-48l-139 198l-39 -198h-41l77 388h41l-32 -164l178 164h56z" />
    <glyph glyph-name="L.sups" horiz-adv-x="296" 
d="M114 438l77 388h41l-70 -349h166l-7 -39h-207z" />
    <glyph glyph-name="M.sups" horiz-adv-x="527" 
d="M114 438l77 388h48l76 -318l201 318h54l-77 -388h-40l64 321l-202 -321h-22l-76 321l-64 -321h-39z" />
    <glyph glyph-name="N.sups" horiz-adv-x="445" 
d="M114 438l77 388h44l148 -326l65 326h40l-77 -388h-44l-148 326l-65 -326h-40z" />
    <glyph glyph-name="O.sups" horiz-adv-x="440" 
d="M267 429q-149 0 -149 166q0 102 57 171t153 69q151 0 151 -164q0 -104 -57.5 -173t-154.5 -69zM269 469q79 0 123.5 59t44.5 146q0 122 -111 122q-78 0 -121.5 -59t-43.5 -147q0 -121 108 -121z" />
    <glyph glyph-name="P.sups" horiz-adv-x="350" 
d="M114 438l77 388h115q120 0 120 -98q0 -113 -145 -113h-91l-35 -177h-41zM197 651h79q107 0 107 77q0 62 -81 62h-77z" />
    <glyph glyph-name="Q.sups" horiz-adv-x="440" 
d="M479 671q0 -83 -37.5 -145.5t-103.5 -85.5l28 -75l-37 -14l-28 80q-22 -2 -34 -2q-149 0 -149 166q0 102 57 171t153 69q151 0 151 -164zM324 478q54 19 83.5 72.5t29.5 123.5q0 122 -111 122q-78 0 -121.5 -59t-43.5 -147q0 -121 108 -121q12 0 18 1l-18 51l34 13z" />
    <glyph glyph-name="R.sups" horiz-adv-x="372" 
d="M436 729q0 -53 -37 -83t-101 -31l106 -177h-45l-105 177h-64l-35 -177h-41l77 388h125q120 0 120 -97zM293 650q101 0 101 79q0 62 -83 62h-86l-28 -141h96z" />
    <glyph glyph-name="S.sups" horiz-adv-x="357" 
d="M236 429q-67 0 -105 28t-38 78q0 13 3 30h45q-2 -18 -2 -25q0 -35 26.5 -54.5t74.5 -19.5q46 0 73 18t27 52q0 33 -25 51t-79 37q-29 10 -47 19.5t-34.5 31.5t-16.5 52q0 50 36.5 79t100.5 29t97 -27t33 -73q0 -13 -3 -30h-43q2 11 2 24q0 70 -86 70q-93 0 -93 -66
q0 -17 7.5 -30.5t25 -23.5t30 -15t36.5 -13q52 -18 78.5 -43t26.5 -66q0 -57 -41 -85t-109 -28z" />
    <glyph glyph-name="T.sups" horiz-adv-x="323" 
d="M181 438l70 351h-126l7 37h293l-7 -37h-126l-70 -351h-41z" />
    <glyph glyph-name="U.sups" horiz-adv-x="396" 
d="M248 429q-126 0 -126 110q0 16 5 43l49 244h41l-50 -251q-4 -17 -4 -34q0 -74 87 -74q48 0 74 21.5t35 66.5l54 271h41l-56 -279q-24 -118 -150 -118z" />
    <glyph glyph-name="V.sups" horiz-adv-x="355" 
d="M419 826h45l-225 -388h-42l-72 388h42l59 -337z" />
    <glyph glyph-name="W.sups" horiz-adv-x="517" 
d="M583 826h43l-190 -388h-44l-28 330l-158 -330h-44l-37 388h38l31 -327l156 327h46l27 -323z" />
    <glyph glyph-name="X.sups" horiz-adv-x="382" 
d="M51 438l195 209l-101 179h46l84 -150l140 150h55l-173 -183l114 -205h-46l-97 175l-161 -175h-56z" />
    <glyph glyph-name="Y.sups" horiz-adv-x="324" 
d="M181 438l34 167l-90 221h42l73 -179l144 179h49l-177 -221l-34 -167h-41z" />
    <glyph glyph-name="Z.sups" horiz-adv-x="332" 
d="M57 438l284 350h-204l7 38h279l-284 -350h221l-7 -38h-296z" />
    <glyph glyph-name="a.sups" horiz-adv-x="349" 
d="M256 735q111 0 111 -91q0 -21 -5 -46l-32 -160h-39l8 39q-40 -46 -110 -46q-49 0 -73.5 21.5t-24.5 59.5q0 95 145 95h88q5 24 5 35q0 59 -74 59q-79 0 -90 -63h-40q18 97 131 97zM196 466q53 0 82 27.5t40 82.5h-80q-106 0 -106 -61q0 -49 64 -49z" />
    <glyph glyph-name="b.sups" horiz-adv-x="372" 
d="M290 735q60 0 88.5 -36t28.5 -93q0 -72 -42 -123t-110 -51q-85 0 -104 63l-11 -57h-38l84 424h39l-34 -173q39 46 99 46zM243 469q57 0 90 39.5t33 95.5q0 42 -20 68t-63 26q-42 0 -72 -28t-40 -78q-6 -30 -6 -48q0 -35 21 -55t57 -20z" />
    <glyph glyph-name="c.sups" horiz-adv-x="336" 
d="M224 432q-61 0 -91.5 35t-30.5 93q0 74 44.5 124.5t117.5 50.5q56 0 85.5 -29t29.5 -83h-43q0 36 -18.5 55.5t-54.5 19.5q-57 0 -88 -39.5t-31 -96.5q0 -42 20.5 -67.5t61.5 -25.5q38 0 62.5 19.5t30.5 52.5h42q-10 -51 -47 -80t-90 -29z" />
    <glyph glyph-name="d.sups" horiz-adv-x="373" 
d="M396 862h39l-85 -424h-38l9 42q-40 -49 -102 -49q-60 0 -88.5 36t-28.5 93q0 72 42 123t110 51q85 0 104 -64zM226 468q42 0 72 28t40 78q6 30 6 48q0 35 -21 55t-57 20q-57 0 -90 -39.5t-33 -95.5q0 -42 20 -68t63 -26z" />
    <glyph glyph-name="e.sups" horiz-adv-x="351" 
d="M384 576h-240q-1 -5 -1 -16q0 -93 87 -93q84 0 105 73h40q-12 -51 -52 -79.5t-93 -28.5q-65 0 -96.5 35t-31.5 95q0 74 45.5 123.5t118.5 49.5q58 0 90 -30.5t32 -88.5q0 -21 -4 -40zM264 700q-46 0 -75.5 -25.5t-39.5 -67.5h200v10q0 83 -85 83z" />
    <glyph glyph-name="f.sups" horiz-adv-x="210" 
d="M108 438l51 255h-50l7 35h50l11 55q16 84 102 84q21 0 38 -4l-7 -35q-12 3 -28 3q-57 0 -68 -55l-9 -48h84l-7 -35h-84l-51 -255h-39z" />
    <glyph glyph-name="g.sups" horiz-adv-x="371" 
d="M369 728h38l-60 -299q-23 -118 -153 -118q-61 0 -91.5 24.5t-28.5 73.5h41q-2 -32 18.5 -47.5t61.5 -15.5q95 0 114 89l8 40q-39 -44 -98 -44q-60 0 -88.5 36t-28.5 93q0 72 42 123t110 51q84 0 104 -63zM226 468q42 0 72 28t40 78q6 30 6 48q0 35 -21 55t-57 20
q-57 0 -90 -39.5t-33 -95.5q0 -42 20 -68t63 -26z" />
    <glyph glyph-name="h.sups" horiz-adv-x="368" 
d="M285 735q99 0 99 -100q0 -17 -5 -45l-30 -152h-39l30 154q5 25 5 39q0 67 -68 67q-84 0 -102 -90l-34 -170h-39l84 424h39l-32 -165q34 38 92 38z" />
    <glyph glyph-name="i.sups" horiz-adv-x="162" 
d="M198 797q-13 0 -21.5 8t-8.5 20q0 14 8 23t22 9q13 0 21.5 -8.5t8.5 -21.5t-8.5 -21.5t-21.5 -8.5zM101 438l58 290h39l-58 -290h-39z" />
    <glyph glyph-name="j.sups" horiz-adv-x="162" 
d="M198 797q-13 0 -21.5 8t-8.5 20q0 14 8 23t22 9q12 0 21 -8.5t9 -21.5t-9 -21.5t-21 -8.5zM43 316q-16 0 -30 3l7 36q9 -2 21 -2q43 0 51 44l67 331h39l-68 -339q-14 -73 -87 -73z" />
    <glyph glyph-name="k.sups" horiz-adv-x="293" 
d="M375 728l-167 -138l125 -152h-46l-117 146l-29 -146h-39l84 424h39l-50 -254l144 120h56z" />
    <glyph glyph-name="l.sups" horiz-adv-x="162" 
d="M101 438l84 424h39l-84 -424h-39z" />
    <glyph glyph-name="m.sups" horiz-adv-x="558" 
d="M478 735q96 0 96 -100q0 -17 -5 -45l-30 -152h-39l30 154q5 25 5 39q0 67 -63 67q-80 0 -98 -90l-34 -170h-39l30 154q5 25 5 39q0 67 -63 67q-80 0 -98 -90l-34 -170h-39l58 290h36l-7 -33q36 40 92 40q72 0 89 -62q37 62 108 62z" />
    <glyph glyph-name="n.sups" horiz-adv-x="368" 
d="M285 735q99 0 99 -100q0 -17 -5 -45l-30 -152h-39l30 154q5 25 5 39q0 67 -68 67q-84 0 -102 -90l-34 -170h-39l58 290h36l-7 -35q35 42 96 42z" />
    <glyph glyph-name="o.sups" horiz-adv-x="350" 
d="M229 431q-62 0 -94 36.5t-32 94.5q0 73 44 123t113 50q63 0 94 -37t31 -95q0 -72 -44 -122t-112 -50zM231 468q54 0 83.5 39.5t29.5 97.5q0 42 -21 67.5t-64 25.5q-54 0 -84.5 -39.5t-30.5 -97.5q0 -42 21.5 -67.5t65.5 -25.5z" />
    <glyph glyph-name="p.sups" horiz-adv-x="372" 
d="M290 735q60 0 88.5 -36t28.5 -93q0 -72 -42 -123t-110 -51q-82 0 -103 61l-36 -176h-39l82 411h38l-9 -42q40 49 102 49zM243 469q57 0 90 39.5t33 95.5q0 42 -20 68t-63 26q-42 0 -72 -28t-40 -78q-6 -30 -6 -48q0 -35 21 -55t57 -20z" />
    <glyph glyph-name="q.sups" horiz-adv-x="372" 
d="M369 728h38l-82 -411h-39l32 160q-39 -46 -99 -46t-88.5 36t-28.5 93q0 72 42 123t110 51q84 0 104 -63zM226 468q42 0 72 28t40 78q6 30 6 48q0 35 -21 55t-57 20q-57 0 -90 -39.5t-33 -95.5q0 -42 20 -68t63 -26z" />
    <glyph glyph-name="r.sups" horiz-adv-x="220" 
d="M276 732q15 0 31 -4l-8 -38q-10 3 -26 3q-82 0 -100 -93l-32 -162h-39l58 290h36l-8 -37q32 41 88 41z" />
    <glyph glyph-name="s.sups" horiz-adv-x="299" 
d="M202 431q-112 0 -112 86q0 12 1 18h39q-1 -5 -1 -14q0 -56 75 -56q76 0 76 51q0 13 -5 22t-16 15.5t-20 10t-26 8.5q-43 13 -64.5 30.5t-21.5 50.5q0 39 28.5 60.5t76.5 21.5q103 0 103 -79q0 -9 -1 -14h-38q1 4 1 12q0 49 -66 49q-64 0 -64 -48q0 -14 10.5 -24
t19.5 -13.5t33 -10.5q4 -1 6 -2q42 -13 63.5 -32.5t21.5 -54.5q0 -42 -32.5 -64.5t-86.5 -22.5z" />
    <glyph glyph-name="t.sups" horiz-adv-x="230" 
d="M202 434q-40 0 -59 16t-19 52q0 18 4 35l32 156h-51l7 35h51l14 71h39l-14 -71h93l-7 -35h-93l-33 -161q-3 -14 -3 -24q0 -38 45 -38q17 0 39 5l-7 -37q-17 -4 -38 -4z" />
    <glyph glyph-name="u.sups" horiz-adv-x="368" 
d="M365 728h39l-58 -290h-36l7 35q-35 -42 -96 -42q-99 0 -99 100q0 17 5 45l30 152h39l-30 -154q-5 -25 -5 -39q0 -67 68 -67q84 0 102 90z" />
    <glyph glyph-name="v.sups" horiz-adv-x="308" 
d="M171 438l-58 290h40l48 -241l144 241h46l-174 -290h-46z" />
    <glyph glyph-name="w.sups" horiz-adv-x="463" 
d="M501 728h45l-162 -290h-39l-27 236l-119 -236h-40l-46 290h40l33 -241l123 241h38l26 -237z" />
    <glyph glyph-name="x.sups" horiz-adv-x="323" 
d="M60 438l146 148l-86 142h44l69 -114l115 114h52l-144 -142l88 -148h-43l-72 120l-118 -120h-51z" />
    <glyph glyph-name="y.sups" horiz-adv-x="317" 
d="M354 728h46l-264 -410h-44l79 124l-58 286h41l45 -245z" />
    <glyph glyph-name="z.sups" horiz-adv-x="294" 
d="M369 728l-227 -254h176l-7 -36h-252l230 255h-163l7 35h236z" />
    <glyph glyph-name="zero.lf" horiz-adv-x="646" 
d="M296 -15q-113 0 -165.5 67.5t-52.5 180.5q0 77 15 147q33 152 108.5 246.5t193.5 94.5q113 0 165.5 -67.5t52.5 -180.5q0 -77 -15 -147q-33 -152 -108.5 -246.5t-193.5 -94.5zM296 34q97 0 160.5 81.5t87.5 209.5q15 78 15 145q0 202 -164 202q-97 0 -160.5 -81.5
t-87.5 -209.5q-15 -78 -15 -145q0 -202 164 -202z" />
    <glyph glyph-name="one.lf" horiz-adv-x="328" 
d="M111 0l132 658h-124l19 48h165l-141 -706h-51z" />
    <glyph glyph-name="two.lf" horiz-adv-x="538" 
d="M-18 0l1 3l340 288q44 38 68.5 61t50 54.5t36 62.5t10.5 68q0 63 -35.5 99t-109.5 36q-163 0 -201 -202h-51q22 115 84 183t169 68q101 0 149.5 -49.5t48.5 -134.5q0 -76 -38.5 -132.5t-120.5 -125.5q-87 -74 -276 -232h347l-9 -47h-463z" />
    <glyph glyph-name="three.lf" horiz-adv-x="579" 
d="M560 552q0 -74 -45 -121t-124 -59q117 -33 117 -160q0 -104 -70 -165.5t-186 -61.5q-113 0 -163.5 49.5t-50.5 143.5q0 34 7 68h50q-7 -40 -7 -66q0 -147 164 -147q94 0 149.5 49t55.5 132q0 137 -189 137h-9l9 45h29q98 0 155 40t57 115q0 59 -37.5 91.5t-112.5 32.5
q-169 0 -204 -194h-52q21 113 85.5 176.5t174.5 63.5q98 0 147.5 -45.5t49.5 -123.5z" />
    <glyph glyph-name="four.lf" horiz-adv-x="559" 
d="M539 238l-10 -46h-102l-38 -192h-51l38 192h-381l1 4l439 510h95l-93 -468h102zM94 238h292l88 442h-1z" />
    <glyph glyph-name="five.lf" horiz-adv-x="567" 
d="M550 659h-293l-79 -220q58 14 111 14q112 0 167 -57t55 -157q0 -112 -72.5 -183t-189.5 -71q-106 0 -155.5 49.5t-49.5 135.5q0 21 5 49h50q-4 -21 -4 -46q0 -141 154 -141q96 0 152.5 57t56.5 146q0 171 -189 171q-84 0 -164 -29l119 329h345z" />
    <glyph glyph-name="six.lf" horiz-adv-x="632" 
d="M357 453q101 0 156 -57.5t55 -148.5q0 -111 -77 -186.5t-192 -75.5q-218 0 -218 263q0 125 37 231t115 174t183 68q97 0 149 -55.5t52 -150.5h-53q1 76 -37.5 117.5t-110.5 41.5q-81 0 -143 -51t-95.5 -129.5t-44.5 -175.5q30 62 88.5 98.5t135.5 36.5zM299 32
q96 0 156 62.5t60 154.5q0 70 -43 113.5t-122 43.5q-96 0 -154 -60t-58 -149q0 -72 41 -118.5t120 -46.5z" />
    <glyph glyph-name="seven.lf" horiz-adv-x="487" 
d="M54 0l411 658h-346l9 48h427l-439 -706h-62z" />
    <glyph glyph-name="eight.lf" horiz-adv-x="618" 
d="M429 371q118 -35 118 -162q0 -103 -73.5 -163.5t-187.5 -60.5q-118 0 -176.5 50t-58.5 136q0 84 54.5 140.5t142.5 67.5q-108 36 -108 156q0 86 67.5 136t169.5 50q109 0 165 -43.5t56 -120.5q0 -73 -47 -123.5t-122 -62.5zM193 529q0 -62 40.5 -97.5t116.5 -35.5
q84 0 139.5 43t55.5 110q0 60 -42.5 94t-126.5 34q-82 0 -132.5 -39.5t-50.5 -108.5zM287 31q91 0 148.5 47.5t57.5 126.5q0 67 -44 106t-128 39q-94 0 -155.5 -49t-61.5 -126q0 -66 46 -105t137 -39z" />
    <glyph glyph-name="nine.lf" horiz-adv-x="627" 
d="M379 723q218 0 218 -263q0 -125 -37 -231t-115 -174t-183 -68q-97 0 -149 55.5t-52 150.5h53q-1 -76 37.5 -117.5t110.5 -41.5q81 0 143 51t95.5 129.5t44.5 175.5q-30 -62 -88.5 -98.5t-135.5 -36.5q-101 0 -156 57.5t-55 148.5q0 111 77 186.5t192 75.5zM328 302
q96 0 154 60t58 149q0 72 -41 118.5t-120 46.5q-96 0 -156 -62.5t-60 -154.5q0 -70 43 -113.5t122 -43.5z" />
    <glyph glyph-name="zero.dnom" horiz-adv-x="421" 
d="M175 -8q-70 0 -102 42.5t-32 114.5q0 31 7 70q16 80 62 128.5t118 48.5q70 0 102 -42.5t32 -114.5q0 -31 -7 -70q-14 -79 -60.5 -128t-119.5 -49zM177 31q55 0 89 40t47 105q6 30 6 63q0 118 -93 118q-55 0 -89 -40t-47 -105q-6 -30 -6 -63q0 -118 93 -118z" />
    <glyph glyph-name="one.dnom" horiz-adv-x="249" 
d="M63 0l70 348h-83l14 40h121l-78 -388h-44z" />
    <glyph glyph-name="two.dnom" horiz-adv-x="334" 
d="M-24 0l1 3l196 162q33 28 49 43t29 38.5t13 48.5q0 65 -78 65q-50 0 -74.5 -26t-33.5 -72h-42q25 136 150 136q60 0 90 -27.5t30 -76.5q0 -43 -22 -74t-69 -68l-135 -111h177l-8 -41h-273z" />
    <glyph glyph-name="three.dnom" horiz-adv-x="367" 
d="M328 300q0 -75 -87 -97q59 -20 59 -86q0 -58 -42.5 -92.5t-110.5 -34.5q-135 0 -135 115q0 16 3 34h40q-3 -15 -3 -29q0 -83 95 -83q51 0 81 24.5t30 65.5q0 69 -98 69h-12l8 37h22q107 0 107 75q0 63 -81 63q-50 0 -78 -26.5t-36 -65.5h-40q10 58 51.5 93.5t109.5 35.5
q58 0 87.5 -27t29.5 -71z" />
    <glyph glyph-name="four.dnom" horiz-adv-x="349" 
d="M185 0l21 105h-229v2l247 281h82l-49 -245h57l-8 -38h-57l-21 -105h-43zM61 143h153l45 229z" />
    <glyph glyph-name="five.dnom" horiz-adv-x="365" 
d="M145 -8q-130 0 -130 104q0 11 2 21h41q-1 -8 -1 -18q0 -70 88 -70q52 0 82 27t30 72q0 89 -114 89q-48 0 -93 -14l69 185h209l-13 -36h-168l-39 -104q24 4 45 4q74 0 110.5 -32.5t36.5 -88.5q0 -61 -43.5 -100t-111.5 -39z" />
    <glyph glyph-name="six.dnom" horiz-adv-x="407" 
d="M205 253q63 0 97 -33.5t34 -82.5q0 -62 -45.5 -103.5t-113.5 -41.5q-146 0 -146 153q0 106 53.5 178.5t144.5 72.5q58 0 91 -29t37 -83h-43q-6 76 -91 76q-62 0 -99.5 -47.5t-47.5 -122.5q45 63 129 63zM177 29q56 0 85.5 30.5t29.5 76.5q0 38 -24 59.5t-71 21.5
q-54 0 -87 -31.5t-33 -72.5q0 -37 26 -60.5t74 -23.5z" />
    <glyph glyph-name="seven.dnom" horiz-adv-x="312" 
d="M16 0l228 349h-194l8 39h264l-254 -388h-52z" />
    <glyph glyph-name="eight.dnom" horiz-adv-x="383" 
d="M251 203q64 -22 64 -91q0 -56 -44 -88t-113 -32q-70 0 -106.5 29.5t-36.5 80.5q0 42 28 70t76 37q-55 22 -55 82q0 49 40.5 77t102.5 28q66 0 100.5 -25t34.5 -70q0 -34 -23 -61.5t-68 -36.5zM204 362q-45 0 -71.5 -18.5t-26.5 -54.5q0 -65 94 -65q45 0 73 19.5t28 55.5
q0 63 -97 63zM162 29q50 0 80.5 23t30.5 62q0 33 -26 52.5t-77 19.5q-49 0 -80.5 -22.5t-31.5 -60.5q0 -35 27.5 -54.5t76.5 -19.5z" />
    <glyph glyph-name="nine.dnom" horiz-adv-x="407" 
d="M230 396q146 0 146 -153q0 -106 -53.5 -178.5t-144.5 -72.5q-58 0 -91 29t-37 83h43q6 -76 91 -76q62 0 99.5 47.5t47.5 122.5q-45 -63 -129 -63q-63 0 -97 33.5t-34 82.5q0 62 45.5 103.5t113.5 41.5zM210 171q54 0 87 31.5t33 72.5q0 37 -26 60.5t-74 23.5
q-56 0 -85.5 -30.5t-29.5 -76.5q0 -38 24 -59.5t71 -21.5z" />
    <glyph glyph-name="zero.numr" horiz-adv-x="421" 
d="M239 310q-70 0 -102 42.5t-32 114.5q0 31 7 70q16 80 62 128.5t118 48.5q70 0 102 -42.5t32 -114.5q0 -31 -7 -70q-14 -79 -60.5 -128t-119.5 -49zM241 349q55 0 89 40t47 105q6 30 6 63q0 118 -93 118q-55 0 -89 -40t-47 -105q-6 -30 -6 -63q0 -118 93 -118z" />
    <glyph glyph-name="one.numr" horiz-adv-x="249" 
d="M127 318l70 348h-83l14 40h121l-78 -388h-44z" />
    <glyph glyph-name="two.numr" horiz-adv-x="334" 
d="M40 318l1 3l196 162q33 28 49 43t29 38.5t13 48.5q0 65 -78 65q-50 0 -74.5 -26t-33.5 -72h-42q25 136 150 136q60 0 90 -27.5t30 -76.5q0 -43 -22 -74t-69 -68l-135 -111h177l-8 -41h-273z" />
    <glyph glyph-name="three.numr" horiz-adv-x="367" 
d="M392 618q0 -75 -87 -97q59 -20 59 -86q0 -58 -42.5 -92.5t-110.5 -34.5q-135 0 -135 115q0 16 3 34h40q-3 -15 -3 -29q0 -83 95 -83q51 0 81 24.5t30 65.5q0 69 -98 69h-12l8 37h22q107 0 107 75q0 63 -81 63q-50 0 -78 -26.5t-36 -65.5h-40q10 58 51.5 93.5t109.5 35.5
q58 0 87.5 -27t29.5 -71z" />
    <glyph glyph-name="four.numr" horiz-adv-x="349" 
d="M249 318l21 105h-229v2l247 281h82l-49 -245h57l-8 -38h-57l-21 -105h-43zM125 461h153l45 229z" />
    <glyph glyph-name="five.numr" horiz-adv-x="365" 
d="M209 310q-130 0 -130 104q0 11 2 21h41q-1 -8 -1 -18q0 -70 88 -70q52 0 82 27t30 72q0 89 -114 89q-48 0 -93 -14l69 185h209l-13 -36h-168l-39 -104q24 4 45 4q74 0 110.5 -32.5t36.5 -88.5q0 -61 -43.5 -100t-111.5 -39z" />
    <glyph glyph-name="six.numr" horiz-adv-x="407" 
d="M269 571q63 0 97 -33.5t34 -82.5q0 -62 -45.5 -103.5t-113.5 -41.5q-146 0 -146 153q0 106 53.5 178.5t144.5 72.5q58 0 91 -29t37 -83h-43q-6 76 -91 76q-62 0 -99.5 -47.5t-47.5 -122.5q45 63 129 63zM241 347q56 0 85.5 30.5t29.5 76.5q0 38 -24 59.5t-71 21.5
q-54 0 -87 -31.5t-33 -72.5q0 -37 26 -60.5t74 -23.5z" />
    <glyph glyph-name="seven.numr" horiz-adv-x="312" 
d="M80 318l228 349h-194l8 39h264l-254 -388h-52z" />
    <glyph glyph-name="eight.numr" horiz-adv-x="383" 
d="M315 521q64 -22 64 -91q0 -56 -44 -88t-113 -32q-70 0 -106.5 29.5t-36.5 80.5q0 42 28 70t76 37q-55 22 -55 82q0 49 40.5 77t102.5 28q66 0 100.5 -25t34.5 -70q0 -34 -23 -61.5t-68 -36.5zM268 680q-45 0 -71.5 -18.5t-26.5 -54.5q0 -65 94 -65q45 0 73 19.5t28 55.5
q0 63 -97 63zM226 347q50 0 80.5 23t30.5 62q0 33 -26 52.5t-77 19.5q-49 0 -80.5 -22.5t-31.5 -60.5q0 -35 27.5 -54.5t76.5 -19.5z" />
    <glyph glyph-name="nine.numr" horiz-adv-x="407" 
d="M294 714q146 0 146 -153q0 -106 -53.5 -178.5t-144.5 -72.5q-58 0 -91 29t-37 83h43q6 -76 91 -76q62 0 99.5 47.5t47.5 122.5q-45 -63 -129 -63q-63 0 -97 33.5t-34 82.5q0 62 45.5 103.5t113.5 41.5zM274 489q54 0 87 31.5t33 72.5q0 37 -26 60.5t-74 23.5
q-56 0 -85.5 -30.5t-29.5 -76.5q0 -38 24 -59.5t71 -21.5z" />
    <glyph glyph-name="zero.sc" horiz-adv-x="586" 
d="M252 -13q-177 0 -177 213q0 53 12 116q23 121 92.5 198t173.5 77q177 0 177 -213q0 -53 -12 -116q-23 -121 -92.5 -198t-173.5 -77zM256 36q83 0 136.5 65t74.5 169q11 55 11 110q0 78 -29 120.5t-99 42.5q-83 0 -137 -65t-75 -169q-11 -55 -11 -110q0 -163 129 -163z
" />
    <glyph glyph-name="one.sc" horiz-adv-x="323" 
d="M95 0l106 530h-105l20 49h145l-116 -579h-50z" />
    <glyph glyph-name="two.sc" horiz-adv-x="481" 
d="M-15 0l1 3l287 242q79 67 100 93q35 45 35 96q0 50 -28.5 79.5t-87.5 29.5q-137 0 -167 -159h-50q18 95 71 151t146 56q85 0 127 -42t42 -114q0 -60 -32 -103.5t-101 -99.5q-68 -55 -225 -184h290l-10 -48h-398z" />
    <glyph glyph-name="three.sc" horiz-adv-x="524" 
d="M481 451q0 -59 -37.5 -97.5t-102.5 -51.5q99 -26 99 -132q0 -84 -62.5 -133.5t-161.5 -49.5q-180 0 -180 160q0 21 5 56h50q-5 -28 -5 -49q0 -120 134 -120q77 0 122.5 37.5t45.5 99.5q0 113 -158 113h-6l8 43h26q84 0 128 32t44 89q0 47 -29 73t-88 26q-142 0 -173 -151
h-49q37 195 230 195q80 0 120 -37.5t40 -102.5z" />
    <glyph glyph-name="four.sc" horiz-adv-x="489" 
d="M459 199l-9 -46h-87l-31 -153h-50l31 153h-324v3l364 423h95l-76 -380h87zM84 199h238l71 356h-2z" />
    <glyph glyph-name="five.sc" horiz-adv-x="513" 
d="M223 -13q-92 0 -136 40t-44 109q0 26 4 47h50q-4 -26 -4 -39q0 -51 32.5 -80.5t98.5 -29.5q80 0 124.5 44.5t44.5 116.5q0 134 -163 134q-73 0 -134 -19l98 269h298l-20 -47h-247l-63 -171q45 12 92 12q96 0 143 -47.5t47 -131.5q0 -92 -60 -149.5t-161 -57.5z" />
    <glyph glyph-name="six.sc" horiz-adv-x="574" 
d="M316 373q88 0 134 -46t46 -123q0 -93 -66 -155t-164 -62q-190 0 -190 209q0 107 30.5 194.5t95.5 144t155 56.5q86 0 132 -45t46 -123h-51q0 58 -34.5 90.5t-92.5 32.5q-97 0 -155 -78.5t-73 -198.5q27 48 77 76t110 28zM267 34q77 0 127 48.5t50 120.5q0 56 -33.5 90.5
t-101.5 34.5q-76 0 -125.5 -47.5t-49.5 -117.5q0 -56 33 -92.5t100 -36.5z" />
    <glyph glyph-name="seven.sc" horiz-adv-x="436" 
d="M46 0l341 530h-290l10 49h369l-368 -579h-62z" />
    <glyph glyph-name="eight.sc" horiz-adv-x="558" 
d="M518 460q0 -62 -40 -104t-104 -52q100 -29 100 -136q0 -84 -63.5 -132.5t-163.5 -48.5q-99 0 -148 42t-49 114q0 67 45.5 113.5t117.5 55.5q-91 27 -91 117q0 76 62.5 119t157.5 43q86 0 131 -34.5t45 -96.5zM306 328q69 0 114.5 34.5t45.5 91.5q0 44 -31 69.5t-93 25.5
q-75 0 -121.5 -32t-46.5 -89q0 -47 34 -73.5t98 -26.5zM423 169q0 53 -36.5 84t-105.5 31q-77 0 -128 -38.5t-51 -99.5q0 -52 37 -83t109 -31q77 0 126 37.5t49 99.5z" />
    <glyph glyph-name="nine.sc" horiz-adv-x="573" 
d="M327 591q190 0 190 -209q0 -107 -30.5 -194.5t-95.5 -144t-155 -56.5q-86 0 -132 45t-46 123h51q0 -58 34.5 -90.5t92.5 -32.5q97 0 155 78.5t73 198.5q-27 -48 -77 -76t-110 -28q-88 0 -134 46t-46 123q0 93 66 155t164 62zM284 250q76 0 125.5 47.5t49.5 117.5
q0 56 -33 92.5t-100 36.5q-77 0 -127 -48.5t-50 -120.5q0 -56 33.5 -90.5t101.5 -34.5z" />
    <glyph glyph-name="colon.case" horiz-adv-x="252" 
d="M186 498q-19 0 -30.5 11t-11.5 30t11.5 31t30.5 12q18 0 30 -12t12 -31q0 -18 -12 -29.5t-30 -11.5zM113 131q-19 0 -30.5 11t-11.5 30t11.5 31t30.5 12q18 0 30 -12t12 -31q0 -18 -12 -29.5t-30 -11.5z" />
    <glyph glyph-name="semicolon.case" horiz-adv-x="275" 
d="M180 498q-19 0 -30.5 11t-11.5 30t11.5 31t30.5 12q18 0 30 -12t12 -31q0 -18 -12 -29.5t-30 -11.5zM-25 -25l128 323h51l-136 -323h-43z" />
    <glyph glyph-name="exclamdown.case" horiz-adv-x="252" 
d="M213 714q19 0 30.5 -11t11.5 -30t-11.5 -31t-30.5 -12q-18 0 -30 12t-12 31q0 18 12 29.5t30 11.5zM205 528l-101 -532h-53l111 532h43z" />
    <glyph glyph-name="questiondown.case" horiz-adv-x="472" 
d="M328 719q19 0 30.5 -11t11.5 -30t-11.5 -31t-30.5 -12q-18 0 -30 12t-12 31q0 18 12 29.5t30 11.5zM331 533q-145 -170 -177 -214q-80 -109 -80 -181q0 -47 30 -77t98 -30q82 0 120 41.5t54 122.5h50q-19 -101 -71.5 -155t-152.5 -54q-91 0 -135.5 42t-44.5 111
q0 17 3.5 34t7.5 32t14.5 35.5t17.5 34t24.5 37.5t27 37t33 42t35 42.5t41 48.5t42.5 51h63z" />
    <glyph glyph-name="periodcentered.case" horiz-adv-x="252" 
d="M153 335q-19 0 -30.5 11t-11.5 30t11.5 31t30.5 12q18 0 30 -12t12 -31q0 -18 -12 -29.5t-30 -11.5z" />
    <glyph glyph-name="periodcentered.loclCAT.case" horiz-adv-x="29" 
d="M-70 342q-19 0 -30.5 11t-11.5 30t11.5 31t30.5 12q18 0 30 -12t12 -31q0 -18 -12 -29.5t-30 -11.5z" />
    <glyph glyph-name="slash.case" horiz-adv-x="420" 
d="M-20 -50l461 806h56l-461 -806h-56z" />
    <glyph glyph-name="periodcentered.loclCAT" horiz-adv-x="100" 
d="M68 291q-19 0 -30.5 11t-11.5 30t11.5 31t30.5 12q18 0 30 -12t12 -31q0 -18 -12 -29.5t-30 -11.5z" />
    <glyph glyph-name="parenleft.case" horiz-adv-x="375" 
d="M200 -129q-56 165 -56 328q0 337 242 637h56q-252 -296 -252 -639q0 -172 58 -326h-48z" />
    <glyph glyph-name="parenright.case" horiz-adv-x="375" 
d="M220 836q56 -165 56 -328q0 -337 -242 -637h-56q252 296 252 639q0 172 -58 326h48z" />
    <glyph glyph-name="braceleft.case" horiz-adv-x="330" 
d="M373 836h53l-8 -40h-29q-93 0 -111 -89l-51 -253q-12 -56 -32 -78t-68 -25q33 -4 47 -21.5t14 -52.5q0 -17 -7 -55l-45 -223q-3 -15 -3 -27q0 -62 79 -62h29l-8 -39h-33q-108 0 -108 102q0 20 4 37l43 219q7 35 7 51q0 28 -18.5 39t-65.5 11l9 45q63 0 84.5 20.5
t33.5 81.5l50 249q10 50 44 80t90 30z" />
    <glyph glyph-name="braceright.case" horiz-adv-x="330" 
d="M229 427q0 -28 18.5 -39t65.5 -11l-9 -45q-63 0 -84.5 -20.5t-33.5 -81.5l-50 -249q-10 -50 -44 -80t-90 -30h-53l8 40h29q93 0 111 89l51 253q12 56 32 78t68 25q-33 4 -47 21.5t-14 52.5q0 16 7 55l45 223q3 15 3 27q0 62 -79 62h-29l8 39h33q108 0 108 -102
q0 -20 -4 -37l-43 -219q-7 -35 -7 -51z" />
    <glyph glyph-name="bracketleft.case" horiz-adv-x="369" 
d="M93 -129l193 965h179l-8 -41h-134l-177 -883h134l-8 -41h-179z" />
    <glyph glyph-name="bracketright.case" horiz-adv-x="369" 
d="M321 836l-193 -965h-179l8 41h134l177 883h-134l8 41h179z" />
    <glyph glyph-name="hyphen.case" horiz-adv-x="375" 
d="M75 349l10 48h268l-10 -48h-268z" />
    <glyph glyph-name="uni00AD.case" horiz-adv-x="375" 
d="M75 349l10 48h268l-10 -48h-268z" />
    <glyph glyph-name="endash.case" horiz-adv-x="489" 
d="M75 350l9 46h383l-9 -46h-383z" />
    <glyph glyph-name="emdash.case" horiz-adv-x="958" 
d="M75 350l9 46h852l-9 -46h-852z" />
    <glyph glyph-name="guillemotleft.case" horiz-adv-x="432" 
d="M170 211l-122 159l186 159h63l-191 -164l118 -154h-54zM344 211l-122 159l186 159h63l-191 -164l118 -154h-54z" />
    <glyph glyph-name="guillemotright.case" horiz-adv-x="432" 
d="M140 529l122 -159l-186 -159h-63l191 164l-118 154h54zM314 529l122 -159l-186 -159h-63l191 164l-118 154h54z" />
    <glyph glyph-name="guilsinglleft.case" horiz-adv-x="258" 
d="M170 211l-122 159l186 159h63l-191 -164l118 -154h-54z" />
    <glyph glyph-name="guilsinglright.case" horiz-adv-x="258" 
d="M140 529l122 -159l-186 -159h-63l191 164l-118 154h54z" />
    <glyph glyph-name="periodcentered.loclCAT.sc" horiz-adv-x="51" 
d="M-29 291q-19 0 -30.5 11t-11.5 30t11.5 31t30.5 12q18 0 30 -12t12 -31q0 -18 -12 -29.5t-30 -11.5z" />
    <glyph glyph-name="slash.sc" horiz-adv-x="385" 
d="M-20 -50l388 679h57l-389 -679h-56z" />
    <glyph glyph-name="cent.ss06" horiz-adv-x="503" 
d="M494 421h-49q1 7 1 18q0 56 -34 87t-93 31q-93 0 -148 -75t-55 -180q0 -71 33 -113t102 -42q63 0 107.5 36t56.5 95h51q-16 -81 -75.5 -128.5t-140.5 -47.5h-4l-20 -102h-42l21 106q-71 13 -105.5 66t-34.5 132q0 119 66.5 205.5t172.5 93.5l21 103h42l-21 -104
q70 -7 109.5 -48t39.5 -110q0 -15 -1 -23z" />
    <glyph glyph-name="dollar.ss06" horiz-adv-x="588" 
d="M561 482h-50q5 28 5 49q0 65 -42.5 104t-120.5 39q-81 0 -130.5 -40.5t-49.5 -104.5q0 -17 4.5 -32t10.5 -26t19 -22t22 -17t28.5 -14.5t29 -12t33 -12t32.5 -11.5q94 -34 136.5 -74t42.5 -114q0 -97 -69 -153t-188 -56h-12l-18 -92h-43l18 96q-90 12 -134 65t-44 136
q0 22 3 46h52q-4 -23 -4 -46q0 -74 46 -116t139 -42q94 0 148 43t54 115q0 35 -12 59.5t-40.5 42.5t-53 27.5t-72.5 25.5q-88 29 -134 70t-46 113q0 86 64.5 139.5t170.5 53.5h5l18 91h43l-18 -94q79 -12 120.5 -61t41.5 -123q0 -24 -5 -52z" />
    <glyph glyph-name="paragraph.ss07" horiz-adv-x="603" 
d="M207 -201l105 525h-42q-188 0 -188 172q0 100 56.5 155t161.5 55h376l-9 -45h-68l-172 -862h-48l172 862h-124l-172 -862h-48zM271 369h50l58 293h-80q-84 0 -128 -45t-44 -125q0 -60 33.5 -91.5t110.5 -31.5z" />
    <glyph glyph-name="caroncomb.alt" 
d="M12 541l64 165h47l-69 -165h-42z" />
    <glyph glyph-name="uni0335.Eth" 
d="M-276 338l9 45h296l-9 -45h-296z" />
    <glyph glyph-name="uni0335.Tbar" 
d="M-368 296l9 43h329l-9 -43h-329z" />
    <glyph glyph-name="caron.alt" horiz-adv-x="178" 
d="M110 541l64 165h47l-69 -165h-42z" />
    <glyph glyph-name="uni0308.case" 
d="M-171 812q-18 0 -29.5 11.5t-11.5 28.5q0 19 11.5 30.5t29.5 11.5q17 0 29 -12t12 -30q0 -17 -12 -28.5t-29 -11.5zM30 812q-18 0 -29.5 11.5t-11.5 28.5q0 19 11.5 30.5t29.5 11.5t29.5 -12t11.5 -30q0 -17 -12 -28.5t-29 -11.5z" />
    <glyph glyph-name="uni0307.case" 
d="M31 803q-17 0 -28 10.5t-11 26.5t11 26.5t28 10.5q16 0 27 -10.5t11 -26.5t-11 -26.5t-27 -10.5z" />
    <glyph glyph-name="gravecomb.case" 
d="M58 780h-55l-111 121h60z" />
    <glyph glyph-name="acutecomb.case" 
d="M-132 780l144 121h70l-149 -121h-65z" />
    <glyph glyph-name="uni030B.case" 
d="M-248 781l137 120h62l-144 -120h-55zM-115 781l136 120h61l-142 -120h-55z" />
    <glyph glyph-name="uni0302.case" 
d="M-260 780l150 121h66l102 -121h-56l-79 93l-115 -93h-68z" />
    <glyph glyph-name="uni030C.case" 
d="M82 901l-150 -121h-66l-102 121h56l79 -93l115 93h68z" />
    <glyph glyph-name="uni0306.case" 
d="M-77 776q-112 0 -112 96q0 9 2 29h40q-1 -7 -1 -19q0 -69 77 -69q44 0 70 21t40 67h43q-30 -125 -159 -125z" />
    <glyph glyph-name="uni030A.case" 
d="M-33 747q-46 0 -73 26.5t-27 70.5t27 70.5t73 26.5q45 0 73 -27t28 -70q0 -44 -27.5 -70.5t-73.5 -26.5zM-33 781q29 0 46 17.5t17 45.5t-17.5 45t-45.5 17q-29 0 -46 -17t-17 -45t17 -45.5t46 -17.5z" />
    <glyph glyph-name="tildecomb.case" 
d="M-42 776q-47 0 -80 46q-2 2 -8 10.5t-8 10.5l-7.5 7.5t-10 7.5t-11 4t-14.5 2q-52 0 -77 -86h-43q31 126 124 126q47 0 81 -46q1 -1 8 -10t8.5 -11t7.5 -8t9.5 -7.5t10 -3.5t13.5 -2q53 0 78 85h43q-34 -125 -124 -125z" />
    <glyph glyph-name="uni0304.case" 
d="M-216 819l8 42h282l-8 -42h-282z" />
    <glyph glyph-name="uni0337.case" 
d="M-153 337l12 54l194 116l-11 -54zM-256 281l11 53l104 61l-11 -53z" />
    <glyph glyph-name="uni0338.case" 
d="M-730 0l124 119l2 1l515 511l4 -2l76 77h62l-123 -119l-1 1l-516 -511l-3 1l-78 -78h-62z" />
    </font>
</defs>
</svg>
